STARTFONT 2.3
FONT -FontForge-Roboto Condensed-Book-R-Condensed---28-280-72-72-P-138-ISO10646-1
SIZE 28 72 72  2
FONTBOUNDINGBOX 49 36 -21 -7
COMMENT "Generated by fontforge, http://fontforge.sourceforge.net"
COMMENT "Copyright 2011 Google Inc. All Rights Reserved."
STARTPROPERTIES 42
FOUNDRY "FontForge"
FAMILY_NAME "Roboto Condensed"
WEIGHT_NAME "Book"
SLANT "R"
SETWIDTH_NAME "Condensed"
ADD_STYLE_NAME ""
PIXEL_SIZE 28
POINT_SIZE 280
RESOLUTION_X 72
RESOLUTION_Y 72
SPACING "P"
AVERAGE_WIDTH 138
CHARSET_REGISTRY "ISO10646"
CHARSET_ENCODING "1"
FONTNAME_REGISTRY ""
CHARSET_COLLECTIONS "ISO8859-2 ISO8859-5 ISO8859-7 ISO8859-9 ISO8859-4 ISO10646-1"
BITS_PER_PIXEL 2
FONT_NAME "RobotoCondensed-Regular"
FACE_NAME "Roboto Condensed"
COPYRIGHT "Copyright 2011 Google Inc. All Rights Reserved."
FONT_VERSION "2.137; 2017"
FONT_ASCENT 21
FONT_DESCENT 7
UNDERLINE_POSITION -3
UNDERLINE_THICKNESS 2
X_HEIGHT 14
CAP_HEIGHT 19
DEFAULT_CHAR 1
RAW_ASCENT 750
RAW_DESCENT 250
NORM_SPACE 6
RELATIVE_WEIGHT 40
RELATIVE_SETWIDTH 50
SUPERSCRIPT_X 0
SUPERSCRIPT_Y 13
SUPERSCRIPT_SIZE 18
SUBSCRIPT_X 0
SUBSCRIPT_Y 3
SUBSCRIPT_SIZE 18
FIGURE_WIDTH 14
AVG_LOWERCASE_WIDTH 134
AVG_UPPERCASE_WIDTH 161
ENDPROPERTIES
CHARS 1296
STARTCHAR uni0000
ENCODING 0
SWIDTH 0 0
DWIDTH 0 0
BBX 1 1 0 0
BITMAP
00
ENDCHAR
STARTCHAR uni0002
ENCODING 2
SWIDTH 0 0
DWIDTH 0 0
BBX 1 1 0 0
BITMAP
00
ENDCHAR
STARTCHAR uni000D
ENCODING 13
SWIDTH 229 0
DWIDTH 6 0
BBX 1 1 0 0
BITMAP
00
ENDCHAR
STARTCHAR space
ENCODING 32
SWIDTH 229 0
DWIDTH 6 0
BBX 1 1 0 0
BITMAP
00
ENDCHAR
STARTCHAR exclam
ENCODING 33
SWIDTH 245 0
DWIDTH 7 0
BBX 3 20 2 0
BITMAP
B8
B8
B8
B8
B8
B8
B8
B8
B8
B8
B8
B8
B8
B8
10
00
00
64
BC
B8
ENDCHAR
STARTCHAR quotedbl
ENCODING 34
SWIDTH 319 0
DWIDTH 9 0
BBX 6 7 2 14
BITMAP
E1D0
E1D0
E1D0
E1D0
E1D0
D1D0
D1C0
ENDCHAR
STARTCHAR numbersign
ENCODING 35
SWIDTH 547 0
DWIDTH 15 0
BBX 14 20 1 0
BITMAP
001E0B40
001D0B00
002D0F00
002C1E00
00381D00
1FFFFFE0
1FFFFFE0
00B43C00
00B03800
00F07800
00F07800
00E0B400
7FFFFF80
7FFFFF80
02D0F000
02C0E000
03C1E000
0381D000
0782D000
0742C000
ENDCHAR
STARTCHAR dollar
ENCODING 36
SWIDTH 493 0
DWIDTH 14 0
BBX 12 26 1 -3
BITMAP
002C00
002C00
002C00
01BF40
0BFFE0
1F96F4
2F00F8
2E007C
2E007C
2E0014
1F4000
0FE400
03FE40
00BFE0
0007F4
0000FC
00007D
7C003D
7C007D
3E00BC
2F56F8
0FFFF0
02FF80
003C00
003C00
002800
ENDCHAR
STARTCHAR percent
ENCODING 37
SWIDTH 632 0
DWIDTH 18 0
BBX 16 20 1 0
BITMAP
0BE00000
2EB80000
782C0240
741D0B40
B41D0E00
741D2D00
782C3800
2EB8B000
0BE1E000
0002C000
00078000
000B0BE0
001D2EB8
003C782D
0074741D
00E0741D
02D0741D
0180782D
00002EB8
00000BE0
ENDCHAR
STARTCHAR ampersand
ENCODING 38
SWIDTH 543 0
DWIDTH 15 0
BBX 14 20 1 0
BITMAP
01BE4000
07FFD000
0FD6F000
0F41F000
1F00F000
1F41F000
0F87E000
07EF8000
02FE0000
02FC0000
0BFD0140
2F6F07C0
3D0F8780
7C07EB80
BC02FF40
BC00FF00
7D007E00
2F41FF40
0FFFEBC0
02FE47E0
ENDCHAR
STARTCHAR quotesingle
ENCODING 39
SWIDTH 174 0
DWIDTH 5 0
BBX 3 7 1 14
BITMAP
B4
B4
B4
B4
B4
B4
B4
ENDCHAR
STARTCHAR parenleft
ENCODING 40
SWIDTH 313 0
DWIDTH 9 0
BBX 7 28 1 -6
BITMAP
0018
003C
00B4
01E0
03C0
0780
0F40
1F00
2E00
2E00
3D00
3D00
3D00
7D00
7D00
3D00
3D00
3D00
2E00
2E00
1F00
0F40
0B80
03C0
01E0
00B4
003C
0018
ENDCHAR
STARTCHAR parenright
ENCODING 41
SWIDTH 318 0
DWIDTH 9 0
BBX 6 28 1 -6
BITMAP
8000
E000
7800
3D00
1E00
0F40
0B80
07C0
03D0
02E0
02E0
02F0
01F0
01F0
01F0
01F0
02F0
02E0
02E0
03D0
07C0
0780
0B40
1E00
2D00
7800
E000
8000
ENDCHAR
STARTCHAR asterisk
ENCODING 42
SWIDTH 430 0
DWIDTH 12 0
BBX 12 12 0 8
BITMAP
003C00
003C00
003C00
243C18
7FBDFD
6FFFF9
01BE40
01FF40
03D7C0
0B82E0
0B01E0
000040
ENDCHAR
STARTCHAR plus
ENCODING 43
SWIDTH 496 0
DWIDTH 14 0
BBX 12 15 1 2
BITMAP
006800
007C00
007C00
007C00
007C00
007C00
BFFFFE
BFFFFE
55BD55
007C00
007C00
007C00
007C00
007C00
006800
ENDCHAR
STARTCHAR comma
ENCODING 44
SWIDTH 196 0
DWIDTH 6 0
BBX 5 7 0 -4
BITMAP
1F40
1F40
1F00
1F00
2E00
7C00
2400
ENDCHAR
STARTCHAR hyphen
ENCODING 45
SWIDTH 248 0
DWIDTH 7 0
BBX 7 2 0 7
BITMAP
7FF4
7FF4
ENDCHAR
STARTCHAR period
ENCODING 46
SWIDTH 263 0
DWIDTH 7 0
BBX 3 3 2 0
BITMAP
B8
FC
B8
ENDCHAR
STARTCHAR slash
ENCODING 47
SWIDTH 370 0
DWIDTH 10 0
BBX 10 22 0 -2
BITMAP
0002D0
0003C0
000780
000B40
000F00
001E00
002D00
003C00
007800
00B400
00F000
01E000
02D000
03C000
07C000
0B8000
0F4000
0F0000
1E0000
2D0000
3C0000
780000
ENDCHAR
STARTCHAR zero
ENCODING 48
SWIDTH 493 0
DWIDTH 14 0
BBX 12 20 1 0
BITMAP
01BE40
0BFFD0
1F86F0
2E00F8
3D00BC
7C007C
7C007C
7C007D
7C007D
7C007D
7C007D
7C007D
7C007D
7C007C
7D007C
3D00B8
2E00F8
1F82F0
0BFFD0
01BE40
ENDCHAR
STARTCHAR one
ENCODING 49
SWIDTH 493 0
DWIDTH 14 0
BBX 7 20 2 0
BITMAP
0028
02F8
2FF8
BEB8
A4B8
00B8
00B8
00B8
00B8
00B8
00B8
00B8
00B8
00B8
00B8
00B8
00B8
00B8
00B8
00B8
ENDCHAR
STARTCHAR two
ENCODING 50
SWIDTH 493 0
DWIDTH 14 0
BBX 12 20 1 0
BITMAP
02FE40
0FFFE0
2F46F4
7D00F8
BC00BC
B8007C
0000B8
0000B8
0001F4
0002E0
000BC0
001F40
003E00
00BC00
02F400
07D000
0F8000
3E0000
7FFFFE
7FFFFE
ENDCHAR
STARTCHAR three
ENCODING 51
SWIDTH 493 0
DWIDTH 14 0
BBX 11 20 1 0
BITMAP
02FE40
0FFFD0
2F46F0
7D00F4
7C00B8
6400B8
0000B8
0000F4
0007E0
01FF80
01FFD0
0006F4
0000F8
0000BC
64007C
BC00BC
7D00F8
3F46F4
1FFFD0
02FE40
ENDCHAR
STARTCHAR four
ENCODING 52
SWIDTH 493 0
DWIDTH 14 0
BBX 13 20 0 0
BITMAP
0000F800
0002F800
0003F800
000BF800
001FB800
002DB800
007CB800
00F4B800
01F0B800
03D0B800
0780B800
0F40B800
2E00B800
3FFFFFC0
7FFFFFC0
0000B800
0000B800
0000B800
0000B800
0000B800
ENDCHAR
STARTCHAR five
ENCODING 53
SWIDTH 493 0
DWIDTH 14 0
BBX 11 20 2 0
BITMAP
2FFFF0
2FFFF0
2E5550
3D0000
3D0000
3D0000
3C0000
7DBE00
7FFFC0
7E5BE0
1402F4
0000F4
0000F8
0000B8
A000F8
F400F4
BC01F0
3E47E0
1FFFC0
06FE00
ENDCHAR
STARTCHAR six
ENCODING 54
SWIDTH 493 0
DWIDTH 14 0
BBX 12 20 1 0
BITMAP
001BC0
00FFC0
03F900
0BD000
1F4000
2F0000
2E0000
3D7F80
3FFFE0
3F92F8
7E00BC
7D007D
7D003D
3D003D
3D003D
2E007D
1F00BC
0FD2F4
07FFE0
00BE40
ENDCHAR
STARTCHAR seven
ENCODING 55
SWIDTH 493 0
DWIDTH 14 0
BBX 12 20 1 0
BITMAP
FFFFFE
FFFFFE
00007D
0000B8
0000F4
0001F0
0002E0
0003D0
0007C0
000B80
001F40
002F00
003D00
007C00
00B800
00F400
01F000
03E000
07D000
0BC000
ENDCHAR
STARTCHAR eight
ENCODING 56
SWIDTH 493 0
DWIDTH 14 0
BBX 12 20 1 0
BITMAP
01BE40
0BFFD0
1F96F4
2F00F8
3E00B8
3D00B8
3D00B8
2E00F4
1F82F0
07FFD0
07FFD0
1F46F4
3E00B8
7C007C
7C007D
7C007C
3D00BC
2F42F8
0FFFE0
02FE40
ENDCHAR
STARTCHAR nine
ENCODING 57
SWIDTH 493 0
DWIDTH 14 0
BBX 11 20 1 0
BITMAP
02FE00
0BFFC0
2F47E0
3E01F4
7C00F8
BC00B8
B800BC
BC007C
7C007C
7D00FC
2F47FC
1FFFFC
06FDB8
0000B8
0000F4
0001F0
0007E0
016FC0
07FE00
07E400
ENDCHAR
STARTCHAR colon
ENCODING 58
SWIDTH 233 0
DWIDTH 7 0
BBX 3 15 2 0
BITMAP
B8
FC
B8
00
00
00
00
00
00
00
00
00
B8
FC
B8
ENDCHAR
STARTCHAR semicolon
ENCODING 59
SWIDTH 202 0
DWIDTH 6 0
BBX 4 19 1 -4
BITMAP
3D
7E
3D
00
00
00
00
00
00
00
00
00
3D
3D
3D
7D
B8
F4
90
ENDCHAR
STARTCHAR less
ENCODING 60
SWIDTH 445 0
DWIDTH 12 0
BBX 10 12 1 3
BITMAP
000050
0007D0
007FD0
06FE00
6FE000
FE0000
FD0000
6FE000
06FE00
007FD0
0007D0
000050
ENDCHAR
STARTCHAR equal
ENCODING 61
SWIDTH 479 0
DWIDTH 13 0
BBX 10 9 2 5
BITMAP
FFFFE0
FFFFE0
555540
000000
000000
000000
FFFFE0
FFFFE0
555540
ENDCHAR
STARTCHAR greater
ENCODING 62
SWIDTH 459 0
DWIDTH 13 0
BBX 10 12 2 3
BITMAP
900000
F80000
BF8000
1BF800
01BF80
000BE0
001BE0
01BF80
1BF800
FF8000
F80000
900000
ENDCHAR
STARTCHAR question
ENCODING 63
SWIDTH 421 0
DWIDTH 12 0
BBX 10 20 1 0
BITMAP
06F900
2FFF40
7E5FC0
BC03D0
B403E0
0003E0
0003D0
000BC0
001F80
003E00
00BC00
01F400
02F000
02E000
015000
000000
000000
019000
02F000
01E000
ENDCHAR
STARTCHAR at
ENCODING 64
SWIDTH 769 0
DWIDTH 22 0
BBX 19 26 1 -6
BITMAP
0001BF9000
001FFFFD00
00BD002F40
01E00007C0
03C00001E0
0B400000B0
0F006F8074
1D01FBE038
2D03D0F02C
3C0780E02C
380B41E02C
780F01E02C
781E01E01C
741E01D02C
741E02D02C
741E02D038
781E03D078
380F4BE0B0
3C0BFDFBD0
2D02E47E40
1E00000000
0F40000000
07D0000000
01F4005000
007FABE000
0006FE4000
ENDCHAR
STARTCHAR A
ENCODING 65
SWIDTH 576 0
DWIDTH 16 0
BBX 16 20 0 0
BITMAP
0003D000
0007E000
000BF000
000FF400
001EB800
002D7C00
003D3D00
007C2E00
00B82F00
00F41F40
01F00F80
02E00BC0
03E007C0
07FFFFD0
0BFFFFE0
0F8002F0
1F4000F4
2F0000B8
3E00007C
7D00003D
ENDCHAR
STARTCHAR B
ENCODING 66
SWIDTH 545 0
DWIDTH 15 0
BBX 12 20 2 0
BITMAP
FFFE80
FFFFF0
F806F8
F800BC
F8007D
F8007D
F8007D
F800BC
F802F4
FFFFD0
FFFFE0
F805F8
F8007D
F8003E
F8003E
F8003E
F8007D
F805FC
FFFFF4
FFFF80
ENDCHAR
STARTCHAR C
ENCODING 67
SWIDTH 566 0
DWIDTH 16 0
BBX 14 20 1 0
BITMAP
006FE400
02FFFE00
0BE56F40
1F800BC0
2F0007D0
3E0003E0
7D000290
7D000000
7D000000
7D000000
7D000000
7D000000
7D000000
7D000290
3E0003D0
2F0007D0
1F400BC0
0BE46F40
02FFFE00
006FE400
ENDCHAR
STARTCHAR D
ENCODING 68
SWIDTH 570 0
DWIDTH 16 0
BBX 13 20 2 0
BITMAP
FFFE4000
FFFFE000
F816F800
F800BD00
F8003E00
F8002F00
F8001F00
F8001F40
F8001F40
F8001F40
F8001F40
F8001F40
F8001F40
F8001F00
F8002F00
F8003E00
F800BD00
F816F800
FFFFE000
FFFA0000
ENDCHAR
STARTCHAR E
ENCODING 69
SWIDTH 496 0
DWIDTH 14 0
BBX 11 20 2 0
BITMAP
FFFFF8
FFFFF8
F80000
F80000
F80000
F80000
F80000
F80000
F80000
FFFFE0
FFFFE0
F80000
F80000
F80000
F80000
F80000
F80000
F80000
FFFFFC
FFFFFC
ENDCHAR
STARTCHAR F
ENCODING 70
SWIDTH 480 0
DWIDTH 13 0
BBX 11 20 2 0
BITMAP
FFFFF8
FFFFF8
F80000
F80000
F80000
F80000
F80000
F80000
F80000
FFFFD0
FFFFD0
F80000
F80000
F80000
F80000
F80000
F80000
F80000
F80000
F80000
ENDCHAR
STARTCHAR G
ENCODING 71
SWIDTH 590 0
DWIDTH 17 0
BBX 14 20 1 0
BITMAP
006FE400
03FFFE00
0FE56F80
1F400BC0
2E0007D0
3D0003E0
7D000000
7D000000
7D000000
7D000000
7D02FFE0
7D02FFE0
7D0003E0
7D0003E0
3E0003E0
2F0003E0
1F8003E0
0BE55FD0
02FFFF40
006FE800
ENDCHAR
STARTCHAR H
ENCODING 72
SWIDTH 620 0
DWIDTH 17 0
BBX 14 20 2 0
BITMAP
F80007D0
F80007D0
F80007D0
F80007D0
F80007D0
F80007D0
F80007D0
F80007D0
F80007D0
FFFFFFD0
FFFFFFD0
F80007D0
F80007D0
F80007D0
F80007D0
F80007D0
F80007D0
F80007D0
F80007D0
F80007D0
ENDCHAR
STARTCHAR I
ENCODING 73
SWIDTH 250 0
DWIDTH 7 0
BBX 3 20 2 0
BITMAP
B8
B8
B8
B8
B8
B8
B8
B8
B8
B8
B8
B8
B8
B8
B8
B8
B8
B8
B8
B8
ENDCHAR
STARTCHAR J
ENCODING 74
SWIDTH 483 0
DWIDTH 14 0
BBX 11 20 1 0
BITMAP
0000F8
0000F8
0000F8
0000F8
0000F8
0000F8
0000F8
0000F8
0000F8
0000F8
0000F8
0000F8
0000F8
0000F8
A400F4
F401F4
FC02F0
7E5BE0
2FFFC0
06FE00
ENDCHAR
STARTCHAR K
ENCODING 75
SWIDTH 544 0
DWIDTH 15 0
BBX 13 20 2 0
BITMAP
F8002F40
F8007E00
F801F800
F802F000
F80BD000
F81F8000
F83F0000
F8BD0000
F9F40000
FFF80000
FFFD0000
FF3F0000
FD1F4000
F80BC000
F807E000
F802F400
F800FC00
F8007E00
F8002F40
F8000F80
ENDCHAR
STARTCHAR L
ENCODING 76
SWIDTH 475 0
DWIDTH 13 0
BBX 11 20 2 0
BITMAP
F80000
F80000
F80000
F80000
F80000
F80000
F80000
F80000
F80000
F80000
F80000
F80000
F80000
F80000
F80000
F80000
F80000
F80000
FFFFF4
FFFFF4
ENDCHAR
STARTCHAR M
ENCODING 77
SWIDTH 755 0
DWIDTH 21 0
BBX 17 20 2 0
BITMAP
FE00001FC0
FF00002FC0
FF40003FC0
FF40007FC0
FF8000BFC0
FBC000FBC0
F7D001F7C0
FAE002E7C0
F9F003D7C0
F8F407C7C0
F8B80B87C0
F87C0F47C0
F83D1F0BC0
F82E2E0BC0
F81F3D0BC0
F80F7C0BC0
F80BF80BC0
F807F40BC0
F803F00BC0
F802E00BC0
ENDCHAR
STARTCHAR N
ENCODING 78
SWIDTH 619 0
DWIDTH 17 0
BBX 13 20 2 0
BITMAP
FC0007C0
FD0007C0
FF0007C0
FF4007C0
FFC007C0
FBD007C0
F9F007C0
F8B807C0
F87C07C0
F82E07C0
F81F07C0
F80B87C0
F807C7C0
F802E7C0
F801FBC0
F800BFC0
F8007FC0
F8002FC0
F8000FC0
F8000BC0
ENDCHAR
STARTCHAR O
ENCODING 79
SWIDTH 600 0
DWIDTH 17 0
BBX 14 20 1 0
BITMAP
006FE400
02FFFE00
0BE56F80
1F800BC0
2F0003E0
3E0002E0
7D0002F0
7D0001F0
7D0001F0
7D0001F0
7D0001F0
7D0001F0
7D0001F0
7D0002F0
3E0002E0
2F0003E0
1F800BC0
0BE56F80
02FFFE00
006FE400
ENDCHAR
STARTCHAR P
ENCODING 80
SWIDTH 554 0
DWIDTH 16 0
BBX 13 20 2 0
BITMAP
FFFF9000
FFFFF800
F805BD00
F8003F00
F8001F40
F8000F40
F8000F40
F8001F40
F8002F00
F801BE00
FFFFF800
FFFFE000
F8000000
F8000000
F8000000
F8000000
F8000000
F8000000
F8000000
F8000000
ENDCHAR
STARTCHAR Q
ENCODING 81
SWIDTH 600 0
DWIDTH 17 0
BBX 14 23 1 -3
BITMAP
006FE400
02FFFE00
0BE57F40
1F400BC0
3E0003D0
3D0002E0
7D0002F0
7C0002F0
7C0002F0
7C0002F0
7C0002F0
7C0002F0
7C0002F0
7D0002F0
3D0002E0
3E0003D0
1F400BC0
0BE56F40
02FFFE00
006FFF40
00001FD0
000007F0
000001D0
ENDCHAR
STARTCHAR R
ENCODING 82
SWIDTH 530 0
DWIDTH 15 0
BBX 13 20 2 0
BITMAP
FFFE8000
FFFFF000
F806F800
F800BD00
F8003E00
F8003E00
F8003E00
F8003D00
F800BD00
F801F800
FFFFF000
FFFF8000
F80BC000
F807D000
F802F000
F801F400
F800FC00
F8007D00
F8003E00
F8002F40
ENDCHAR
STARTCHAR S
ENCODING 83
SWIDTH 518 0
DWIDTH 15 0
BBX 13 20 1 0
BITMAP
01BF9000
0BFFF400
2F95BD00
3E003E00
7D001F00
7D001F40
3E000000
2F400000
1FE40000
07FF8000
006FF400
0006FD00
00007F00
00001F40
B8001F40
BC001F40
7D002F00
2F91BE00
0BFFF800
01BF9000
ENDCHAR
STARTCHAR T
ENCODING 84
SWIDTH 520 0
DWIDTH 15 0
BBX 14 20 0 0
BITMAP
7FFFFFE0
7FFFFFE0
000F8000
000F8000
000F8000
000F8000
000F8000
000F8000
000F8000
000F8000
000F8000
000F8000
000F8000
000F8000
000F8000
000F8000
000F8000
000F8000
000F8000
000F8000
ENDCHAR
STARTCHAR U
ENCODING 85
SWIDTH 561 0
DWIDTH 16 0
BBX 13 20 1 0
BITMAP
7D000BC0
7D000BC0
7D000BC0
7D000BC0
7D000BC0
7D000BC0
7D000BC0
7D000BC0
7D000BC0
7D000BC0
7D000BC0
7D000BC0
7D000BC0
7D000BC0
7D000BC0
3D000BC0
2F001F80
1F917F00
0BFFFD00
01BFE000
ENDCHAR
STARTCHAR V
ENCODING 86
SWIDTH 560 0
DWIDTH 16 0
BBX 15 20 0 0
BITMAP
7D0000BC
3E0000F8
2F0001F4
1F4002F0
0F8003E0
0BC003D0
07C007C0
03D00B80
02E00F80
01F01F40
01F42F00
00F83E00
00B83D00
007C7C00
003DB800
002EF400
001FF000
000FE000
000BD000
0007C000
ENDCHAR
STARTCHAR W
ENCODING 87
SWIDTH 761 0
DWIDTH 21 0
BBX 20 20 1 0
BITMAP
F8007C003D
B800BD007D
BC00BD007C
7C00FE00BC
3D01FF00B8
3D01EF00F8
2E02DB40F4
2E03C781F0
1F03C781F0
0F4783C2E0
0F4B42D2E0
0B8F42D3D0
0B8F01E3C0
07DE00F7C0
03ED00FB80
03FD00BF80
02FC007F40
02F8007F00
01F8003F00
01F4002E00
ENDCHAR
STARTCHAR X
ENCODING 88
SWIDTH 550 0
DWIDTH 15 0
BBX 14 20 1 0
BITMAP
BD000BD0
7E001F80
2F402F00
0F807E00
0BD0BC00
03E1F800
02F2F000
00FBE000
007FC000
003F4000
003F8000
00BFC000
00FBE000
02F2F000
07E0F800
0BC0BD00
1F803E00
2F002F40
7E001F80
BC000BD0
ENDCHAR
STARTCHAR Y
ENCODING 89
SWIDTH 524 0
DWIDTH 15 0
BBX 14 20 0 0
BITMAP
7D0002F0
3F0007E0
1F400BC0
0F800F80
0BC01F40
03D02E00
02F07D00
01F4BC00
00B8F400
007EF000
003FD000
001FC000
000F8000
000F8000
000F8000
000F8000
000F8000
000F8000
000F8000
000F8000
ENDCHAR
STARTCHAR Z
ENCODING 90
SWIDTH 522 0
DWIDTH 15 0
BBX 13 20 1 0
BITMAP
BFFFFF00
BFFFFF00
00007E00
00007D00
0000F800
0002F000
0007D000
000BC000
001F4000
003E0000
007D0000
00F80000
02F00000
07D00000
0BC00000
1F400000
3E000000
7D000000
BFFFFF40
BFFFFF40
ENDCHAR
STARTCHAR bracketleft
ENCODING 91
SWIDTH 250 0
DWIDTH 7 0
BBX 5 27 2 -4
BITMAP
FF40
FF40
F400
F400
F400
F400
F400
F400
F400
F400
F400
F400
F400
F400
F400
F400
F400
F400
F400
F400
F400
F400
F400
F400
F400
FF40
FF40
ENDCHAR
STARTCHAR backslash
ENCODING 92
SWIDTH 369 0
DWIDTH 10 0
BBX 9 22 1 -2
BITMAP
F00000
B40000
B80000
7C0000
3D0000
2E0000
1F0000
0F4000
0B8000
07C000
03D000
02E000
01F000
00F400
00B800
007C00
003D00
002E00
001F00
000F00
000B40
000780
ENDCHAR
STARTCHAR bracketright
ENCODING 93
SWIDTH 250 0
DWIDTH 7 0
BBX 5 27 0 -4
BITMAP
BFC0
BFC0
07C0
07C0
07C0
07C0
07C0
07C0
07C0
07C0
07C0
07C0
07C0
07C0
07C0
07C0
07C0
07C0
07C0
07C0
07C0
07C0
07C0
07C0
07C0
BFC0
BFC0
ENDCHAR
STARTCHAR asciicircum
ENCODING 94
SWIDTH 371 0
DWIDTH 10 0
BBX 9 10 1 10
BITMAP
02D000
03E000
07F000
0BF400
0F7800
2E3C00
3D3D00
7C2E00
B81F00
F40F40
ENDCHAR
STARTCHAR underscore
ENCODING 95
SWIDTH 404 0
DWIDTH 11 0
BBX 11 2 0 -2
BITMAP
BFFFFC
BFFFFC
ENDCHAR
STARTCHAR grave
ENCODING 96
SWIDTH 309 0
DWIDTH 9 0
BBX 6 4 1 17
BITMAP
BD00
2F00
0F80
0790
ENDCHAR
STARTCHAR a
ENCODING 97
SWIDTH 479 0
DWIDTH 13 0
BBX 11 15 1 0
BITMAP
01BE40
0FFFE0
2F46F0
3D00F4
1400F4
0000F4
01BFF4
0FFAF4
3F40F4
7D00F4
7C00F4
7C01F4
3E5BF8
2FFEF8
07F8BC
ENDCHAR
STARTCHAR b
ENCODING 98
SWIDTH 493 0
DWIDTH 14 0
BBX 12 21 1 0
BITMAP
7D0000
7D0000
7D0000
7D0000
7D0000
7D0000
7D6F80
7EFFF0
7F95F8
7E007C
7D003D
7D003D
7D003E
7D003E
7D003E
7D003D
7D003D
7E007C
7F95F8
7EFFF0
7C6F80
ENDCHAR
STARTCHAR c
ENCODING 99
SWIDTH 461 0
DWIDTH 13 0
BBX 11 15 1 0
BITMAP
02FE40
0FFFE0
2F46F4
7D00B8
7C007C
B80014
B80000
B80000
B80000
B80000
7C0068
7D00B8
2F42F4
0FFFE0
02FE40
ENDCHAR
STARTCHAR d
ENCODING 100
SWIDTH 496 0
DWIDTH 14 0
BBX 11 21 1 0
BITMAP
00007C
00007C
00007C
00007C
00007C
00007C
06F97C
1FFFBC
3F56FC
7D00BC
7C007C
B8007C
B8007C
B8007C
B8007C
B8007C
7C007C
7D00BC
2F56FC
1FFFBC
02F97C
ENDCHAR
STARTCHAR e
ENCODING 101
SWIDTH 468 0
DWIDTH 13 0
BBX 11 15 1 0
BITMAP
01BE40
0BFFE0
2F46F4
3D00F8
7C00B8
B8007C
BFFFFC
BFFFFC
B80000
BC0000
7C0000
7D0010
2F41B8
0FFFF4
02BF80
ENDCHAR
STARTCHAR f
ENCODING 102
SWIDTH 316 0
DWIDTH 9 0
BBX 8 21 1 0
BITMAP
01BD
07FE
0BD4
0F80
0F40
0F40
FFF8
FFF8
0F40
0F40
0F40
0F40
0F40
0F40
0F40
0F40
0F40
0F40
0F40
0F40
0F40
ENDCHAR
STARTCHAR g
ENCODING 103
SWIDTH 492 0
DWIDTH 14 0
BBX 11 21 1 -6
BITMAP
06F97C
1FFFBC
3F56FC
7D00BC
7C007C
B8007C
B8007C
B8007C
B8007C
B8007C
7C007C
7D00BC
2F56FC
1FFFBC
02F97C
00007C
0000BC
0400F8
2E46F4
1FFFE0
02BE40
ENDCHAR
STARTCHAR h
ENCODING 104
SWIDTH 482 0
DWIDTH 14 0
BBX 11 21 1 0
BITMAP
7D0000
7D0000
7D0000
7D0000
7D0000
7D0000
7D6F80
7EFFE0
7F96F4
7E00F8
7D00B8
7D00B8
7D00B8
7D00B8
7D00B8
7D00B8
7D00B8
7D00B8
7D00B8
7D00B8
7D00B8
ENDCHAR
STARTCHAR i
ENCODING 105
SWIDTH 229 0
DWIDTH 6 0
BBX 3 20 2 0
BITMAP
B4
F8
B4
00
00
F4
F4
F4
F4
F4
F4
F4
F4
F4
F4
F4
F4
F4
F4
F4
ENDCHAR
STARTCHAR j
ENCODING 106
SWIDTH 223 0
DWIDTH 6 0
BBX 6 26 -1 -6
BITMAP
0280
07D0
03C0
0000
0000
03D0
03D0
03D0
03D0
03D0
03D0
03D0
03D0
03D0
03D0
03D0
03D0
03D0
03D0
03D0
03D0
03D0
07D0
1BC0
7F80
7E00
ENDCHAR
STARTCHAR k
ENCODING 107
SWIDTH 450 0
DWIDTH 13 0
BBX 11 21 1 0
BITMAP
7D0000
7D0000
7D0000
7D0000
7D0000
7D0000
7D02F4
7D07E0
7D0F80
7D2F00
7D7D00
7DF800
7FF400
7FF800
7FBD00
7D2F00
7D0F80
7D0BD0
7D03E0
7D01F4
7D00BC
ENDCHAR
STARTCHAR l
ENCODING 108
SWIDTH 229 0
DWIDTH 6 0
BBX 3 21 2 0
BITMAP
F4
F4
F4
F4
F4
F4
F4
F4
F4
F4
F4
F4
F4
F4
F4
F4
F4
F4
F4
F4
F4
ENDCHAR
STARTCHAR m
ENCODING 109
SWIDTH 752 0
DWIDTH 21 0
BBX 19 15 1 0
BITMAP
7C6F81BE40
7EFFE7FFD0
7F56FF57E0
7D00FD01F0
7D00BC01F4
7D00B801F4
7D00B801F4
7D00B801F4
7D00B801F4
7D00B801F4
7D00B801F4
7D00B801F4
7D00B801F4
7D00B801F4
7D00B801F4
ENDCHAR
STARTCHAR n
ENCODING 110
SWIDTH 483 0
DWIDTH 14 0
BBX 11 15 1 0
BITMAP
7C6F80
7EFFE0
7F96F4
7E00F8
7D00B8
7D00B8
7D00B8
7D00B8
7D00B8
7D00B8
7D00B8
7D00B8
7D00B8
7D00B8
7D00B8
ENDCHAR
STARTCHAR o
ENCODING 111
SWIDTH 501 0
DWIDTH 14 0
BBX 12 15 1 0
BITMAP
01BE40
0BFFE0
2F82F8
3E00BC
7C003D
BC002E
B8002E
B8002E
B8002E
BC002E
7C003D
3E007C
2F81F8
0BFFE0
01BE40
ENDCHAR
STARTCHAR p
ENCODING 112
SWIDTH 493 0
DWIDTH 14 0
BBX 12 21 1 -6
BITMAP
7C7F80
7EFFF0
7F96F8
7D00BC
7D007D
7D003D
7D003D
7D003E
7D003D
7D003D
7D007D
7D00BC
7F41F8
7EFFF0
7D7F80
7D0000
7D0000
7D0000
7D0000
7D0000
7D0000
ENDCHAR
STARTCHAR q
ENCODING 113
SWIDTH 500 0
DWIDTH 14 0
BBX 11 21 1 -6
BITMAP
06F97C
1FFFBC
3F42FC
7D00BC
7C007C
B8007C
B8007C
B8007C
B8007C
B8007C
7C007C
7D00BC
3F42FC
1FFFFC
06F97C
00007C
00007C
00007C
00007C
00007C
00007C
ENDCHAR
STARTCHAR r
ENCODING 114
SWIDTH 304 0
DWIDTH 9 0
BBX 7 15 1 0
BITMAP
7DB8
7EFC
7FA4
7E00
7D00
7D00
7D00
7D00
7D00
7D00
7D00
7D00
7D00
7D00
7D00
ENDCHAR
STARTCHAR s
ENCODING 115
SWIDTH 455 0
DWIDTH 13 0
BBX 11 15 1 0
BITMAP
02FE00
1FFFD0
3F47F0
3D01F0
3D0050
3F4000
1FE400
06FF40
006FE0
0002F0
6400F4
7C00F4
3E46F0
1FFFD0
06FE40
ENDCHAR
STARTCHAR t
ENCODING 116
SWIDTH 295 0
DWIDTH 8 0
BBX 8 19 0 0
BITMAP
07C0
07C0
07C0
07C0
BFFD
BFFD
07C0
07C0
07C0
07C0
07C0
07C0
07C0
07C0
07C0
07C0
07D4
03FD
01BC
ENDCHAR
STARTCHAR u
ENCODING 117
SWIDTH 483 0
DWIDTH 14 0
BBX 11 15 1 0
BITMAP
7D00B8
7D00B8
7D00B8
7D00B8
7D00B8
7D00B8
7D00B8
7D00B8
7D00B8
7D00B8
7D00B8
3E00F8
2F57F8
1FFFF8
06F9B8
ENDCHAR
STARTCHAR v
ENCODING 118
SWIDTH 427 0
DWIDTH 12 0
BBX 11 15 0 0
BITMAP
7D007C
3D00B8
2E00B8
1F00F4
0F41F0
0B82E0
0782D0
03C3C0
03D780
02EB40
01EB40
00FF00
00BE00
007D00
003C00
ENDCHAR
STARTCHAR w
ENCODING 119
SWIDTH 649 0
DWIDTH 18 0
BBX 18 15 0 0
BITMAP
7D00F003D0
3D01F407C0
2E02F807C0
1F02FC0B80
1F03FD0F40
0F47AD0F00
0B4B5E1F00
0B8F4F1E00
07CF0B6D00
03EE0BBD00
02FD07FC00
02FC03F800
01FC02F400
00F801F400
00F401F000
ENDCHAR
STARTCHAR x
ENCODING 120
SWIDTH 438 0
DWIDTH 12 0
BBX 11 15 1 0
BITMAP
F802F0
7D03E0
2E0BC0
1F4F80
0B9F00
07FD00
02FC00
01F800
02FC00
07FE00
0B9F00
1F0F80
3E07C0
7D03E0
F802F4
ENDCHAR
STARTCHAR y
ENCODING 121
SWIDTH 416 0
DWIDTH 12 0
BBX 11 21 0 -6
BITMAP
7D00BC
3E00B8
2E00F4
1F01F0
1F42F0
0F82E0
0B83D0
07C7C0
03DB80
02EB40
01EF00
00FF00
00FE00
00BD00
007C00
007800
00B400
00F000
16E000
2FC000
2E4000
ENDCHAR
STARTCHAR z
ENCODING 122
SWIDTH 438 0
DWIDTH 12 0
BBX 11 15 1 0
BITMAP
BFFFF0
BFFFF0
0007D0
000BC0
001F40
003E00
00BC00
01F400
03E000
07D000
0F8000
2F0000
7D0000
BFFFF4
BFFFF4
ENDCHAR
STARTCHAR braceleft
ENCODING 123
SWIDTH 306 0
DWIDTH 9 0
BBX 7 27 1 -5
BITMAP
0028
00F8
02E0
07D0
0BC0
0B80
0B80
0B80
0B80
0B80
0F80
2F00
FD00
FD00
2F00
0F40
0B80
0B80
0B80
0B80
0B80
0B80
07C0
03D0
02F0
00B8
0028
ENDCHAR
STARTCHAR bar
ENCODING 124
SWIDTH 243 0
DWIDTH 7 0
BBX 3 24 2 -4
BITMAP
B4
B4
B4
B4
B4
B4
B4
B4
B4
B4
B4
B4
B4
B4
B4
B4
B4
B4
B4
B4
B4
B4
B4
B4
ENDCHAR
STARTCHAR braceright
ENCODING 125
SWIDTH 306 0
DWIDTH 9 0
BBX 8 27 0 -5
BITMAP
2400
7E00
1F40
0B80
07C0
07C0
07D0
07D0
07D0
03D0
03D0
02F4
00BE
00BE
01F4
03E0
03D0
07D0
07D0
07D0
07D0
07C0
07C0
0B80
1F40
7D00
2400
ENDCHAR
STARTCHAR asciitilde
ENCODING 126
SWIDTH 589 0
DWIDTH 17 0
BBX 14 6 1 6
BITMAP
00400000
0BF801E0
2FFE01E0
3D1FD7D0
7C07FF80
0000BE00
ENDCHAR
STARTCHAR uni00A0
ENCODING 160
SWIDTH 229 0
DWIDTH 6 0
BBX 1 1 0 0
BITMAP
00
ENDCHAR
STARTCHAR exclamdown
ENCODING 161
SWIDTH 231 0
DWIDTH 6 0
BBX 3 20 2 -5
BITMAP
B4
F8
B4
00
00
50
B4
B4
F4
F4
F4
F4
F4
F4
F4
F8
F8
F8
F8
F8
ENDCHAR
STARTCHAR cent
ENCODING 162
SWIDTH 479 0
DWIDTH 13 0
BBX 11 22 1 -4
BITMAP
007C00
007C00
007C00
01FF40
0BFFE0
1F42F4
3E00B8
7D007C
7C0014
BC0000
B80000
BC0000
7C0000
7C0068
3E00B8
1F41F4
0BFFE0
02FF40
007C00
007C00
007C00
001400
ENDCHAR
STARTCHAR sterling
ENCODING 163
SWIDTH 510 0
DWIDTH 14 0
BBX 13 20 1 0
BITMAP
006FD000
02FFF800
07E5BD00
0BC03E00
0F802F00
0F400500
0F400000
0F800000
0F800000
BFFF0000
BFFF0000
0F800000
0F800000
0F800000
0B800000
0F800000
0F400000
2F400000
BFFFFF40
BFFFFF40
ENDCHAR
STARTCHAR currency
ENCODING 164
SWIDTH 712 0
DWIDTH 20 0
BBX 18 17 1 0
BITMAP
2D0AFE4380
7FBFFFEFE0
2FFE5BFF80
0BE000BF00
0F80002F40
2F00000F80
3E00000BC0
3D000007C0
3D000007D0
3D000007C0
3E00000BC0
2F00000F80
0F80002F40
0FE000BF00
2FFE5BFFC0
7EBFFFEBD0
180BFE4280
ENDCHAR
STARTCHAR yen
ENCODING 165
SWIDTH 463 0
DWIDTH 13 0
BBX 13 20 0 0
BITMAP
7D001F40
3E002F00
2F403E00
0F80BC00
0BC0F800
07D1F400
03E2F000
01F7D000
00FFC000
00BF8000
1FFFFD00
1ABFA900
002E0000
002E0000
1FFFFD00
1ABFA900
002E0000
002E0000
002E0000
002E0000
ENDCHAR
STARTCHAR brokenbar
ENCODING 166
SWIDTH 239 0
DWIDTH 7 0
BBX 3 24 2 -4
BITMAP
F8
F8
F8
F8
F8
F8
F8
F8
F8
F8
F8
00
00
F8
F8
F8
F8
F8
F8
F8
F8
F8
F8
F8
ENDCHAR
STARTCHAR section
ENCODING 167
SWIDTH 537 0
DWIDTH 15 0
BBX 13 27 1 -7
BITMAP
01BF9000
0BFFF800
2F91BD00
3E003F00
3D001F00
3D001F40
3E000000
2F800000
0FF90000
1FFFE000
3E6FFC00
BC01BE00
B8002F40
BC000F40
7D000F40
3F800F40
1FF96F00
02FFFD00
001FF800
0001BD00
00003F00
B8001F00
BC002F00
7D002E00
3F91BD00
0FFFF800
01BF9000
ENDCHAR
STARTCHAR dieresis
ENCODING 168
SWIDTH 417 0
DWIDTH 12 0
BBX 10 3 1 17
BITMAP
680680
BD0BD0
7C0780
ENDCHAR
STARTCHAR copyright
ENCODING 169
SWIDTH 785 0
DWIDTH 22 0
BBX 20 20 1 0
BITMAP
0006FF9000
007FAAF900
01F4001F40
07800007D0
1E01BE40F0
2C0BEFD078
381F01F02C
742D00B41D
B03C00100E
B03C00000E
B03C00000E
B03C00500E
742D00B41D
381F01F02C
2C0BEFD078
1E01FE40F0
07800003D0
01F4001F40
007FAAF900
0006FF9000
ENDCHAR
STARTCHAR ordfeminine
ENCODING 170
SWIDTH 395 0
DWIDTH 11 0
BBX 8 11 2 9
BITMAP
1BD0
7FF4
B87C
A43C
003C
2FFC
BEBC
F03C
F47C
BFFC
2F7D
ENDCHAR
STARTCHAR guillemotleft
ENCODING 171
SWIDTH 417 0
DWIDTH 12 0
BBX 9 11 1 2
BITMAP
02D2C0
078780
0B4F00
1E2E00
3C7C00
B8B800
3C7C00
1E2E00
0B4F00
078780
02D2C0
ENDCHAR
STARTCHAR logicalnot
ENCODING 172
SWIDTH 487 0
DWIDTH 14 0
BBX 11 6 1 5
BITMAP
7FFFF4
7FFFF4
1555F4
0000F4
0000F4
0000F4
ENDCHAR
STARTCHAR uni00AD
ENCODING 173
SWIDTH 248 0
DWIDTH 7 0
BBX 7 2 0 7
BITMAP
7FF4
7FF4
ENDCHAR
STARTCHAR registered
ENCODING 174
SWIDTH 786 0
DWIDTH 22 0
BBX 20 20 1 0
BITMAP
0006FF9000
007FAAF900
01F4001F40
07800007D0
1E0FFE40F0
2C0FABE078
380F00F02C
740F00B01D
B00F01F00E
A00FFF800E
A00FABD00E
B00F00F00D
740F00F01D
380F00B02C
2C0F00B478
1E000000F0
07800007D0
01F4001F40
007FAAF900
0006FF9000
ENDCHAR
STARTCHAR macron
ENCODING 175
SWIDTH 414 0
DWIDTH 12 0
BBX 8 2 2 18
BITMAP
FFFF
FFFF
ENDCHAR
STARTCHAR degree
ENCODING 176
SWIDTH 373 0
DWIDTH 10 0
BBX 8 7 1 13
BITMAP
07E4
2FBC
381E
780E
3D2D
1FF8
0690
ENDCHAR
STARTCHAR plusminus
ENCODING 177
SWIDTH 469 0
DWIDTH 13 0
BBX 11 18 1 0
BITMAP
002800
007C00
007C00
007C00
007C00
007C00
BFFFFC
BFFFFC
007C00
007C00
007C00
007C00
007C00
007C00
000000
000000
3FFFF4
3FFFF4
ENDCHAR
STARTCHAR uni00B2
ENCODING 178
SWIDTH 329 0
DWIDTH 9 0
BBX 8 11 1 9
BITMAP
1FD0
7EF4
B478
A078
00B8
01F0
07D0
0F40
3D00
BEA8
BFFD
ENDCHAR
STARTCHAR uni00B3
ENCODING 179
SWIDTH 329 0
DWIDTH 9 0
BBX 7 11 1 9
BITMAP
2FE0
BEF8
A478
0078
0BE0
06F4
007C
503C
F478
7EF4
1F90
ENDCHAR
STARTCHAR acute
ENCODING 180
SWIDTH 313 0
DWIDTH 9 0
BBX 5 4 2 17
BITMAP
0FC0
2F00
BC00
B400
ENDCHAR
STARTCHAR mu
ENCODING 181
SWIDTH 498 0
DWIDTH 14 0
BBX 10 21 2 -6
BITMAP
F401F0
F401F0
F401F0
F401F0
F401F0
F401F0
F401F0
F401F0
F401F0
F401F0
F801F0
F802F0
FD0BF0
FFFEF0
FAF9F0
F40000
F40000
F40000
F40000
F40000
F40000
ENDCHAR
STARTCHAR paragraph
ENCODING 182
SWIDTH 434 0
DWIDTH 12 0
BBX 9 20 1 0
BITMAP
02BFC0
1FFFC0
3FFFC0
7FFFC0
BFFFC0
FFFFC0
FFFFC0
FFFFC0
BFFFC0
7FFFC0
3FFFC0
1FFFC0
01BFC0
0007C0
0007C0
0007C0
0007C0
0007C0
0007C0
0007C0
ENDCHAR
STARTCHAR periodcentered
ENCODING 183
SWIDTH 243 0
DWIDTH 7 0
BBX 3 3 2 9
BITMAP
B4
F8
B4
ENDCHAR
STARTCHAR cedilla
ENCODING 184
SWIDTH 229 0
DWIDTH 6 0
BBX 5 6 1 -6
BITMAP
3800
7E00
0B00
0B40
2F00
7800
ENDCHAR
STARTCHAR uni00B9
ENCODING 185
SWIDTH 329 0
DWIDTH 9 0
BBX 5 11 1 9
BITMAP
0180
1FC0
7FC0
53C0
03C0
03C0
03C0
03C0
03C0
03C0
03C0
ENDCHAR
STARTCHAR ordmasculine
ENCODING 186
SWIDTH 402 0
DWIDTH 11 0
BBX 9 11 1 9
BITMAP
06F800
1FFE00
3D1F40
7C0B40
780B80
780780
780B80
7C0B40
3D1F40
1FFE00
06F800
ENDCHAR
STARTCHAR guillemotright
ENCODING 187
SWIDTH 417 0
DWIDTH 12 0
BBX 10 11 1 2
BITMAP
747800
2C2D00
1E1F00
0B4B80
07C3D0
03D2E0
07C3D0
0B4B80
1E1F00
2C2D00
747800
ENDCHAR
STARTCHAR onequarter
ENCODING 188
SWIDTH 637 0
DWIDTH 18 0
BBX 16 20 1 0
BITMAP
02800000
6F800000
FF800240
9B800740
07800E00
07802D00
07803800
0780B400
0781E000
0782C0B8
078781F8
000B03F8
001D07B8
003C0E78
00742D78
00E07878
01D0BFFE
0180AAFE
00000078
00000078
ENDCHAR
STARTCHAR onehalf
ENCODING 189
SWIDTH 677 0
DWIDTH 19 0
BBX 17 20 1 0
BITMAP
0280000000
6F80000000
FF80060000
9B800E0000
07802D0000
0780380000
0780B40000
0780E00000
0782C00000
078786F800
078B0FFE00
001D2E0F00
003C190F00
0074001F00
00F0003D00
01D000B800
038002E000
02400B8000
00001FAA40
00002FFF40
ENDCHAR
STARTCHAR threequarters
ENCODING 190
SWIDTH 673 0
DWIDTH 19 0
BBX 17 20 1 0
BITMAP
1BE4000000
3FFC000000
642D009000
003D00E000
03F402D000
02B8078000
002D0B0000
001E1E0000
782D2C0000
3FFC742E00
1BE0F07E00
0001D0FE00
000382EE00
0007439E00
000E0B1E00
002D1E1E00
00382FFF80
00202ABF80
0000001E00
0000001E00
ENDCHAR
STARTCHAR questiondown
ENCODING 191
SWIDTH 421 0
DWIDTH 12 0
BBX 10 20 1 -5
BITMAP
01E000
01F400
00A000
000000
000000
005000
01F000
01F000
03E000
0BD000
1F4000
3E0000
BC0000
F80000
F40000
F403E0
F807D0
BE5FC0
2FFF40
0BF900
ENDCHAR
STARTCHAR Agrave
ENCODING 192
SWIDTH 576 0
DWIDTH 16 0
BBX 16 26 0 0
BITMAP
00BD0000
002F0000
000F8000
00039000
00000000
00000000
0003D000
0007E000
000BF000
000FF400
001EB800
002D7C00
003D3D00
007C2E00
00B82F00
00F41F40
01F00F80
02E00BC0
03E007C0
07FFFFD0
0BFFFFE0
0F8002F0
1F4000F4
2F0000B8
3E00007C
7D00003D
ENDCHAR
STARTCHAR Aacute
ENCODING 193
SWIDTH 576 0
DWIDTH 16 0
BBX 16 26 0 0
BITMAP
00003F00
0000BC00
0002F400
0002D000
00000000
00000000
0003D000
0007E000
000BF000
000FF400
001EB800
002D7C00
003D3D00
007C2E00
00B82F00
00F41F40
01F00F80
02E00BC0
03E007C0
07FFFFD0
0BFFFFE0
0F8002F0
1F4000F4
2F0000B8
3E00007C
7D00003D
ENDCHAR
STARTCHAR Acircumflex
ENCODING 194
SWIDTH 576 0
DWIDTH 16 0
BBX 16 26 0 0
BITMAP
0003D000
000BF000
002E7C00
00682900
00000000
00000000
0003D000
0007E000
000BF000
000FF400
001EB800
002D7C00
003D3D00
007C2E00
00B82F00
00F41F40
01F00F80
02E00BC0
03E007C0
07FFFFD0
0BFFFFE0
0F8002F0
1F4000F4
2F0000B8
3E00007C
7D00003D
ENDCHAR
STARTCHAR Atilde
ENCODING 195
SWIDTH 576 0
DWIDTH 16 0
BBX 16 25 0 0
BITMAP
002E4B40
00BFFF00
00E1B900
00000000
00000000
0003D000
0007E000
000BF000
000FF400
001EB800
002D7C00
003D3D00
007C2E00
00B82F00
00F41F40
01F00F80
02E00BC0
03E007C0
07FFFFD0
0BFFFFE0
0F8002F0
1F4000F4
2F0000B8
3E00007C
7D00003D
ENDCHAR
STARTCHAR Adieresis
ENCODING 196
SWIDTH 576 0
DWIDTH 16 0
BBX 16 25 0 0
BITMAP
00A40A40
01F81F80
00B40F40
00000000
00000000
0003D000
0007E000
000BF000
000FF400
001EB800
002D7C00
003D3D00
007C2E00
00B82F00
00F41F40
01F00F80
02E00BC0
03E007C0
07FFFFD0
0BFFFFE0
0F8002F0
1F4000F4
2F0000B8
3E00007C
7D00003D
ENDCHAR
STARTCHAR Aring
ENCODING 197
SWIDTH 576 0
DWIDTH 16 0
BBX 16 26 0 0
BITMAP
0007E000
001D7800
00281C00
00281C00
001D7800
0007E000
0003D000
0007E000
000BF000
000FF400
001EB800
002D7C00
003D3D00
007C2E00
00B82F00
00F41F40
01F00F80
02E00BC0
03E007C0
07FFFFD0
0BFFFFE0
0F8002F0
1F4000F4
2F0000B8
3E00007C
7D00003D
ENDCHAR
STARTCHAR AE
ENCODING 198
SWIDTH 812 0
DWIDTH 23 0
BBX 22 20 0 0
BITMAP
00001FFFFFD0
00002FFFFFD0
00007FE00000
0000BBD00000
0001F7E00000
0002E3E00000
0007D2E00000
000BC2E00000
001F42E00000
002F02FFFF40
007E02FFFF40
00BC02E00000
01F802E00000
02FFFFF00000
07FFFFF00000
0BD556F00000
1F8001F00000
2F4001F00000
7E0001FFFFF0
BD0001FFFFF0
ENDCHAR
STARTCHAR Ccedilla
ENCODING 199
SWIDTH 566 0
DWIDTH 16 0
BBX 14 26 1 -6
BITMAP
006FE400
02FFFE00
0BE56F40
1F800BC0
2F0007D0
3E0003E0
7D000290
7D000000
7D000000
7D000000
7D000000
7D000000
7D000000
7D000290
3E0003D0
2F0007D0
1F400BC0
0BE46F40
02FFFE00
006FE400
000B0000
000F8000
0002D000
0001E000
000BD000
000E4000
ENDCHAR
STARTCHAR Egrave
ENCODING 200
SWIDTH 496 0
DWIDTH 14 0
BBX 11 26 2 0
BITMAP
1F8000
0BD000
02F000
00A400
000000
000000
FFFFF8
FFFFF8
F80000
F80000
F80000
F80000
F80000
F80000
F80000
FFFFE0
FFFFE0
F80000
F80000
F80000
F80000
F80000
F80000
F80000
FFFFFC
FFFFFC
ENDCHAR
STARTCHAR Eacute
ENCODING 201
SWIDTH 496 0
DWIDTH 14 0
BBX 11 26 2 0
BITMAP
000BD0
001F40
007D00
00B400
000000
000000
FFFFF8
FFFFF8
F80000
F80000
F80000
F80000
F80000
F80000
F80000
FFFFE0
FFFFE0
F80000
F80000
F80000
F80000
F80000
F80000
F80000
FFFFFC
FFFFFC
ENDCHAR
STARTCHAR Ecircumflex
ENCODING 202
SWIDTH 496 0
DWIDTH 14 0
BBX 11 26 2 0
BITMAP
00B800
02FD00
078F40
0B0780
000000
000000
FFFFF8
FFFFF8
F80000
F80000
F80000
F80000
F80000
F80000
F80000
FFFFE0
FFFFE0
F80000
F80000
F80000
F80000
F80000
F80000
F80000
FFFFFC
FFFFFC
ENDCHAR
STARTCHAR Edieresis
ENCODING 203
SWIDTH 496 0
DWIDTH 14 0
BBX 11 25 2 0
BITMAP
2D0290
3F03E0
2E02D0
000000
000000
FFFFF8
FFFFF8
F80000
F80000
F80000
F80000
F80000
F80000
F80000
FFFFE0
FFFFE0
F80000
F80000
F80000
F80000
F80000
F80000
F80000
FFFFFC
FFFFFC
ENDCHAR
STARTCHAR Igrave
ENCODING 204
SWIDTH 250 0
DWIDTH 7 0
BBX 6 26 -1 0
BITMAP
7E00
1F40
0BD0
02D0
0000
0000
02E0
02E0
02E0
02E0
02E0
02E0
02E0
02E0
02E0
02E0
02E0
02E0
02E0
02E0
02E0
02E0
02E0
02E0
02E0
02E0
ENDCHAR
STARTCHAR Iacute
ENCODING 205
SWIDTH 250 0
DWIDTH 7 0
BBX 6 26 2 0
BITMAP
0BD0
1F40
7E00
7800
0000
0000
B800
B800
B800
B800
B800
B800
B800
B800
B800
B800
B800
B800
B800
B800
B800
B800
B800
B800
B800
B800
ENDCHAR
STARTCHAR Icircumflex
ENCODING 206
SWIDTH 250 0
DWIDTH 7 0
BBX 7 26 0 0
BITMAP
0B80
2FD0
7CF4
B478
0000
0000
0B80
0B80
0B80
0B80
0B80
0B80
0B80
0B80
0B80
0B80
0B80
0B80
0B80
0B80
0B80
0B80
0B80
0B80
0B80
0B80
ENDCHAR
STARTCHAR Idieresis
ENCODING 207
SWIDTH 250 0
DWIDTH 7 0
BBX 9 25 -1 0
BITMAP
780740
FC0FC0
B80B80
000000
000000
02E000
02E000
02E000
02E000
02E000
02E000
02E000
02E000
02E000
02E000
02E000
02E000
02E000
02E000
02E000
02E000
02E000
02E000
02E000
02E000
ENDCHAR
STARTCHAR Eth
ENCODING 208
SWIDTH 585 0
DWIDTH 16 0
BBX 15 20 0 0
BITMAP
07FFE400
07FFFE00
07D16FC0
07C007E0
07C002F0
07C000F4
07C000F8
07C000F8
07C000B8
BFFE00B8
BFFE00B8
07C000B8
07C000F8
07C000F8
07C001F4
07C002F0
07C007E0
07D16FC0
07FFFE00
07FFE400
ENDCHAR
STARTCHAR Ntilde
ENCODING 209
SWIDTH 619 0
DWIDTH 17 0
BBX 13 25 2 0
BITMAP
01F43800
07FFF400
0747E000
00000000
00000000
FC0007C0
FD0007C0
FF0007C0
FF4007C0
FFC007C0
FBD007C0
F9F007C0
F8B807C0
F87C07C0
F82E07C0
F81F07C0
F80B87C0
F807C7C0
F802E7C0
F801FBC0
F800BFC0
F8007FC0
F8002FC0
F8000FC0
F8000BC0
ENDCHAR
STARTCHAR Ograve
ENCODING 210
SWIDTH 600 0
DWIDTH 17 0
BBX 14 26 1 0
BITMAP
01F80000
007D0000
002F4000
000A4000
00000000
00000000
006FE400
02FFFE00
0BE56F80
1F800BC0
2F0003E0
3E0002E0
7D0002F0
7D0001F0
7D0001F0
7D0001F0
7D0001F0
7D0001F0
7D0001F0
7D0002F0
3E0002E0
2F0003E0
1F800BC0
0BE56F80
02FFFE00
006FE400
ENDCHAR
STARTCHAR Oacute
ENCODING 211
SWIDTH 600 0
DWIDTH 17 0
BBX 14 26 1 0
BITMAP
0000BD00
0001F400
0007D000
00078000
00000000
00000000
006FE400
02FFFE00
0BE56F80
1F800BC0
2F0003E0
3E0002E0
7D0002F0
7D0001F0
7D0001F0
7D0001F0
7D0001F0
7D0001F0
7D0001F0
7D0002F0
3E0002E0
2F0003E0
1F800BC0
0BE56F80
02FFFE00
006FE400
ENDCHAR
STARTCHAR Ocircumflex
ENCODING 212
SWIDTH 600 0
DWIDTH 17 0
BBX 14 26 1 0
BITMAP
000B8000
002FD000
0078F400
00B47800
00000000
00000000
006FE400
02FFFE00
0BE56F80
1F800BC0
2F0003E0
3E0002E0
7D0002F0
7D0001F0
7D0001F0
7D0001F0
7D0001F0
7D0001F0
7D0001F0
7D0002F0
3E0002E0
2F0003E0
1F800BC0
0BE56F80
02FFFE00
006FE400
ENDCHAR
STARTCHAR Otilde
ENCODING 213
SWIDTH 600 0
DWIDTH 17 0
BBX 14 25 1 0
BITMAP
00791E00
01FFFD00
02D2F400
00000000
00000000
006FE400
02FFFE00
0BE56F80
1F800BC0
2F0003E0
3E0002E0
7D0002F0
7D0001F0
7D0001F0
7D0001F0
7D0001F0
7D0001F0
7D0001F0
7D0002F0
3E0002E0
2F0003E0
1F800BC0
0BE56F80
02FFFE00
006FE400
ENDCHAR
STARTCHAR Odieresis
ENCODING 214
SWIDTH 600 0
DWIDTH 17 0
BBX 14 25 1 0
BITMAP
01E02900
03F03F00
02E02E00
00000000
00000000
006FE400
02FFFE00
0BE56F80
1F800BC0
2F0003E0
3E0002E0
7D0002F0
7D0001F0
7D0001F0
7D0001F0
7D0001F0
7D0001F0
7D0001F0
7D0002F0
3E0002E0
2F0003E0
1F800BC0
0BE56F80
02FFFE00
006FE400
ENDCHAR
STARTCHAR multiply
ENCODING 215
SWIDTH 470 0
DWIDTH 13 0
BBX 11 12 1 3
BITMAP
240060
BC00F8
3F03F0
1F8BD0
07FF40
01FD00
01FD00
07FF40
1F8BC0
3F03F0
7C00F4
240060
ENDCHAR
STARTCHAR Oslash
ENCODING 216
SWIDTH 600 0
DWIDTH 17 0
BBX 15 22 1 -1
BITMAP
00000064
006FE4F0
01FFFED0
07E57F80
0F800FC0
2F000FD0
3E002FE0
3D003AF0
7D00B1F0
7C01E1F0
7C02C1F4
7C0781F4
7C0B01F0
7D1D01F0
3D3C02F0
3E7402E0
2FF007D0
0FD00BC0
07E57F40
0BFFFD00
0E6FE400
2D000000
ENDCHAR
STARTCHAR Ugrave
ENCODING 217
SWIDTH 561 0
DWIDTH 16 0
BBX 13 26 1 0
BITMAP
03F00000
00F80000
007E0000
001E0000
00000000
00000000
7D000BC0
7D000BC0
7D000BC0
7D000BC0
7D000BC0
7D000BC0
7D000BC0
7D000BC0
7D000BC0
7D000BC0
7D000BC0
7D000BC0
7D000BC0
7D000BC0
7D000BC0
3D000BC0
2F001F80
1F917F00
0BFFFD00
01BFE000
ENDCHAR
STARTCHAR Uacute
ENCODING 218
SWIDTH 561 0
DWIDTH 16 0
BBX 13 26 1 0
BITMAP
0001F800
0003E000
000B8000
001B0000
00000000
00000000
7D000BC0
7D000BC0
7D000BC0
7D000BC0
7D000BC0
7D000BC0
7D000BC0
7D000BC0
7D000BC0
7D000BC0
7D000BC0
7D000BC0
7D000BC0
7D000BC0
7D000BC0
3D000BC0
2F001F80
1F917F00
0BFFFD00
01BFE000
ENDCHAR
STARTCHAR Ucircumflex
ENCODING 219
SWIDTH 561 0
DWIDTH 16 0
BBX 13 26 1 0
BITMAP
001F0000
007F8000
00F6E000
01A0A400
00000000
00000000
7D000BC0
7D000BC0
7D000BC0
7D000BC0
7D000BC0
7D000BC0
7D000BC0
7D000BC0
7D000BC0
7D000BC0
7D000BC0
7D000BC0
7D000BC0
7D000BC0
7D000BC0
3D000BC0
2F001F80
1F917F00
0BFFFD00
01BFE000
ENDCHAR
STARTCHAR Udieresis
ENCODING 220
SWIDTH 561 0
DWIDTH 16 0
BBX 13 25 1 0
BITMAP
02806800
0BD0BD00
07C07800
00000000
00000000
7D000BC0
7D000BC0
7D000BC0
7D000BC0
7D000BC0
7D000BC0
7D000BC0
7D000BC0
7D000BC0
7D000BC0
7D000BC0
7D000BC0
7D000BC0
7D000BC0
7D000BC0
3D000BC0
2F001F80
1F917F00
0BFFFD00
01BFE000
ENDCHAR
STARTCHAR Yacute
ENCODING 221
SWIDTH 524 0
DWIDTH 15 0
BBX 14 26 0 0
BITMAP
0000BD00
0001F400
0007D000
000B4000
00000000
00000000
7D0002F0
3F0007E0
1F400BC0
0F800F80
0BC01F40
03D02E00
02F07D00
01F4BC00
00B8F400
007EF000
003FD000
001FC000
000F8000
000F8000
000F8000
000F8000
000F8000
000F8000
000F8000
000F8000
ENDCHAR
STARTCHAR Thorn
ENCODING 222
SWIDTH 515 0
DWIDTH 14 0
BBX 11 20 2 0
BITMAP
F80000
F80000
F80000
F80000
FFFE40
FFFFD0
F806F4
F800F8
F8007C
F8007C
F8007C
F8007C
F800F8
F802F4
FFFFE0
FFFE40
F80000
F80000
F80000
F80000
ENDCHAR
STARTCHAR germandbls
ENCODING 223
SWIDTH 521 0
DWIDTH 15 0
BBX 13 21 1 0
BITMAP
02FE0000
0BFFC000
1F47E000
3E02F000
3D01F000
3D01E000
7D02E000
7D07D000
7D0B8000
7D0F8000
7D0F8000
7D0BD000
7D03F400
7D01FD00
7D003E00
7D001F40
7D000F40
7D000F40
7D246F00
7D7FFE00
7D2BE400
ENDCHAR
STARTCHAR agrave
ENCODING 224
SWIDTH 479 0
DWIDTH 13 0
BBX 11 21 1 0
BITMAP
0BD000
03F000
00F800
007800
000000
000000
01BE40
0FFFE0
2F46F0
3D00F4
1400F4
0000F4
01BFF4
0FFAF4
3F40F4
7D00F4
7C00F4
7C01F4
3E5BF8
2FFEF8
07F8BC
ENDCHAR
STARTCHAR aacute
ENCODING 225
SWIDTH 479 0
DWIDTH 13 0
BBX 11 21 1 0
BITMAP
0007E0
000FC0
002F00
002C00
000000
000000
01BE40
0FFFE0
2F46F0
3D00F4
1400F4
0000F4
01BFF4
0FFAF4
3F40F4
7D00F4
7C00F4
7C01F4
3E5BF8
2FFEF8
07F8BC
ENDCHAR
STARTCHAR acircumflex
ENCODING 226
SWIDTH 479 0
DWIDTH 13 0
BBX 11 21 1 0
BITMAP
007C00
00FF00
03D780
068290
000000
000000
01BE40
0FFFE0
2F46F0
3D00F4
1400F4
0000F4
01BFF4
0FFAF4
3F40F4
7D00F4
7C00F4
7C01F4
3E5BF8
2FFEF8
07F8BC
ENDCHAR
STARTCHAR atilde
ENCODING 227
SWIDTH 479 0
DWIDTH 13 0
BBX 11 20 1 0
BITMAP
02E0B0
0BFFE0
0E1B80
000000
000000
01BE40
0FFFE0
2F46F0
3D00F4
1400F4
0000F4
01BFF4
0FFAF4
3F40F4
7D00F4
7C00F4
7C01F4
3E5BF8
2FFEF8
07F8BC
ENDCHAR
STARTCHAR adieresis
ENCODING 228
SWIDTH 479 0
DWIDTH 13 0
BBX 11 20 1 0
BITMAP
0A00A0
1F82F4
0F41F0
000000
000000
01BE40
0FFFE0
2F46F0
3D00F4
1400F4
0000F4
01BFF4
0FFAF4
3F40F4
7D00F4
7C00F4
7C01F4
3E5BF8
2FFEF8
07F8BC
ENDCHAR
STARTCHAR aring
ENCODING 229
SWIDTH 479 0
DWIDTH 13 0
BBX 11 23 1 0
BITMAP
00BD00
02D740
034280
034280
02D740
00BE00
000000
000000
01BE40
0FFFE0
2F46F0
3D00F4
1400F4
0000F4
01BFF4
0FFAF4
3F40F4
7D00F4
7C00F4
7C01F4
3E5BF8
2FFEF8
07F8BC
ENDCHAR
STARTCHAR ae
ENCODING 230
SWIDTH 728 0
DWIDTH 20 0
BBX 19 15 1 0
BITMAP
06FE02F900
1FFFDFFF80
3F47FE47D0
7C02FC02F0
1401F801F0
0001F400F4
06FFFFFFF4
2FFFFFFFF4
7E01F00000
B801F40000
F801F80000
B801FC0000
BD1BFF41E0
3FFF5FFFF0
0BF902FE40
ENDCHAR
STARTCHAR ccedilla
ENCODING 231
SWIDTH 461 0
DWIDTH 13 0
BBX 11 21 1 -6
BITMAP
02FE40
0FFFE0
2F46F4
7D00B8
7C007C
B80014
B80000
B80000
B80000
B80000
7C0068
7D00B8
2F42F4
0FFFE0
02FE40
00B400
00BD00
001E00
000E00
006D00
00B400
ENDCHAR
STARTCHAR egrave
ENCODING 232
SWIDTH 468 0
DWIDTH 13 0
BBX 11 21 1 0
BITMAP
0FC000
07E000
01F400
007800
000000
000000
01BE40
0BFFE0
2F46F4
3D00F8
7C00B8
B8007C
BFFFFC
BFFFFC
B80000
BC0000
7C0000
7D0010
2F41B8
0FFFF4
02BF80
ENDCHAR
STARTCHAR eacute
ENCODING 233
SWIDTH 468 0
DWIDTH 13 0
BBX 11 21 1 0
BITMAP
0007E0
001F80
003E00
006800
000000
000000
01BE40
0BFFE0
2F46F4
3D00F8
7C00B8
B8007C
BFFFFC
BFFFFC
B80000
BC0000
7C0000
7D0010
2F41B8
0FFFF4
02BF80
ENDCHAR
STARTCHAR ecircumflex
ENCODING 234
SWIDTH 468 0
DWIDTH 13 0
BBX 11 21 1 0
BITMAP
007C00
01FE00
03DB80
074380
000000
000000
01BE40
0BFFE0
2F46F4
3D00F8
7C00B8
B8007C
BFFFFC
BFFFFC
B80000
BC0000
7C0000
7D0010
2F41B8
0FFFF4
02BF80
ENDCHAR
STARTCHAR edieresis
ENCODING 235
SWIDTH 468 0
DWIDTH 13 0
BBX 11 20 1 0
BITMAP
1A01A0
2F42F4
1E01E0
000000
000000
01BE40
0BFFE0
2F46F4
3D00F8
7C00B8
B8007C
BFFFFC
BFFFFC
B80000
BC0000
7C0000
7D0010
2F41B8
0FFFF4
02BF80
ENDCHAR
STARTCHAR igrave
ENCODING 236
SWIDTH 234 0
DWIDTH 7 0
BBX 6 21 -1 0
BITMAP
BD00
2F40
0BC0
0290
0000
0000
03D0
03D0
03D0
03D0
03D0
03D0
03D0
03D0
03D0
03D0
03D0
03D0
03D0
03D0
03D0
ENDCHAR
STARTCHAR iacute
ENCODING 237
SWIDTH 234 0
DWIDTH 7 0
BBX 6 21 2 0
BITMAP
0BD0
2F40
7D00
B400
0000
0000
F400
F400
F400
F400
F400
F400
F400
F400
F400
F400
F400
F400
F400
F400
F400
ENDCHAR
STARTCHAR icircumflex
ENCODING 238
SWIDTH 234 0
DWIDTH 7 0
BBX 7 21 0 0
BITMAP
0B40
2FD0
B8F4
B074
0000
0000
0F40
0F40
0F40
0F40
0F40
0F40
0F40
0F40
0F40
0F40
0F40
0F40
0F40
0F40
0F40
ENDCHAR
STARTCHAR idieresis
ENCODING 239
SWIDTH 234 0
DWIDTH 7 0
BBX 9 20 -1 0
BITMAP
B40A40
F81F80
B40B40
000000
000000
03D000
03D000
03D000
03D000
03D000
03D000
03D000
03D000
03D000
03D000
03D000
03D000
03D000
03D000
03D000
ENDCHAR
STARTCHAR eth
ENCODING 240
SWIDTH 513 0
DWIDTH 14 0
BBX 12 21 1 0
BITMAP
064000
0BF474
06FEF4
007FC0
007FD0
01F7F0
0081F4
0000B8
01BEBC
0BFFFD
1F91FD
2F003E
3D002E
7C002E
7C003E
7C003D
3D007D
2E00BC
1F92F4
07FFE0
01BE40
ENDCHAR
STARTCHAR ntilde
ENCODING 241
SWIDTH 483 0
DWIDTH 14 0
BBX 11 20 1 0
BITMAP
06E0B0
0FFFE0
1E1B80
000000
000000
7C6F80
7EFFE0
7F96F4
7E00F8
7D00B8
7D00B8
7D00B8
7D00B8
7D00B8
7D00B8
7D00B8
7D00B8
7D00B8
7D00B8
7D00B8
ENDCHAR
STARTCHAR ograve
ENCODING 242
SWIDTH 501 0
DWIDTH 14 0
BBX 12 21 1 0
BITMAP
0FC000
03E000
01F800
007800
000000
000000
01BE40
0BFFE0
2F82F8
3E00BC
7C003D
BC002E
B8002E
B8002E
B8002E
BC002E
7C003D
3E007C
2F81F8
0BFFE0
01BE40
ENDCHAR
STARTCHAR oacute
ENCODING 243
SWIDTH 501 0
DWIDTH 14 0
BBX 12 21 1 0
BITMAP
0007E0
000F80
002F00
006C00
000000
000000
01BE40
0BFFE0
2F82F8
3E00BC
7C003D
BC002E
B8002E
B8002E
B8002E
BC002E
7C003D
3E007C
2F81F8
0BFFE0
01BE40
ENDCHAR
STARTCHAR ocircumflex
ENCODING 244
SWIDTH 501 0
DWIDTH 14 0
BBX 12 21 1 0
BITMAP
007C00
01FE00
03DB80
068290
000000
000000
01BE40
0BFFE0
2F82F8
3E00BC
7C003D
BC002E
B8002E
B8002E
B8002E
BC002E
7C003D
3E007C
2F81F8
0BFFE0
01BE40
ENDCHAR
STARTCHAR otilde
ENCODING 245
SWIDTH 501 0
DWIDTH 14 0
BBX 12 20 1 0
BITMAP
06E0B0
0FFFE0
0E1B80
000000
000000
01BE40
0BFFE0
2F82F8
3E00BC
7C003D
BC002E
B8002E
B8002E
B8002E
BC002E
7C003D
3E007C
2F81F8
0BFFE0
01BE40
ENDCHAR
STARTCHAR odieresis
ENCODING 246
SWIDTH 501 0
DWIDTH 14 0
BBX 12 20 1 0
BITMAP
0A01A0
1F42F4
1F01F0
000000
000000
01BE40
0BFFE0
2F82F8
3E00BC
7C003D
BC002E
B8002E
B8002E
B8002E
BC002E
7C003D
3E007C
2F81F8
0BFFE0
01BE40
ENDCHAR
STARTCHAR divide
ENCODING 247
SWIDTH 500 0
DWIDTH 14 0
BBX 12 15 1 2
BITMAP
002800
00BD00
007C00
000000
000000
000000
FFFFFE
FFFFFE
6AAAA9
000000
000000
002400
00BD00
007D00
001400
ENDCHAR
STARTCHAR oslash
ENCODING 248
SWIDTH 498 0
DWIDTH 14 0
BBX 12 19 1 -2
BITMAP
000014
000074
01BEB0
0BFFE0
1F82F4
3E03FC
7D077D
BC0A3E
B81D2E
B82C2E
B8342E
7CB03E
7DE03D
3FD0BC
1FC2F4
0BFFE0
0BBE40
0E0000
180000
ENDCHAR
STARTCHAR ugrave
ENCODING 249
SWIDTH 483 0
DWIDTH 14 0
BBX 11 21 1 0
BITMAP
0FC000
07E000
01F400
007800
000000
000000
7D00B8
7D00B8
7D00B8
7D00B8
7D00B8
7D00B8
7D00B8
7D00B8
7D00B8
7D00B8
7D00B8
3E00F8
2F57F8
1FFFF8
06F9B8
ENDCHAR
STARTCHAR uacute
ENCODING 250
SWIDTH 483 0
DWIDTH 14 0
BBX 11 21 1 0
BITMAP
0007E0
001F80
003E00
006800
000000
000000
7D00B8
7D00B8
7D00B8
7D00B8
7D00B8
7D00B8
7D00B8
7D00B8
7D00B8
7D00B8
7D00B8
3E00F8
2F57F8
1FFFF8
06F9B8
ENDCHAR
STARTCHAR ucircumflex
ENCODING 251
SWIDTH 483 0
DWIDTH 14 0
BBX 11 21 1 0
BITMAP
007C00
01FE00
03DB80
074380
000000
000000
7D00B8
7D00B8
7D00B8
7D00B8
7D00B8
7D00B8
7D00B8
7D00B8
7D00B8
7D00B8
7D00B8
3E00F8
2F57F8
1FFFF8
06F9B8
ENDCHAR
STARTCHAR udieresis
ENCODING 252
SWIDTH 483 0
DWIDTH 14 0
BBX 11 20 1 0
BITMAP
1A01A0
2F42F4
1E01E0
000000
000000
7D00B8
7D00B8
7D00B8
7D00B8
7D00B8
7D00B8
7D00B8
7D00B8
7D00B8
7D00B8
7D00B8
3E00F8
2F57F8
1FFFF8
06F9B8
ENDCHAR
STARTCHAR yacute
ENCODING 253
SWIDTH 416 0
DWIDTH 12 0
BBX 11 27 0 -6
BITMAP
0003F0
000BC0
002F40
002D00
000000
000000
7D00BC
3E00B8
2E00F4
1F01F0
1F42F0
0F82E0
0B83D0
07C7C0
03DB80
02EB40
01EF00
00FF00
00FE00
00BD00
007C00
007800
00B400
00F000
16E000
2FC000
2E4000
ENDCHAR
STARTCHAR thorn
ENCODING 254
SWIDTH 508 0
DWIDTH 14 0
BBX 11 27 2 -6
BITMAP
F40000
F40000
F40000
F40000
F40000
F40000
F5BE00
FFFFC0
FE5BE0
F802F0
F401F4
F400F4
F400F8
F400B8
F400F8
F400F4
F401F4
F802F0
FE0BE0
FFFFC0
F5BE00
F40000
F40000
F40000
F40000
F40000
F40000
ENDCHAR
STARTCHAR ydieresis
ENCODING 255
SWIDTH 416 0
DWIDTH 12 0
BBX 11 26 0 -6
BITMAP
0A40A0
1F81F8
0B40F4
000000
000000
7D00BC
3E00B8
2E00F4
1F01F0
1F42F0
0F82E0
0B83D0
07C7C0
03DB80
02EB40
01EF00
00FF00
00FE00
00BD00
007C00
007800
00B400
00F000
16E000
2FC000
2E4000
ENDCHAR
STARTCHAR Amacron
ENCODING 256
SWIDTH 576 0
DWIDTH 16 0
BBX 16 24 0 0
BITMAP
00BFFF00
00BFFF00
00000000
00000000
0003D000
0007E000
000BF000
000FF400
001EB800
002D7C00
003D3D00
007C2E00
00B82F00
00F41F40
01F00F80
02E00BC0
03E007C0
07FFFFD0
0BFFFFE0
0F8002F0
1F4000F4
2F0000B8
3E00007C
7D00003D
ENDCHAR
STARTCHAR amacron
ENCODING 257
SWIDTH 479 0
DWIDTH 13 0
BBX 11 20 1 0
BITMAP
0FFFF0
0FFFF0
000000
000000
000000
01BE40
0FFFE0
2F46F0
3D00F4
1400F4
0000F4
01BFF4
0FFAF4
3F40F4
7D00F4
7C00F4
7C01F4
3E5BF8
2FFEF8
07F8BC
ENDCHAR
STARTCHAR Abreve
ENCODING 258
SWIDTH 576 0
DWIDTH 16 0
BBX 16 25 0 0
BITMAP
00A00A00
00B41F00
007EBE00
001BE400
00000000
0003D000
0007E000
000BF000
000FF400
001EB800
002D7C00
003D3D00
007C2E00
00B82F00
00F41F40
01F00F80
02E00BC0
03E007C0
07FFFFD0
0BFFFFE0
0F8002F0
1F4000F4
2F0000B8
3E00007C
7D00003D
ENDCHAR
STARTCHAR abreve
ENCODING 259
SWIDTH 479 0
DWIDTH 13 0
BBX 11 20 1 0
BITMAP
0A00A0
0F41F0
07EBD0
01BE40
000000
01BE40
0FFFE0
2F46F0
3D00F4
1400F4
0000F4
01BFF4
0FFAF4
3F40F4
7D00F4
7C00F4
7C01F4
3E5BF8
2FFEF8
07F8BC
ENDCHAR
STARTCHAR Aogonek
ENCODING 260
SWIDTH 576 0
DWIDTH 16 0
BBX 16 26 0 -6
BITMAP
0003D000
0007E000
000BF000
000FF400
001EB800
002D7C00
003D3D00
007C2E00
00B82F00
00F41F40
01F00F80
02E00BC0
03E007C0
07FFFFD0
0BFFFFE0
0F8002F0
1F4000F4
2F0000B8
3E0000BC
7D00007D
000000B8
000001E0
000002D0
000003D0
000002FD
000000B8
ENDCHAR
STARTCHAR aogonek
ENCODING 261
SWIDTH 479 0
DWIDTH 13 0
BBX 11 21 1 -6
BITMAP
01BE40
0FFFE0
2F46F0
3D00F4
1400F4
0000F4
01BFF4
0FFAF4
3F40F4
7D00F4
7C00F4
7C01F4
3E5BF8
2FFEF8
07F8BC
0001F0
0003C0
000780
000780
0007F8
0002F4
ENDCHAR
STARTCHAR Cacute
ENCODING 262
SWIDTH 566 0
DWIDTH 16 0
BBX 14 26 1 0
BITMAP
0000FC00
0002F000
000BC000
000B4000
00000000
00000000
006FE400
02FFFE00
0BE56F40
1F800BC0
2F0007D0
3E0003E0
7D000290
7D000000
7D000000
7D000000
7D000000
7D000000
7D000000
7D000290
3E0003D0
2F0007D0
1F400BC0
0BE46F40
02FFFE00
006FE400
ENDCHAR
STARTCHAR cacute
ENCODING 263
SWIDTH 461 0
DWIDTH 13 0
BBX 11 21 1 0
BITMAP
000BD0
002F40
007D00
00B400
000000
000000
02FE40
0FFFE0
2F46F4
7D00B8
7C007C
B80014
B80000
B80000
B80000
B80000
7C0068
7D00B8
2F42F4
0FFFE0
02FE40
ENDCHAR
STARTCHAR Ccircumflex
ENCODING 264
SWIDTH 566 0
DWIDTH 16 0
BBX 14 26 1 0
BITMAP
000F4000
003FC000
00B5F000
01A0A400
00000000
00000000
006FE400
02FFFE00
0BE56F40
1F800BC0
2F0007D0
3E0003E0
7D000290
7D000000
7D000000
7D000000
7D000000
7D000000
7D000000
7D000290
3E0003D0
2F0007D0
1F400BC0
0BE46F40
02FFFE00
006FE400
ENDCHAR
STARTCHAR ccircumflex
ENCODING 265
SWIDTH 461 0
DWIDTH 13 0
BBX 11 21 1 0
BITMAP
00B400
02FD00
0B8F40
0B0780
000000
000000
02FE40
0FFFE0
2F46F4
7D00B8
7C007C
B80014
B80000
B80000
B80000
B80000
7C0068
7D00B8
2F42F4
0FFFE0
02FE40
ENDCHAR
STARTCHAR Cdotaccent
ENCODING 266
SWIDTH 566 0
DWIDTH 16 0
BBX 14 25 1 0
BITMAP
000A4000
001F8000
000F4000
00000000
00000000
006FE400
02FFFE00
0BE56F40
1F800BC0
2F0007D0
3E0003E0
7D000290
7D000000
7D000000
7D000000
7D000000
7D000000
7D000000
7D000290
3E0003D0
2F0007D0
1F400BC0
0BE46F40
02FFFE00
006FE400
ENDCHAR
STARTCHAR cdotaccent
ENCODING 267
SWIDTH 461 0
DWIDTH 13 0
BBX 11 20 1 0
BITMAP
00B400
00F800
00B400
000000
000000
02FE40
0FFFE0
2F46F4
7D00B8
7C007C
B80014
B80000
B80000
B80000
B80000
7C0068
7D00B8
2F42F4
0FFFE0
02FE40
ENDCHAR
STARTCHAR Ccaron
ENCODING 268
SWIDTH 566 0
DWIDTH 16 0
BBX 14 26 1 0
BITMAP
01E0B400
00B5E000
002FC000
000F4000
00000000
00000000
006FE400
02FFFE00
0BE56F40
1F800BC0
2F0007D0
3E0003E0
7D000290
7D000000
7D000000
7D000000
7D000000
7D000000
7D000000
7D000290
3E0003D0
2F0007D0
1F400BC0
0BE46F40
02FFFE00
006FE400
ENDCHAR
STARTCHAR ccaron
ENCODING 269
SWIDTH 461 0
DWIDTH 13 0
BBX 11 21 1 0
BITMAP
0F0780
078F00
02FD00
00B400
000000
000000
02FE40
0FFFE0
2F46F4
7D00B8
7C007C
B80014
B80000
B80000
B80000
B80000
7C0068
7D00B8
2F42F4
0FFFE0
02FE40
ENDCHAR
STARTCHAR Dcaron
ENCODING 270
SWIDTH 570 0
DWIDTH 16 0
BBX 13 26 2 0
BITMAP
0F078000
078F0000
02FD0000
00B40000
00000000
00000000
FFFE4000
FFFFE000
F816F800
F800BD00
F8003E00
F8002F00
F8001F00
F8001F40
F8001F40
F8001F40
F8001F40
F8001F40
F8001F40
F8001F00
F8002F00
F8003E00
F800BD00
F816F800
FFFFE000
FFFA0000
ENDCHAR
STARTCHAR dcaron
ENCODING 271
SWIDTH 569 0
DWIDTH 16 0
BBX 15 21 1 0
BITMAP
00007CB8
00007CB8
00007CB4
00007CF0
00007C90
00007C00
06F97C00
1FFFBC00
3F56FC00
7D00BC00
7C007C00
B8007C00
B8007C00
B8007C00
B8007C00
B8007C00
7C007C00
7D00BC00
2F56FC00
1FFFBC00
02F97C00
ENDCHAR
STARTCHAR Dcroat
ENCODING 272
SWIDTH 585 0
DWIDTH 16 0
BBX 15 20 0 0
BITMAP
07FFE400
07FFFE00
07D16FC0
07C007E0
07C002F0
07C000F4
07C000F8
07C000F8
07C000B8
BFFE00B8
BFFE00B8
07C000B8
07C000F8
07C000F8
07C001F4
07C002F0
07C007E0
07D16FC0
07FFFE00
07FFE400
ENDCHAR
STARTCHAR dcroat
ENCODING 273
SWIDTH 529 0
DWIDTH 15 0
BBX 14 21 1 0
BITMAP
00007C00
00007C00
001FFFD0
001FFFD0
00007C00
00007C00
02F97C00
0FFFFC00
2F96FC00
3E00BC00
7C007C00
BC007C00
B8007C00
B8007C00
B8007C00
BC007C00
7C007C00
3E00BC00
2F96FC00
0BFFFC00
02FD7C00
ENDCHAR
STARTCHAR Emacron
ENCODING 274
SWIDTH 496 0
DWIDTH 14 0
BBX 11 25 2 0
BITMAP
2FFFD0
2FFFD0
000000
000000
000000
FFFFF8
FFFFF8
F80000
F80000
F80000
F80000
F80000
F80000
F80000
FFFFE0
FFFFE0
F80000
F80000
F80000
F80000
F80000
F80000
F80000
FFFFFC
FFFFFC
ENDCHAR
STARTCHAR emacron
ENCODING 275
SWIDTH 468 0
DWIDTH 13 0
BBX 11 20 1 0
BITMAP
0FFFE0
0FFFE0
000000
000000
000000
01BE40
0BFFE0
2F46F4
3D00F8
7C00B8
B8007C
BFFFFC
BFFFFC
B80000
BC0000
7C0000
7D0010
2F41B8
0FFFF4
02BF80
ENDCHAR
STARTCHAR Ebreve
ENCODING 276
SWIDTH 496 0
DWIDTH 14 0
BBX 11 25 2 0
BITMAP
190190
2E03D0
0FAF80
02FE00
000000
FFFFF8
FFFFF8
F80000
F80000
F80000
F80000
F80000
F80000
F80000
FFFFE0
FFFFE0
F80000
F80000
F80000
F80000
F80000
F80000
F80000
FFFFFC
FFFFFC
ENDCHAR
STARTCHAR ebreve
ENCODING 277
SWIDTH 468 0
DWIDTH 13 0
BBX 11 20 1 0
BITMAP
1900A0
0F02E0
0BEBD0
01BE00
000000
01BE40
0BFFE0
2F46F4
3D00F8
7C00B8
B8007C
BFFFFC
BFFFFC
B80000
BC0000
7C0000
7D0010
2F41B8
0FFFF4
02BF80
ENDCHAR
STARTCHAR Edotaccent
ENCODING 278
SWIDTH 496 0
DWIDTH 14 0
BBX 11 25 2 0
BITMAP
00B400
00FC00
00B400
000000
000000
FFFFF8
FFFFF8
F80000
F80000
F80000
F80000
F80000
F80000
F80000
FFFFE0
FFFFE0
F80000
F80000
F80000
F80000
F80000
F80000
F80000
FFFFFC
FFFFFC
ENDCHAR
STARTCHAR edotaccent
ENCODING 279
SWIDTH 468 0
DWIDTH 13 0
BBX 11 20 1 0
BITMAP
007800
00BD00
007800
000000
000000
01BE40
0BFFE0
2F46F4
3D00F8
7C00B8
B8007C
BFFFFC
BFFFFC
B80000
BC0000
7C0000
7D0010
2F41B8
0FFFF4
02BF80
ENDCHAR
STARTCHAR Eogonek
ENCODING 280
SWIDTH 496 0
DWIDTH 14 0
BBX 11 26 2 -6
BITMAP
FFFFF8
FFFFF8
F80000
F80000
F80000
F80000
F80000
F80000
F80000
FFFFE0
FFFFE0
F80000
F80000
F80000
F80000
F80000
F80000
F80000
FFFFFC
FFFFFC
0002D0
000B80
000F40
000F40
000BF0
0006E0
ENDCHAR
STARTCHAR eogonek
ENCODING 281
SWIDTH 468 0
DWIDTH 13 0
BBX 11 21 1 -6
BITMAP
01BE40
0BFFE0
2F46F4
3D00F8
7C00B8
B8007C
BFFFFC
BFFFFC
B80000
BC0000
7C0000
7D0010
2F41B8
0FFFF4
02FF80
002E00
003C00
007800
007800
007F80
001F40
ENDCHAR
STARTCHAR Ecaron
ENCODING 282
SWIDTH 496 0
DWIDTH 14 0
BBX 11 26 2 0
BITMAP
0F0780
078F00
01FD00
00B400
000000
000000
FFFFF8
FFFFF8
F80000
F80000
F80000
F80000
F80000
F80000
F80000
FFFFE0
FFFFE0
F80000
F80000
F80000
F80000
F80000
F80000
F80000
FFFFFC
FFFFFC
ENDCHAR
STARTCHAR ecaron
ENCODING 283
SWIDTH 468 0
DWIDTH 13 0
BBX 11 21 1 0
BITMAP
0B43D0
02CB40
00FE00
007800
000000
000000
01BE40
0BFFE0
2F46F4
3D00F8
7C00B8
B8007C
BFFFFC
BFFFFC
B80000
BC0000
7C0000
7D0010
2F41B8
0FFFF4
02BF80
ENDCHAR
STARTCHAR Gcircumflex
ENCODING 284
SWIDTH 590 0
DWIDTH 17 0
BBX 14 26 1 0
BITMAP
001F0000
003FC000
00F5E000
01A0A400
00000000
00000000
006FE400
03FFFE00
0FE56F80
1F400BC0
2E0007D0
3D0003E0
7D000000
7D000000
7D000000
7D000000
7D02FFE0
7D02FFE0
7D0003E0
7D0003E0
3E0003E0
2F0003E0
1F8003E0
0BE55FD0
02FFFF40
006FE800
ENDCHAR
STARTCHAR gcircumflex
ENCODING 285
SWIDTH 492 0
DWIDTH 14 0
BBX 11 27 1 -6
BITMAP
00B800
01FE00
07CB40
0B4380
000000
000000
06F97C
1FFFBC
3F56FC
7D00BC
7C007C
B8007C
B8007C
B8007C
B8007C
B8007C
7C007C
7D00BC
2F56FC
1FFFBC
02F97C
00007C
0000BC
0400F8
2E46F4
1FFFE0
02BE40
ENDCHAR
STARTCHAR Gbreve
ENCODING 286
SWIDTH 590 0
DWIDTH 17 0
BBX 14 25 1 0
BITMAP
02802800
03D07C00
01FAF400
006F9000
00000000
006FE400
03FFFE00
0FE56F80
1F400BC0
2E0007D0
3D0003E0
7D000000
7D000000
7D000000
7D000000
7D02FFE0
7D02FFE0
7D0003E0
7D0003E0
3E0003E0
2F0003E0
1F8003E0
0BE55FD0
02FFFF40
006FE800
ENDCHAR
STARTCHAR gbreve
ENCODING 287
SWIDTH 492 0
DWIDTH 14 0
BBX 11 26 1 -6
BITMAP
190190
1F02E0
0BEBC0
01BE00
000000
06F97C
1FFFBC
3F56FC
7D00BC
7C007C
B8007C
B8007C
B8007C
B8007C
B8007C
7C007C
7D00BC
2F56FC
1FFFBC
02F97C
00007C
0000BC
0400F8
2E46F4
1FFFE0
02BE40
ENDCHAR
STARTCHAR Gdotaccent
ENCODING 288
SWIDTH 590 0
DWIDTH 17 0
BBX 14 25 1 0
BITMAP
001A0000
002F4000
001F0000
00000000
00000000
006FE400
03FFFE00
0FE56F80
1F400BC0
2E0007D0
3D0003E0
7D000000
7D000000
7D000000
7D000000
7D02FFE0
7D02FFE0
7D0003E0
7D0003E0
3E0003E0
2F0003E0
1F8003E0
0BE55FD0
02FFFF40
006FE800
ENDCHAR
STARTCHAR gdotaccent
ENCODING 289
SWIDTH 492 0
DWIDTH 14 0
BBX 11 26 1 -6
BITMAP
007800
00BC00
007800
000000
000000
06F97C
1FFFBC
3F56FC
7D00BC
7C007C
B8007C
B8007C
B8007C
B8007C
B8007C
7C007C
7D00BC
2F56FC
1FFFBC
02F97C
00007C
0000BC
0400F8
2E46F4
1FFFE0
02BE40
ENDCHAR
STARTCHAR uni0122
ENCODING 290
SWIDTH 590 0
DWIDTH 17 0
BBX 14 27 1 -7
BITMAP
006FE400
03FFFE00
0FE56F80
1F400BC0
2E0007D0
3D0003E0
7D000000
7D000000
7D000000
7D000000
7D02FFE0
7D02FFE0
7D0003E0
7D0003E0
3E0003E0
2F0003E0
1F8003E0
0BE55FD0
02FFFF40
006FE800
00000000
00000000
000B8000
000B8000
000B8000
000F0000
00090000
ENDCHAR
STARTCHAR uni0123
ENCODING 291
SWIDTH 492 0
DWIDTH 14 0
BBX 11 29 1 -6
BITMAP
001800
003D00
007C00
00BC00
00B800
00B800
000000
000000
06F97C
1FFFBC
3F56FC
7D00BC
7C007C
B8007C
B8007C
B8007C
B8007C
B8007C
7C007C
7D00BC
2F56FC
1FFFBC
02F97C
00007C
0000BC
0400F8
2E46F4
1FFFE0
02BE40
ENDCHAR
STARTCHAR Hcircumflex
ENCODING 292
SWIDTH 620 0
DWIDTH 17 0
BBX 14 26 2 0
BITMAP
002E0000
00BF4000
01E3D000
02D1E000
00000000
00000000
F80007D0
F80007D0
F80007D0
F80007D0
F80007D0
F80007D0
F80007D0
F80007D0
F80007D0
FFFFFFD0
FFFFFFD0
F80007D0
F80007D0
F80007D0
F80007D0
F80007D0
F80007D0
F80007D0
F80007D0
F80007D0
ENDCHAR
STARTCHAR hcircumflex
ENCODING 293
SWIDTH 482 0
DWIDTH 14 0
BBX 11 26 1 0
BITMAP
00F400
03FC00
0B5F00
1A0A40
000000
7D0000
7D0000
7D0000
7D0000
7D0000
7D0000
7D6F80
7EFFE0
7F96F4
7E00F8
7D00B8
7D00B8
7D00B8
7D00B8
7D00B8
7D00B8
7D00B8
7D00B8
7D00B8
7D00B8
7D00B8
ENDCHAR
STARTCHAR Hbar
ENCODING 294
SWIDTH 611 0
DWIDTH 17 0
BBX 17 20 0 0
BITMAP
0F80007D00
0F80007D00
0F80007D00
0F80007D00
7FFFFFFF80
7FFFFFFF80
0F80007D00
0F80007D00
0F80007D00
0FFFFFFD00
0FFFFFFD00
0F80007D00
0F80007D00
0F80007D00
0F80007D00
0F80007D00
0F80007D00
0F80007D00
0F80007D00
0F80007D00
ENDCHAR
STARTCHAR hbar
ENCODING 295
SWIDTH 497 0
DWIDTH 14 0
BBX 13 21 -1 0
BITMAP
02E00000
02E00000
7FFF4000
7FFF4000
02E00000
02E00000
02E2F900
02EFFF40
02FD5F80
02F40BC0
02E007C0
02E007C0
02E007C0
02E007C0
02E007C0
02E007C0
02E007C0
02E007C0
02E007C0
02E007C0
02E007C0
ENDCHAR
STARTCHAR Itilde
ENCODING 296
SWIDTH 250 0
DWIDTH 7 0
BBX 9 25 -1 0
BITMAP
1E4780
7FFF40
B4BD00
000000
000000
02E000
02E000
02E000
02E000
02E000
02E000
02E000
02E000
02E000
02E000
02E000
02E000
02E000
02E000
02E000
02E000
02E000
02E000
02E000
02E000
ENDCHAR
STARTCHAR itilde
ENCODING 297
SWIDTH 234 0
DWIDTH 7 0
BBX 9 20 -1 0
BITMAP
2E4740
7FFF00
B0BD00
000000
000000
03D000
03D000
03D000
03D000
03D000
03D000
03D000
03D000
03D000
03D000
03D000
03D000
03D000
03D000
03D000
ENDCHAR
STARTCHAR Imacron
ENCODING 298
SWIDTH 250 0
DWIDTH 7 0
BBX 9 25 -1 0
BITMAP
7FFF80
7FFF80
000000
000000
000000
02E000
02E000
02E000
02E000
02E000
02E000
02E000
02E000
02E000
02E000
02E000
02E000
02E000
02E000
02E000
02E000
02E000
02E000
02E000
02E000
ENDCHAR
STARTCHAR imacron
ENCODING 299
SWIDTH 234 0
DWIDTH 7 0
BBX 9 20 -1 0
BITMAP
BFFF40
BFFF40
000000
000000
000000
03D000
03D000
03D000
03D000
03D000
03D000
03D000
03D000
03D000
03D000
03D000
03D000
03D000
03D000
03D000
ENDCHAR
STARTCHAR Ibreve
ENCODING 300
SWIDTH 250 0
DWIDTH 7 0
BBX 9 25 -1 0
BITMAP
640640
780B40
3FBF00
0BF800
000000
02E000
02E000
02E000
02E000
02E000
02E000
02E000
02E000
02E000
02E000
02E000
02E000
02E000
02E000
02E000
02E000
02E000
02E000
02E000
02E000
ENDCHAR
STARTCHAR ibreve
ENCODING 301
SWIDTH 234 0
DWIDTH 7 0
BBX 9 20 -1 0
BITMAP
640640
B80F40
3EBE00
0BE400
000000
03D000
03D000
03D000
03D000
03D000
03D000
03D000
03D000
03D000
03D000
03D000
03D000
03D000
03D000
03D000
ENDCHAR
STARTCHAR Iogonek
ENCODING 302
SWIDTH 250 0
DWIDTH 7 0
BBX 5 26 0 -6
BITMAP
0B80
0B80
0B80
0B80
0B80
0B80
0B80
0B80
0B80
0B80
0B80
0B80
0B80
0B80
0B80
0B80
0B80
0B80
0B80
0FC0
1F00
3D00
7800
7800
7F80
2F40
ENDCHAR
STARTCHAR iogonek
ENCODING 303
SWIDTH 229 0
DWIDTH 6 0
BBX 5 26 0 -6
BITMAP
0B40
0F80
0B40
0000
0000
0F40
0F40
0F40
0F40
0F40
0F40
0F40
0F40
0F40
0F40
0F40
0F40
0F40
0F40
0F40
1E00
7C00
B400
B400
BF40
2E40
ENDCHAR
STARTCHAR Idotaccent
ENCODING 304
SWIDTH 250 0
DWIDTH 7 0
BBX 3 25 2 0
BITMAP
B4
FC
B8
00
00
B8
B8
B8
B8
B8
B8
B8
B8
B8
B8
B8
B8
B8
B8
B8
B8
B8
B8
B8
B8
ENDCHAR
STARTCHAR dotlessi
ENCODING 305
SWIDTH 234 0
DWIDTH 7 0
BBX 3 15 2 0
BITMAP
F4
F4
F4
F4
F4
F4
F4
F4
F4
F4
F4
F4
F4
F4
F4
ENDCHAR
STARTCHAR IJ
ENCODING 306
SWIDTH 733 0
DWIDTH 21 0
BBX 17 20 2 0
BITMAP
B800000F80
B800000F80
B800000F80
B800000F80
B800000F80
B800000F80
B800000F80
B800000F80
B800000F80
B800000F80
B800000F80
B800000F80
B800000F80
B800000F80
B80A400F40
B80F401F40
B80FC02F00
B807E5BE00
B802FFFC00
B8006FE000
ENDCHAR
STARTCHAR ij
ENCODING 307
SWIDTH 452 0
DWIDTH 13 0
BBX 9 26 2 -6
BITMAP
B40740
F80F80
B40B40
000000
000000
F40B80
F40B80
F40B80
F40B80
F40B80
F40B80
F40B80
F40B80
F40B80
F40B80
F40B80
F40B80
F40B80
F40B80
F40B80
000B80
000B80
000B80
005F40
00FF00
00BD00
ENDCHAR
STARTCHAR Jcircumflex
ENCODING 308
SWIDTH 483 0
DWIDTH 14 0
BBX 13 26 1 0
BITMAP
0001F000
0003FC00
000F5E00
001A0A40
00000000
00000000
0000F800
0000F800
0000F800
0000F800
0000F800
0000F800
0000F800
0000F800
0000F800
0000F800
0000F800
0000F800
0000F800
0000F800
A400F400
F401F400
FC02F000
7E5BE000
2FFFC000
06FE0000
ENDCHAR
STARTCHAR jcircumflex
ENCODING 309
SWIDTH 237 0
DWIDTH 7 0
BBX 8 27 -1 -6
BITMAP
02E0
0BF4
1E3D
2D1E
0000
0000
02E0
02E0
02E0
02E0
02E0
02E0
02E0
02E0
02E0
02E0
02E0
02E0
02E0
02E0
02E0
02E0
02E0
03E0
07D0
7F80
7E00
ENDCHAR
STARTCHAR uni0136
ENCODING 310
SWIDTH 544 0
DWIDTH 15 0
BBX 13 26 2 -6
BITMAP
F8002F40
F8007E00
F801F800
F802F000
F80BD000
F81F8000
F83F0000
F8BD0000
F9F40000
FFF80000
FFFD0000
FF3F0000
FD1F4000
F80BC000
F807E000
F802F400
F800FC00
F8007E00
F8002F40
F8000F80
00000000
007C0000
007C0000
00780000
00F40000
00A00000
ENDCHAR
STARTCHAR uni0137
ENCODING 311
SWIDTH 450 0
DWIDTH 13 0
BBX 11 27 1 -6
BITMAP
7D0000
7D0000
7D0000
7D0000
7D0000
7D0000
7D02F4
7D07E0
7D0F80
7D2F00
7D7D00
7DF800
7FF400
7FF800
7FBD00
7D2F00
7D0F80
7D0BD0
7D03E0
7D01F4
7D00BC
000000
00B400
00F400
00F400
01E000
019000
ENDCHAR
STARTCHAR kgreenlandic
ENCODING 312
SWIDTH 491 0
DWIDTH 14 0
BBX 11 15 2 0
BITMAP
F402F4
F407D0
F41F80
F43F00
F4BD00
F5F400
FFE000
FFE000
F9F400
F4BD00
F43E00
F41F80
F40BD0
F403F0
F401F8
ENDCHAR
STARTCHAR Lacute
ENCODING 313
SWIDTH 475 0
DWIDTH 13 0
BBX 11 26 2 0
BITMAP
0BD000
2F4000
7D0000
B40000
000000
000000
F80000
F80000
F80000
F80000
F80000
F80000
F80000
F80000
F80000
F80000
F80000
F80000
F80000
F80000
F80000
F80000
F80000
F80000
FFFFF4
FFFFF4
ENDCHAR
STARTCHAR lacute
ENCODING 314
SWIDTH 229 0
DWIDTH 6 0
BBX 5 27 2 0
BITMAP
0FC0
2F40
7D00
B400
0000
0000
F400
F400
F400
F400
F400
F400
F400
F400
F400
F400
F400
F400
F400
F400
F400
F400
F400
F400
F400
F400
F400
ENDCHAR
STARTCHAR uni013B
ENCODING 315
SWIDTH 475 0
DWIDTH 13 0
BBX 11 27 2 -7
BITMAP
F80000
F80000
F80000
F80000
F80000
F80000
F80000
F80000
F80000
F80000
F80000
F80000
F80000
F80000
F80000
F80000
F80000
F80000
FFFFF4
FFFFF4
000000
000000
00B400
00F400
00F400
01E000
019000
ENDCHAR
STARTCHAR uni013C
ENCODING 316
SWIDTH 229 0
DWIDTH 6 0
BBX 4 28 1 -7
BITMAP
3D
3D
3D
3D
3D
3D
3D
3D
3D
3D
3D
3D
3D
3D
3D
3D
3D
3D
3D
3D
3D
00
00
3D
3D
3C
B8
60
ENDCHAR
STARTCHAR Lcaron
ENCODING 317
SWIDTH 475 0
DWIDTH 13 0
BBX 11 20 2 0
BITMAP
F81F00
F81F00
F82E00
F83D00
F82800
F80000
F80000
F80000
F80000
F80000
F80000
F80000
F80000
F80000
F80000
F80000
F80000
F80000
FFFFF4
FFFFF4
ENDCHAR
STARTCHAR lcaron
ENCODING 318
SWIDTH 302 0
DWIDTH 8 0
BBX 7 21 2 0
BITMAP
F4B8
F4F4
F4F4
F5F0
F590
F400
F400
F400
F400
F400
F400
F400
F400
F400
F400
F400
F400
F400
F400
F400
F400
ENDCHAR
STARTCHAR Ldot
ENCODING 319
SWIDTH 475 0
DWIDTH 13 0
BBX 11 20 2 0
BITMAP
F80000
F80000
F80000
F80000
F80000
F80000
F80000
F80000
F82D00
F83F00
F82E00
F80000
F80000
F80000
F80000
F80000
F80000
F80000
FFFFF4
FFFFF4
ENDCHAR
STARTCHAR ldot
ENCODING 320
SWIDTH 336 0
DWIDTH 9 0
BBX 7 21 2 0
BITMAP
F400
F400
F400
F400
F400
F400
F400
F400
F400
F4A4
F5F8
F4F4
F400
F400
F400
F400
F400
F400
F400
F400
F400
ENDCHAR
STARTCHAR Lslash
ENCODING 321
SWIDTH 475 0
DWIDTH 13 0
BBX 13 20 0 0
BITMAP
0F800000
0F800000
0F800000
0F800000
0F800000
0F800000
0F800000
0F990000
0FFD0000
2FD00000
7F800000
0F800000
0F800000
0F800000
0F800000
0F800000
0F800000
0F800000
0FFFFF40
0FFFFF40
ENDCHAR
STARTCHAR lslash
ENCODING 322
SWIDTH 250 0
DWIDTH 7 0
BBX 7 21 0 0
BITMAP
0B80
0B80
0B80
0B80
0B80
0B80
0B80
0B80
0BA4
0BF4
2F80
7F80
0B80
0B80
0B80
0B80
0B80
0B80
0B80
0B80
0B80
ENDCHAR
STARTCHAR Nacute
ENCODING 323
SWIDTH 619 0
DWIDTH 17 0
BBX 13 26 2 0
BITMAP
0002F400
0007E000
000F8000
001A0000
00000000
00000000
FC0007C0
FD0007C0
FF0007C0
FF4007C0
FFC007C0
FBD007C0
F9F007C0
F8B807C0
F87C07C0
F82E07C0
F81F07C0
F80B87C0
F807C7C0
F802E7C0
F801FBC0
F800BFC0
F8007FC0
F8002FC0
F8000FC0
F8000BC0
ENDCHAR
STARTCHAR nacute
ENCODING 324
SWIDTH 483 0
DWIDTH 14 0
BBX 11 21 1 0
BITMAP
0007E0
000F80
002E00
006800
000000
000000
7C6F80
7EFFE0
7F96F4
7E00F8
7D00B8
7D00B8
7D00B8
7D00B8
7D00B8
7D00B8
7D00B8
7D00B8
7D00B8
7D00B8
7D00B8
ENDCHAR
STARTCHAR uni0145
ENCODING 325
SWIDTH 619 0
DWIDTH 17 0
BBX 13 27 2 -7
BITMAP
FC0007C0
FD0007C0
FF0007C0
FF4007C0
FFC007C0
FBD007C0
F9F007C0
F8B807C0
F87C07C0
F82E07C0
F81F07C0
F80B87C0
F807C7C0
F802E7C0
F801FBC0
F800BFC0
F8007FC0
F8002FC0
F8000FC0
F8000BC0
00000000
00000000
002E0000
002E0000
003D0000
007C0000
00240000
ENDCHAR
STARTCHAR uni0146
ENCODING 326
SWIDTH 483 0
DWIDTH 14 0
BBX 11 22 1 -7
BITMAP
7C6F80
7EFFE0
7F96F4
7E00F8
7D00B8
7D00B8
7D00B8
7D00B8
7D00B8
7D00B8
7D00B8
7D00B8
7D00B8
7D00B8
7D00B8
000000
000000
007800
00B800
00B800
00F400
009000
ENDCHAR
STARTCHAR Ncaron
ENCODING 327
SWIDTH 619 0
DWIDTH 17 0
BBX 13 26 2 0
BITMAP
02D0F000
00F2D000
007F4000
001E0000
00000000
00000000
FC0007C0
FD0007C0
FF0007C0
FF4007C0
FFC007C0
FBD007C0
F9F007C0
F8B807C0
F87C07C0
F82E07C0
F81F07C0
F80B87C0
F807C7C0
F802E7C0
F801FBC0
F800BFC0
F8007FC0
F8002FC0
F8000FC0
F8000BC0
ENDCHAR
STARTCHAR ncaron
ENCODING 328
SWIDTH 483 0
DWIDTH 14 0
BBX 11 21 1 0
BITMAP
0B83D0
02DB40
00FE00
007C00
000000
000000
7C6F80
7EFFE0
7F96F4
7E00F8
7D00B8
7D00B8
7D00B8
7D00B8
7D00B8
7D00B8
7D00B8
7D00B8
7D00B8
7D00B8
7D00B8
ENDCHAR
STARTCHAR napostrophe
ENCODING 329
SWIDTH 483 0
DWIDTH 14 0
BBX 13 21 -1 0
BITMAP
2E000000
2E000000
3D000000
7C000000
64000000
00000000
07C6F800
07EFFE00
07F96F40
07E00F80
07D00B80
07D00B80
07D00B80
07D00B80
07D00B80
07D00B80
07D00B80
07D00B80
07D00B80
07D00B80
07D00B80
ENDCHAR
STARTCHAR Eng
ENCODING 330
SWIDTH 599 0
DWIDTH 17 0
BBX 13 26 2 -6
BITMAP
F8000B80
FD000B80
FE000B80
FF400B80
FFC00B80
FBD00B80
FAF00B80
F8F40B80
F8BC0B80
F83D0B80
F82F0B80
F80F4B80
F80BCB80
F803EB80
F802FB80
F800FF80
F800BF80
F8003F80
F8001F80
F8000F80
00000B80
00000B80
00000F80
00005F40
0001FF00
0001F800
ENDCHAR
STARTCHAR eng
ENCODING 331
SWIDTH 498 0
DWIDTH 14 0
BBX 10 21 2 -6
BITMAP
F1BE00
F7FFC0
FE5BD0
F802E0
F402F0
F401F0
F401F0
F401F0
F401F0
F401F0
F401F0
F401F0
F401F0
F401F0
F401F0
0001F0
0001F0
0002F0
0017E0
003FD0
003E40
ENDCHAR
STARTCHAR Omacron
ENCODING 332
SWIDTH 600 0
DWIDTH 17 0
BBX 14 24 1 0
BITMAP
01FFFD00
01FFFD00
00000000
00000000
006FE400
02FFFE00
0BE56F80
1F800BC0
2F0003E0
3E0002E0
7D0002F0
7D0001F0
7D0001F0
7D0001F0
7D0001F0
7D0001F0
7D0001F0
7D0002F0
3E0002E0
2F0003E0
1F800BC0
0BE56F80
02FFFE00
006FE400
ENDCHAR
STARTCHAR omacron
ENCODING 333
SWIDTH 501 0
DWIDTH 14 0
BBX 12 20 1 0
BITMAP
0FFFF0
0FFFF0
000000
000000
000000
01BE40
0BFFE0
2F82F8
3E00BC
7C003D
BC002E
B8002E
B8002E
B8002E
BC002E
7C003D
3E007C
2F81F8
0BFFE0
01BE40
ENDCHAR
STARTCHAR Obreve
ENCODING 334
SWIDTH 600 0
DWIDTH 17 0
BBX 14 25 1 0
BITMAP
01901900
01E02D00
00FEF800
002FE000
00000000
006FE400
02FFFE00
0BE56F80
1F800BC0
2F0003E0
3E0002E0
7D0002F0
7D0001F0
7D0001F0
7D0001F0
7D0001F0
7D0001F0
7D0001F0
7D0002F0
3E0002E0
2F0003E0
1F800BC0
0BE56F80
02FFFE00
006FE400
ENDCHAR
STARTCHAR obreve
ENCODING 335
SWIDTH 501 0
DWIDTH 14 0
BBX 12 20 1 0
BITMAP
0A00A0
0F41E0
07EBD0
01BE40
000000
01BE40
0BFFE0
2F82F8
3E00BC
7C003D
BC002E
B8002E
B8002E
B8002E
BC002E
7C003D
3E007C
2F81F8
0BFFE0
01BE40
ENDCHAR
STARTCHAR Ohungarumlaut
ENCODING 336
SWIDTH 600 0
DWIDTH 17 0
BBX 14 25 1 0
BITMAP
000F8F80
001F2E00
003DBC00
0068B400
00000000
006FE400
02FFFE00
0BE56F80
1F800BC0
2F0003E0
3E0002E0
7D0002F0
7D0001F0
7D0001F0
7D0001F0
7D0001F0
7D0001F0
7D0001F0
7D0002F0
3E0002E0
2F0003E0
1F800BC0
0BE56F80
02FFFE00
006FE400
ENDCHAR
STARTCHAR ohungarumlaut
ENCODING 337
SWIDTH 501 0
DWIDTH 14 0
BBX 12 21 1 0
BITMAP
00BCBC
00F5F4
02E3E0
02C680
000000
000000
01BE40
0BFFE0
2F82F8
3E00BC
7C003D
BC002E
B8002E
B8002E
B8002E
BC002E
7C003D
3E007C
2F81F8
0BFFE0
01BE40
ENDCHAR
STARTCHAR OE
ENCODING 338
SWIDTH 826 0
DWIDTH 23 0
BBX 20 20 1 0
BITMAP
006FFFFFFE
03FFFFFFFE
0FD06E0000
2F002E0000
3D002E0000
7C002E0000
7C002E0000
BC002E0000
BC002E0000
BC002FFFF8
BC002FFFF8
BC002E0000
BC002E0000
7C002E0000
7C002E0000
3D002E0000
2F002E0000
0FD06E0000
03FFFFFFFF
006FFFFFFF
ENDCHAR
STARTCHAR oe
ENCODING 339
SWIDTH 777 0
DWIDTH 22 0
BBX 20 15 1 0
BITMAP
01BE406F80
0BFFE2FFF4
1F82FBD1FC
3E00BF807D
7D007F003E
7C003F002E
BC003FFFFE
B8003FFFFE
BC003E0000
7C003F0000
7D007F0000
3E00BF8004
1F82FBD06C
0BFFE2FFFC
01BE406FA0
ENDCHAR
STARTCHAR Racute
ENCODING 340
SWIDTH 530 0
DWIDTH 15 0
BBX 13 26 2 0
BITMAP
000BD000
002F4000
007D0000
00B40000
00000000
00000000
FFFE8000
FFFFF000
F806F800
F800BD00
F8003E00
F8003E00
F8003E00
F8003D00
F800BD00
F801F800
FFFFF000
FFFF8000
F80BC000
F807D000
F802F000
F801F400
F800FC00
F8007D00
F8003E00
F8002F40
ENDCHAR
STARTCHAR racute
ENCODING 341
SWIDTH 304 0
DWIDTH 9 0
BBX 8 21 1 0
BITMAP
007E
00F8
02F0
02C0
0000
0000
7DB8
7EFC
7FA4
7E00
7D00
7D00
7D00
7D00
7D00
7D00
7D00
7D00
7D00
7D00
7D00
ENDCHAR
STARTCHAR uni0156
ENCODING 342
SWIDTH 530 0
DWIDTH 15 0
BBX 13 27 2 -7
BITMAP
FFFE8000
FFFFF000
F806F800
F800BD00
F8003E00
F8003E00
F8003E00
F8003D00
F800BD00
F801F800
FFFFF000
FFFF8000
F80BC000
F807D000
F802F000
F801F400
F800FC00
F8007D00
F8003E00
F8002F40
00000000
00000000
00F40000
00F40000
00F00000
01E00000
01800000
ENDCHAR
STARTCHAR uni0157
ENCODING 343
SWIDTH 304 0
DWIDTH 9 0
BBX 7 22 1 -7
BITMAP
7DB8
7EFC
7FA4
7E00
7D00
7D00
7D00
7D00
7D00
7D00
7D00
7D00
7D00
7D00
7D00
0000
0000
3D00
3D00
7C00
B800
6000
ENDCHAR
STARTCHAR Rcaron
ENCODING 344
SWIDTH 530 0
DWIDTH 15 0
BBX 13 26 2 0
BITMAP
0F078000
078F0000
02FD0000
00B40000
00000000
00000000
FFFE8000
FFFFF000
F806F800
F800BD00
F8003E00
F8003E00
F8003E00
F8003D00
F800BD00
F801F800
FFFFF000
FFFF8000
F80BC000
F807D000
F802F000
F801F400
F800FC00
F8007D00
F8003E00
F8002F40
ENDCHAR
STARTCHAR rcaron
ENCODING 345
SWIDTH 304 0
DWIDTH 9 0
BBX 8 21 1 0
BITMAP
782D
2D78
0FE0
07C0
0000
0000
7DB8
7EFC
7FA4
7E00
7D00
7D00
7D00
7D00
7D00
7D00
7D00
7D00
7D00
7D00
7D00
ENDCHAR
STARTCHAR Sacute
ENCODING 346
SWIDTH 518 0
DWIDTH 15 0
BBX 13 26 1 0
BITMAP
0002F400
0007D000
001F4000
002E0000
00000000
00000000
01BF9000
0BFFF400
2F95BD00
3E003E00
7D001F00
7D001F40
3E000000
2F400000
1FE40000
07FF8000
006FF400
0006FD00
00007F00
00001F40
B8001F40
BC001F40
7D002F00
2F91BE00
0BFFF800
01BF9000
ENDCHAR
STARTCHAR sacute
ENCODING 347
SWIDTH 455 0
DWIDTH 13 0
BBX 11 21 1 0
BITMAP
0007E0
000F80
002E00
006800
000000
000000
02FE00
1FFFD0
3F47F0
3D01F0
3D0050
3F4000
1FE400
06FF40
006FE0
0002F0
6400F4
7C00F4
3E46F0
1FFFD0
06FE40
ENDCHAR
STARTCHAR Scircumflex
ENCODING 348
SWIDTH 518 0
DWIDTH 15 0
BBX 13 26 1 0
BITMAP
002E0000
00BF4000
01E3D000
02C1E000
00000000
00000000
01BF9000
0BFFF400
2F95BD00
3E003E00
7D001F00
7D001F40
3E000000
2F400000
1FE40000
07FF8000
006FF400
0006FD00
00007F00
00001F40
B8001F40
BC001F40
7D002F00
2F91BE00
0BFFF800
01BF9000
ENDCHAR
STARTCHAR scircumflex
ENCODING 349
SWIDTH 455 0
DWIDTH 13 0
BBX 11 21 1 0
BITMAP
007C00
01FE00
03DB80
068290
000000
000000
02FE00
1FFFD0
3F47F0
3D01F0
3D0050
3F4000
1FE400
06FF40
006FE0
0002F0
6400F4
7C00F4
3E46F0
1FFFD0
06FE40
ENDCHAR
STARTCHAR Scedilla
ENCODING 350
SWIDTH 518 0
DWIDTH 15 0
BBX 13 26 1 -6
BITMAP
01BF9000
0BFFF400
2F95BD00
3E003E00
7D001F00
7D001F40
3E000000
2F400000
1FE40000
07FF8000
006FF400
0006FD00
00007F00
00001F40
B8001F40
BC001F40
7D002F00
2F91BE00
0BFFF800
01BF9000
001D0000
002F4000
0007C000
0003C000
001B8000
002E0000
ENDCHAR
STARTCHAR scedilla
ENCODING 351
SWIDTH 455 0
DWIDTH 13 0
BBX 11 21 1 -6
BITMAP
02FE00
1FFFD0
3F47F0
3D01F0
3D0050
3F4000
1FE400
06FF40
006FE0
0002F0
6400F4
7C00F4
3E46F0
1FFFD0
06FE40
003800
007E00
000B40
000B40
002F00
007900
ENDCHAR
STARTCHAR Scaron
ENCODING 352
SWIDTH 518 0
DWIDTH 15 0
BBX 13 26 1 0
BITMAP
03C1E000
01E3C000
007F4000
002D0000
00000000
00000000
01BF9000
0BFFF400
2F95BD00
3E003E00
7D001F00
7D001F40
3E000000
2F400000
1FE40000
07FF8000
006FF400
0006FD00
00007F00
00001F40
B8001F40
BC001F40
7D002F00
2F91BE00
0BFFF800
01BF9000
ENDCHAR
STARTCHAR scaron
ENCODING 353
SWIDTH 455 0
DWIDTH 13 0
BBX 11 21 1 0
BITMAP
0B83D0
02DB40
00FE00
007C00
000000
000000
02FE00
1FFFD0
3F47F0
3D01F0
3D0050
3F4000
1FE400
06FF40
006FE0
0002F0
6400F4
7C00F4
3E46F0
1FFFD0
06FE40
ENDCHAR
STARTCHAR uni0162
ENCODING 354
SWIDTH 520 0
DWIDTH 15 0
BBX 14 26 0 -6
BITMAP
7FFFFFE0
7FFFFFE0
000F8000
000F8000
000F8000
000F8000
000F8000
000F8000
000F8000
000F8000
000F8000
000F8000
000F8000
000F8000
000F8000
000F8000
000F8000
000F8000
000F8000
000F8000
000B4000
000BC000
0001E000
0000E000
0006D000
000B4000
ENDCHAR
STARTCHAR uni0163
ENCODING 355
SWIDTH 295 0
DWIDTH 8 0
BBX 8 25 0 -6
BITMAP
07C0
07C0
07C0
07C0
BFFD
BFFD
07C0
07C0
07C0
07C0
07C0
07C0
07C0
07C0
07C0
07C0
07D4
03FD
01BC
0074
007D
000F
000F
006E
0078
ENDCHAR
STARTCHAR Tcaron
ENCODING 356
SWIDTH 520 0
DWIDTH 15 0
BBX 14 26 0 0
BITMAP
00F07800
0078F000
002FD000
000B4000
00000000
00000000
7FFFFFE0
7FFFFFE0
000F8000
000F8000
000F8000
000F8000
000F8000
000F8000
000F8000
000F8000
000F8000
000F8000
000F8000
000F8000
000F8000
000F8000
000F8000
000F8000
000F8000
000F8000
ENDCHAR
STARTCHAR tcaron
ENCODING 357
SWIDTH 314 0
DWIDTH 9 0
BBX 10 22 0 0
BITMAP
0003D0
0003D0
0007C0
07CB80
07C600
07C000
07C000
BFFD00
BFFD00
07C000
07C000
07C000
07C000
07C000
07C000
07C000
07C000
07C000
07C000
07D400
03FD00
01BC00
ENDCHAR
STARTCHAR Tbar
ENCODING 358
SWIDTH 520 0
DWIDTH 15 0
BBX 14 20 0 0
BITMAP
7FFFFFE0
7FFFFFE0
000F8000
000F8000
000F8000
000F8000
000F8000
01FFFC00
01FFFC00
000F8000
000F8000
000F8000
000F8000
000F8000
000F8000
000F8000
000F8000
000F8000
000F8000
000F8000
ENDCHAR
STARTCHAR tbar
ENCODING 359
SWIDTH 295 0
DWIDTH 8 0
BBX 8 19 0 0
BITMAP
07C0
07C0
07C0
07C0
BFFD
BFFD
07C0
07C0
FFFD
FFFD
07C0
07C0
07C0
07C0
07C0
07C0
07E4
03FD
01BC
ENDCHAR
STARTCHAR Utilde
ENCODING 360
SWIDTH 561 0
DWIDTH 16 0
BBX 13 25 1 0
BITMAP
01B82C00
03FFF800
0786E000
00000000
00000000
7D000BC0
7D000BC0
7D000BC0
7D000BC0
7D000BC0
7D000BC0
7D000BC0
7D000BC0
7D000BC0
7D000BC0
7D000BC0
7D000BC0
7D000BC0
7D000BC0
7D000BC0
3D000BC0
2F001F80
1F917F00
0BFFFD00
01BFE000
ENDCHAR
STARTCHAR utilde
ENCODING 361
SWIDTH 483 0
DWIDTH 14 0
BBX 11 20 1 0
BITMAP
06E0E0
0FFFE0
1D1F80
000000
000000
7D00B8
7D00B8
7D00B8
7D00B8
7D00B8
7D00B8
7D00B8
7D00B8
7D00B8
7D00B8
7D00B8
3E00F8
2F57F8
1FFFF8
06F9B8
ENDCHAR
STARTCHAR Umacron
ENCODING 362
SWIDTH 561 0
DWIDTH 16 0
BBX 13 24 1 0
BITMAP
03FFFC00
03FFFC00
00000000
00000000
7D000BC0
7D000BC0
7D000BC0
7D000BC0
7D000BC0
7D000BC0
7D000BC0
7D000BC0
7D000BC0
7D000BC0
7D000BC0
7D000BC0
7D000BC0
7D000BC0
7D000BC0
3D000BC0
2F001F80
1F917F00
0BFFFD00
01BFE000
ENDCHAR
STARTCHAR umacron
ENCODING 363
SWIDTH 483 0
DWIDTH 14 0
BBX 11 20 1 0
BITMAP
0FFFE0
0FFFE0
000000
000000
000000
7D00B8
7D00B8
7D00B8
7D00B8
7D00B8
7D00B8
7D00B8
7D00B8
7D00B8
7D00B8
7D00B8
3E00F8
2F57F8
1FFFF8
06F9B8
ENDCHAR
STARTCHAR Ubreve
ENCODING 364
SWIDTH 561 0
DWIDTH 16 0
BBX 13 25 1 0
BITMAP
02802800
03D07800
02FAF400
006F9000
00000000
7D000BC0
7D000BC0
7D000BC0
7D000BC0
7D000BC0
7D000BC0
7D000BC0
7D000BC0
7D000BC0
7D000BC0
7D000BC0
7D000BC0
7D000BC0
7D000BC0
7D000BC0
3D000BC0
2F001F80
1F917F00
0BFFFD00
01BFE000
ENDCHAR
STARTCHAR ubreve
ENCODING 365
SWIDTH 483 0
DWIDTH 14 0
BBX 11 20 1 0
BITMAP
1900A0
0F02E0
0BEBD0
01BE00
000000
7D00B8
7D00B8
7D00B8
7D00B8
7D00B8
7D00B8
7D00B8
7D00B8
7D00B8
7D00B8
7D00B8
3E00F8
2F57F8
1FFFF8
06F9B8
ENDCHAR
STARTCHAR Uring
ENCODING 366
SWIDTH 561 0
DWIDTH 16 0
BBX 13 26 1 0
BITMAP
002F4000
00B5D000
00D0A000
00D0A000
00B5D000
002F4000
7D000BC0
7D000BC0
7D000BC0
7D000BC0
7D000BC0
7D000BC0
7D000BC0
7D000BC0
7D000BC0
7D000BC0
7D000BC0
7D000BC0
7D000BC0
7D000BC0
7D000BC0
3D000BC0
2F001F80
1F917F00
0BFFFD00
01BFE000
ENDCHAR
STARTCHAR uring
ENCODING 367
SWIDTH 483 0
DWIDTH 14 0
BBX 11 23 1 0
BITMAP
00BD00
02DB40
034280
034280
029740
00BD00
000000
000000
7D00B8
7D00B8
7D00B8
7D00B8
7D00B8
7D00B8
7D00B8
7D00B8
7D00B8
7D00B8
7D00B8
3E00F8
2F57F8
1FFFF8
06F9B8
ENDCHAR
STARTCHAR Uhungarumlaut
ENCODING 368
SWIDTH 561 0
DWIDTH 16 0
BBX 13 26 1 0
BITMAP
002F2F00
003D7D00
00B8F400
00B1A000
00000000
00000000
7D000BC0
7D000BC0
7D000BC0
7D000BC0
7D000BC0
7D000BC0
7D000BC0
7D000BC0
7D000BC0
7D000BC0
7D000BC0
7D000BC0
7D000BC0
7D000BC0
7D000BC0
3D000BC0
2F001F80
1F917F00
0BFFFD00
01BFE000
ENDCHAR
STARTCHAR uhungarumlaut
ENCODING 369
SWIDTH 483 0
DWIDTH 14 0
BBX 11 21 1 0
BITMAP
00B8BC
01F5F0
02E7D0
02C780
000000
000000
7D00B8
7D00B8
7D00B8
7D00B8
7D00B8
7D00B8
7D00B8
7D00B8
7D00B8
7D00B8
7D00B8
3E00F8
2F57F8
1FFFF8
06F9B8
ENDCHAR
STARTCHAR Uogonek
ENCODING 370
SWIDTH 561 0
DWIDTH 16 0
BBX 13 25 1 -5
BITMAP
7D000BC0
7D000BC0
7D000BC0
7D000BC0
7D000BC0
7D000BC0
7D000BC0
7D000BC0
7D000BC0
7D000BC0
7D000BC0
7D000BC0
7D000BC0
7D000BC0
7D000BC0
3D000B80
2F001F80
1F917F00
0BFFFD00
01BFE000
00078000
000B4000
000F4000
000BF400
0002E000
ENDCHAR
STARTCHAR uogonek
ENCODING 371
SWIDTH 483 0
DWIDTH 14 0
BBX 11 21 1 -6
BITMAP
7D00B8
7D00B8
7D00B8
7D00B8
7D00B8
7D00B8
7D00B8
7D00B8
7D00B8
7D00B8
7D00B8
3E00F8
2F57F8
1FFFF8
06F9B8
0001F0
0003D0
000780
000780
0007F8
0002F4
ENDCHAR
STARTCHAR Wcircumflex
ENCODING 372
SWIDTH 761 0
DWIDTH 21 0
BBX 20 26 1 0
BITMAP
00007C0000
0001FE0000
0003DB8000
0006829000
0000000000
0000000000
F8007C003D
B800BD007D
BC00BD007C
7C00FE00BC
3D01FF00B8
3D01EF00F8
2E02DB40F4
2E03C781F0
1F03C781F0
0F4783C2E0
0F4B42D2E0
0B8F42D3D0
0B8F01E3C0
07DE00F7C0
03ED00FB80
03FD00BF80
02FC007F40
02F8007F00
01F8003F00
01F4002E00
ENDCHAR
STARTCHAR wcircumflex
ENCODING 373
SWIDTH 649 0
DWIDTH 18 0
BBX 18 21 0 0
BITMAP
0001F40000
0003FC0000
000B5E0000
001A0A4000
0000000000
0000000000
7D00F003D0
3D01F407C0
2E02F807C0
1F02FC0B80
1F03FD0F40
0F47AD0F00
0B4B5E1F00
0B8F4F1E00
07CF0B6D00
03EE0BBD00
02FD07FC00
02FC03F800
01FC02F400
00F801F400
00F401F000
ENDCHAR
STARTCHAR Ycircumflex
ENCODING 374
SWIDTH 524 0
DWIDTH 15 0
BBX 14 26 0 0
BITMAP
000B8000
002FD000
0078F400
00B07800
00000000
00000000
7D0002F0
3F0007E0
1F400BC0
0F800F80
0BC01F40
03D02E00
02F07D00
01F4BC00
00B8F400
007EF000
003FD000
001FC000
000F8000
000F8000
000F8000
000F8000
000F8000
000F8000
000F8000
000F8000
ENDCHAR
STARTCHAR ycircumflex
ENCODING 375
SWIDTH 416 0
DWIDTH 12 0
BBX 11 27 0 -6
BITMAP
003D00
00FF00
02D7C0
068290
000000
000000
7D00BC
3E00B8
2E00F4
1F01F0
1F42F0
0F82E0
0B83D0
07C7C0
03DB80
02EB40
01EF00
00FF00
00FE00
00BD00
007C00
007800
00B400
00F000
16E000
2FC000
2E4000
ENDCHAR
STARTCHAR Ydieresis
ENCODING 376
SWIDTH 524 0
DWIDTH 15 0
BBX 14 25 0 0
BITMAP
02D02900
03F03E00
02E02D00
00000000
00000000
7D0002F0
3F0007E0
1F400BC0
0F800F80
0BC01F40
03D02E00
02F07D00
01F4BC00
00B8F400
007EF000
003FD000
001FC000
000F8000
000F8000
000F8000
000F8000
000F8000
000F8000
000F8000
000F8000
ENDCHAR
STARTCHAR Zacute
ENCODING 377
SWIDTH 522 0
DWIDTH 15 0
BBX 13 26 1 0
BITMAP
0002F400
000BD000
001F4000
002D0000
00000000
00000000
BFFFFF00
BFFFFF00
00007E00
00007D00
0000F800
0002F000
0007D000
000BC000
001F4000
003E0000
007D0000
00F80000
02F00000
07D00000
0BC00000
1F400000
3E000000
7D000000
BFFFFF40
BFFFFF40
ENDCHAR
STARTCHAR zacute
ENCODING 378
SWIDTH 438 0
DWIDTH 12 0
BBX 11 21 1 0
BITMAP
000FC0
002F40
007D00
00B400
000000
000000
BFFFF0
BFFFF0
0007D0
000BC0
001F40
003E00
00BC00
01F400
03E000
07D000
0F8000
2F0000
7D0000
BFFFF4
BFFFF4
ENDCHAR
STARTCHAR Zdotaccent
ENCODING 379
SWIDTH 522 0
DWIDTH 15 0
BBX 13 25 1 0
BITMAP
002D0000
003E0000
002D0000
00000000
00000000
BFFFFF00
BFFFFF00
00007E00
00007D00
0000F800
0002F000
0007D000
000BC000
001F4000
003E0000
007D0000
00F80000
02F00000
07D00000
0BC00000
1F400000
3E000000
7D000000
BFFFFF40
BFFFFF40
ENDCHAR
STARTCHAR zdotaccent
ENCODING 380
SWIDTH 438 0
DWIDTH 12 0
BBX 11 20 1 0
BITMAP
00B400
01F800
00B400
000000
000000
BFFFF0
BFFFF0
0007D0
000BC0
001F40
003E00
00BC00
01F400
03E000
07D000
0F8000
2F0000
7D0000
BFFFF4
BFFFF4
ENDCHAR
STARTCHAR Zcaron
ENCODING 381
SWIDTH 522 0
DWIDTH 15 0
BBX 13 26 1 0
BITMAP
03C1E000
01E3C000
00BF4000
002D0000
00000000
00000000
BFFFFF00
BFFFFF00
00007E00
00007D00
0000F800
0002F000
0007D000
000BC000
001F4000
003E0000
007D0000
00F80000
02F00000
07D00000
0BC00000
1F400000
3E000000
7D000000
BFFFFF40
BFFFFF40
ENDCHAR
STARTCHAR zcaron
ENCODING 382
SWIDTH 438 0
DWIDTH 12 0
BBX 11 21 1 0
BITMAP
1F0B80
079E00
02FC00
00F400
000000
000000
BFFFF0
BFFFF0
0007D0
000BC0
001F40
003E00
00BC00
01F400
03E000
07D000
0F8000
2F0000
7D0000
BFFFF4
BFFFF4
ENDCHAR
STARTCHAR longs
ENCODING 383
SWIDTH 234 0
DWIDTH 7 0
BBX 6 21 2 0
BITMAP
0BE0
3FE0
BD00
B800
F800
F800
F800
F800
F800
F800
F800
F800
F800
F800
F800
F800
F800
F800
F800
F800
F800
ENDCHAR
STARTCHAR uni018F
ENCODING 399
SWIDTH 597 0
DWIDTH 17 0
BBX 14 20 1 0
BITMAP
02BF9000
0FFFF800
0A55BF00
00001F80
000007D0
000003E0
000002E0
000001F0
000001F0
BFFFFFF0
BFFFFFF0
B80002F0
B80002F0
BC0002E0
7C0003D0
3D000BC0
2F001F80
0FD57F00
07FFFC00
006F9000
ENDCHAR
STARTCHAR florin
ENCODING 402
SWIDTH 309 0
DWIDTH 9 0
BBX 9 27 0 -6
BITMAP
006F40
01FF40
03F500
07D000
07C000
07C000
7FFD00
7FFD00
07C000
07C000
07C000
07C000
07C000
07C000
07C000
07C000
07C000
07C000
07C000
07C000
07C000
07C000
07C000
07C000
0B8000
FF4000
B90000
ENDCHAR
STARTCHAR Ohorn
ENCODING 416
SWIDTH 592 0
DWIDTH 17 0
BBX 16 22 1 0
BITMAP
00000019
0000002E
006FA02D
02FFFD7C
0BE5BFF4
1F401FD0
3E000BC0
3D0003D0
7C0003E0
BC0002E0
B80002F0
B80002F0
B80002F0
B80002F0
BC0002E0
7C0003E0
3D0003D0
3E0007C0
1F401F80
0BE5BF00
02FFFD00
006FE000
ENDCHAR
STARTCHAR ohorn
ENCODING 417
SWIDTH 502 0
DWIDTH 14 0
BBX 14 17 1 0
BITMAP
00000040
000002D0
01BE42C0
0BFFD780
1F82FF40
3E00BC00
7D003D00
BC003E00
B8002E00
B8002E00
B8002E00
BC003E00
7D003D00
3E00BC00
1F82F400
0BFFE000
01BE4000
ENDCHAR
STARTCHAR Uhorn
ENCODING 431
SWIDTH 608 0
DWIDTH 17 0
BBX 18 21 1 0
BITMAP
00000002D0
7D000BC2D0
7D000BC3C0
7D000BCB80
7D000BFF40
7D000BE800
7D000BC000
7D000BC000
7D000BC000
7D000BC000
7D000BC000
7D000BC000
7D000BC000
7D000BC000
7D000BC000
3D000BC000
3E000F8000
2F001F4000
0FD5BE0000
07FFF80000
00BF900000
ENDCHAR
STARTCHAR uhorn
ENCODING 432
SWIDTH 549 0
DWIDTH 15 0
BBX 15 16 1 0
BITMAP
00000074
7D00B8B4
7D00B8F0
7D00BFD0
7D00BD40
7D00B800
7D00B800
7D00B800
7D00B800
7D00B800
7D00B800
7D00B800
3E00F800
2F57F800
1FFFF800
06F9B800
ENDCHAR
STARTCHAR uni01F0
ENCODING 496
SWIDTH 237 0
DWIDTH 7 0
BBX 8 27 -1 -6
BITMAP
3D1E
1E3C
07F4
02E0
0000
0000
02E0
02E0
02E0
02E0
02E0
02E0
02E0
02E0
02E0
02E0
02E0
02E0
02E0
02E0
02E0
02E0
02E0
03E0
07D0
7F80
7E00
ENDCHAR
STARTCHAR Aringacute
ENCODING 506
SWIDTH 576 0
DWIDTH 16 0
BBX 16 28 0 0
BITMAP
00003D00
0000B400
00009000
00000000
0002D000
000A7000
000D3000
000A7000
0007E000
0007E000
000BF000
000FF400
001EB800
002D7C00
003D3D00
007C2E00
00B82F00
00F41F40
01F00F80
02E00BC0
03E007C0
07FFFFD0
0BFFFFE0
0F8002F0
1F4000F4
2F0000B8
3E00007C
7D00003D
ENDCHAR
STARTCHAR aringacute
ENCODING 507
SWIDTH 479 0
DWIDTH 13 0
BBX 11 24 1 0
BITMAP
0007C0
000F40
001D00
000000
007D00
009600
00C300
00D600
007D00
01BE40
0FFFE0
2F46F0
3D00F4
1400F4
0000F4
01BFF4
0FFAF4
3F40F4
7D00F4
7C00F4
7C01F4
3E5BF8
2FFEF8
07F8BC
ENDCHAR
STARTCHAR AEacute
ENCODING 508
SWIDTH 812 0
DWIDTH 23 0
BBX 22 26 0 0
BITMAP
000001F80000
000003F00000
00000BC00000
00000B000000
000000000000
000000000000
00001FFFFFD0
00002FFFFFD0
00007FE00000
0000BBD00000
0001F7E00000
0002E3E00000
0007D2E00000
000BC2E00000
001F42E00000
002F02FFFF40
007E02FFFF40
00BC02E00000
01F802E00000
02FFFFF00000
07FFFFF00000
0BD556F00000
1F8001F00000
2F4001F00000
7E0001FFFFF0
BD0001FFFFF0
ENDCHAR
STARTCHAR aeacute
ENCODING 509
SWIDTH 728 0
DWIDTH 20 0
BBX 19 21 1 0
BITMAP
00000FC000
00002F0000
00007D0000
0000B40000
0000000000
0000000000
06FE02F900
1FFFDFFF80
3F47FE47D0
7C02FC02F0
1401F801F0
0001F400F4
06FFFFFFF4
2FFFFFFFF4
7E01F00000
B801F40000
F801F80000
B801FC0000
BD1BFF41E0
3FFF5FFFF0
0BF902FE40
ENDCHAR
STARTCHAR Oslashacute
ENCODING 510
SWIDTH 600 0
DWIDTH 17 0
BBX 15 27 1 -1
BITMAP
0000BD00
0001F400
0007E000
00078000
00000000
00000064
006FE4F0
01FFFED0
07E57F80
0F800FC0
2F000FD0
3E002FE0
3D003AF0
7D00B1F0
7C01E1F0
7C02C1F4
7C0781F4
7C0B01F0
7D1D01F0
3D3C02F0
3E7402E0
2FF007D0
0FD00BC0
07E57F40
0BFFFD00
0E6FE400
2D000000
ENDCHAR
STARTCHAR oslashacute
ENCODING 511
SWIDTH 498 0
DWIDTH 14 0
BBX 12 23 1 -2
BITMAP
000BD0
001F40
007E00
007800
000014
000074
01BEB0
0BFFE0
1F82F4
3E03FC
7D077D
BC0A3E
B81D2E
B82C2E
B8342E
7CB03E
7DE03D
3FD0BC
1FC2F4
0BFFE0
0BBE40
0E0000
180000
ENDCHAR
STARTCHAR uni0218
ENCODING 536
SWIDTH 518 0
DWIDTH 15 0
BBX 13 27 1 -7
BITMAP
01BF9000
0BFFF400
2F95BD00
3E003E00
7D001F00
7D001F40
3E000000
2F400000
1FE40000
07FF8000
006FF400
0006FD00
00007F00
00001F40
B8001F40
BC001F40
7D002F00
2F91BE00
0BFFF800
01BF9000
00000000
00000000
002E0000
002E0000
003D0000
007C0000
00240000
ENDCHAR
STARTCHAR uni0219
ENCODING 537
SWIDTH 455 0
DWIDTH 13 0
BBX 11 22 1 -7
BITMAP
02FE00
1FFFD0
3F47F0
3D01F0
3D0050
3F4000
1FE400
06FF40
006FE0
0002F0
6400F4
7C00F4
3E46F0
1FFFD0
06FE40
000000
000000
007C00
007C00
00B800
00F400
00A000
ENDCHAR
STARTCHAR uni021A
ENCODING 538
SWIDTH 520 0
DWIDTH 15 0
BBX 14 27 0 -7
BITMAP
7FFFFFE0
7FFFFFE0
000F8000
000F8000
000F8000
000F8000
000F8000
000F8000
000F8000
000F8000
000F8000
000F8000
000F8000
000F8000
000F8000
000F8000
000F8000
000F8000
000F8000
000F8000
00000000
00000000
000F4000
000F4000
000F4000
001E0000
00190000
ENDCHAR
STARTCHAR uni021B
ENCODING 539
SWIDTH 295 0
DWIDTH 8 0
BBX 8 26 0 -7
BITMAP
07C0
07C0
07C0
07C0
BFFD
BFFD
07C0
07C0
07C0
07C0
07C0
07C0
07C0
07C0
07C0
07C0
07D4
03FD
01BC
0000
0000
00B8
00B8
00B4
01F0
0090
ENDCHAR
STARTCHAR uni0237
ENCODING 567
SWIDTH 237 0
DWIDTH 7 0
BBX 6 21 -1 -6
BITMAP
02E0
02E0
02E0
02E0
02E0
02E0
02E0
02E0
02E0
02E0
02E0
02E0
02E0
02E0
02E0
02E0
02E0
03E0
07D0
7F80
7E00
ENDCHAR
STARTCHAR uni0259
ENCODING 601
SWIDTH 465 0
DWIDTH 13 0
BBX 11 15 1 0
BITMAP
06F900
2FFF80
3D07E0
1001F0
0000F8
0000B8
0000B8
BFFFFC
BFFFF8
BC00B8
7C00F4
7D01F0
2F47E0
0FFF80
02FD00
ENDCHAR
STARTCHAR uni02BC
ENCODING 700
SWIDTH 194 0
DWIDTH 5 0
BBX 4 7 1 14
BITMAP
3D
3D
3D
7C
B8
F4
A0
ENDCHAR
STARTCHAR circumflex
ENCODING 710
SWIDTH 428 0
DWIDTH 12 0
BBX 8 4 2 17
BITMAP
07C0
1FE0
3DB8
6829
ENDCHAR
STARTCHAR caron
ENCODING 711
SWIDTH 403 0
DWIDTH 11 0
BBX 7 4 2 17
BITMAP
B47C
3CB4
1FD0
0B80
ENDCHAR
STARTCHAR uni02C9
ENCODING 713
SWIDTH 414 0
DWIDTH 12 0
BBX 8 2 2 18
BITMAP
FFFF
FFFF
ENDCHAR
STARTCHAR breve
ENCODING 728
SWIDTH 426 0
DWIDTH 12 0
BBX 9 4 1 16
BITMAP
7C07C0
3D0B80
1FFE00
01A400
ENDCHAR
STARTCHAR dotaccent
ENCODING 729
SWIDTH 242 0
DWIDTH 7 0
BBX 3 3 2 17
BITMAP
B4
FC
B8
ENDCHAR
STARTCHAR ring
ENCODING 730
SWIDTH 334 0
DWIDTH 9 0
BBX 7 6 1 16
BITMAP
0B90
39B0
7034
7034
39B0
0B90
ENDCHAR
STARTCHAR ogonek
ENCODING 731
SWIDTH 253 0
DWIDTH 7 0
BBX 4 7 1 -6
BITMAP
09
2D
B4
F0
F0
FF
7E
ENDCHAR
STARTCHAR tilde
ENCODING 732
SWIDTH 427 0
DWIDTH 12 0
BBX 8 3 2 17
BITMAP
6E0B
FFFE
E1B8
ENDCHAR
STARTCHAR hungarumlaut
ENCODING 733
SWIDTH 331 0
DWIDTH 9 0
BBX 9 4 1 17
BITMAP
1F5F40
2E3E00
7CB800
74B000
ENDCHAR
STARTCHAR uni02F3
ENCODING 755
SWIDTH 263 0
DWIDTH 7 0
BBX 5 4 1 -5
BITMAP
2E00
7680
6280
2F00
ENDCHAR
STARTCHAR gravecomb
ENCODING 768
SWIDTH 0 0
DWIDTH 0 0
BBX 5 4 -10 17
BITMAP
7D00
2F00
0F80
0380
ENDCHAR
STARTCHAR acutecomb
ENCODING 769
SWIDTH 0 0
DWIDTH 0 0
BBX 6 4 -8 17
BITMAP
0BD0
1F40
2E00
6800
ENDCHAR
STARTCHAR tildecomb
ENCODING 771
SWIDTH 0 0
DWIDTH 0 0
BBX 8 3 -10 17
BITMAP
2E4B
BFFF
E1B9
ENDCHAR
STARTCHAR hookabovecomb
ENCODING 777
SWIDTH 0 0
DWIDTH 0 0
BBX 4 6 -8 17
BITMAP
78
6E
0F
1F
7D
74
ENDCHAR
STARTCHAR uni030F
ENCODING 783
SWIDTH 0 0
DWIDTH 0 0
BBX 9 4 -11 17
BITMAP
BDBC00
2F7E00
0B9F00
039A40
ENDCHAR
STARTCHAR dotbelowcomb
ENCODING 803
SWIDTH 0 0
DWIDTH 0 0
BBX 4 3 -10 -5
BITMAP
78
BD
78
ENDCHAR
STARTCHAR tonos
ENCODING 900
SWIDTH 256 0
DWIDTH 7 0
BBX 4 5 2 17
BITMAP
3D
3C
78
78
64
ENDCHAR
STARTCHAR dieresistonos
ENCODING 901
SWIDTH 452 0
DWIDTH 13 0
BBX 10 6 1 17
BITMAP
007C00
007800
00B400
687190
BC02F0
7801E0
ENDCHAR
STARTCHAR Alphatonos
ENCODING 902
SWIDTH 576 0
DWIDTH 16 0
BBX 16 22 0 0
BITMAP
03D00000
07C00000
0783D000
0B47E000
060BF000
000FF400
001EB800
002D7C00
003D3D00
007C2E00
00B82F00
00F41F40
01F00F80
02E00BC0
03E007C0
07FFFFD0
0BFFFFE0
0F8002F0
1F4000F4
2F0000B8
3E00007C
7D00003D
ENDCHAR
STARTCHAR anoteleia
ENCODING 903
SWIDTH 243 0
DWIDTH 7 0
BBX 3 3 2 9
BITMAP
B4
F8
B4
ENDCHAR
STARTCHAR Epsilontonos
ENCODING 904
SWIDTH 496 0
DWIDTH 14 0
BBX 16 22 -3 0
BITMAP
3D000000
3C000000
783FFFFE
743FFFFE
743E0000
003E0000
003E0000
003E0000
003E0000
003E0000
003E0000
003FFFF8
003FFFF8
003E0000
003E0000
003E0000
003E0000
003E0000
003E0000
003E0000
003FFFFF
003FFFFF
ENDCHAR
STARTCHAR Etatonos
ENCODING 905
SWIDTH 620 0
DWIDTH 17 0
BBX 19 22 -3 0
BITMAP
2E00000000
3D00000000
3C3E0001F4
783E0001F4
643E0001F4
003E0001F4
003E0001F4
003E0001F4
003E0001F4
003E0001F4
003E0001F4
003FFFFFF4
003FFFFFF4
003E0001F4
003E0001F4
003E0001F4
003E0001F4
003E0001F4
003E0001F4
003E0001F4
003E0001F4
003E0001F4
ENDCHAR
STARTCHAR Iotatonos
ENCODING 906
SWIDTH 250 0
DWIDTH 7 0
BBX 8 22 -3 0
BITMAP
2E00
3D00
3C2E
782E
642E
002E
002E
002E
002E
002E
002E
002E
002E
002E
002E
002E
002E
002E
002E
002E
002E
002E
ENDCHAR
STARTCHAR Omicrontonos
ENCODING 908
SWIDTH 610 0
DWIDTH 17 0
BBX 17 22 -1 0
BITMAP
2E00000000
3D00000000
3C06FE4000
782FFFE000
647F56F800
00F8007D00
01F0002E00
02E0001F00
03E0001F40
03E0000F40
03D0000F40
03D0000F40
03D0000F40
03D0000F40
03E0000F40
03E0001F40
02E0001F00
01F0002F00
00F8007D00
007F56F800
002FFFF000
0006FE4000
ENDCHAR
STARTCHAR Upsilontonos
ENCODING 910
SWIDTH 573 0
DWIDTH 16 0
BBX 19 22 -3 0
BITMAP
3D00000000
7C00000000
783E0001F4
B42F4002F0
600F8007D0
000BC00BC0
0007D00F80
0002F01F00
0001F43E00
0000B87D00
00007CB800
00003EF400
00001FF000
00000FD000
00000BC000
00000BC000
00000BC000
00000BC000
00000BC000
00000BC000
00000BC000
00000BC000
ENDCHAR
STARTCHAR Omegatonos
ENCODING 911
SWIDTH 591 0
DWIDTH 17 0
BBX 16 22 -1 0
BITMAP
2E000000
3D000000
3C06FE00
782FFFC0
647E57F0
00F800F8
02F000BC
02E0003D
03E0003E
03D0003E
07D0002E
07D0002E
07D0002E
03D0002E
03D0003E
02E0003D
01F0007C
00F400B8
00B801F0
003E47E0
03FF8FFE
03FF8FFE
ENDCHAR
STARTCHAR iotadieresistonos
ENCODING 912
SWIDTH 299 0
DWIDTH 8 0
BBX 10 23 -1 0
BITMAP
00B800
00B400
00F000
74A290
F803E0
B402D0
000000
000000
01F000
01F000
01F000
01F000
01F000
01F000
01F000
01F000
01F000
01F000
01F000
01F000
01F500
00FF40
006F00
ENDCHAR
STARTCHAR Alpha
ENCODING 913
SWIDTH 576 0
DWIDTH 16 0
BBX 16 20 0 0
BITMAP
0003D000
0007E000
000BF000
000FF400
001EB800
002D7C00
003D3D00
007C2E00
00B82F00
00F41F40
01F00F80
02E00BC0
03E007C0
07FFFFD0
0BFFFFE0
0F8002F0
1F4000F4
2F0000B8
3E00007C
7D00003D
ENDCHAR
STARTCHAR Beta
ENCODING 914
SWIDTH 545 0
DWIDTH 15 0
BBX 12 20 2 0
BITMAP
FFFE80
FFFFF0
F806F8
F800BC
F8007D
F8007D
F8007D
F800BC
F802F4
FFFFD0
FFFFE0
F805F8
F8007D
F8003E
F8003E
F8003E
F8007D
F805FC
FFFFF4
FFFF80
ENDCHAR
STARTCHAR Gamma
ENCODING 915
SWIDTH 487 0
DWIDTH 14 0
BBX 11 20 2 0
BITMAP
BFFFF8
BFFFF8
B80000
B80000
B80000
B80000
B80000
B80000
B80000
B80000
B80000
B80000
B80000
B80000
B80000
B80000
B80000
B80000
B80000
B80000
ENDCHAR
STARTCHAR Delta.dup1
ENCODING 916
SWIDTH 614 0
DWIDTH 17 0
BBX 17 20 0 0
BITMAP
0002F00000
0003F40000
0007F80000
000BFC0000
000FBD0000
001F2E0000
002E1F0000
003D0F4000
007C0B8000
00B80BC000
00F407D000
01F003E000
02E002F000
03D001F400
07C000F800
0F8000BC00
1F40007D00
2F40007E00
3FFFFFFF00
7FFFFFFF40
ENDCHAR
STARTCHAR Epsilon
ENCODING 917
SWIDTH 496 0
DWIDTH 14 0
BBX 11 20 2 0
BITMAP
FFFFF8
FFFFF8
F80000
F80000
F80000
F80000
F80000
F80000
F80000
FFFFE0
FFFFE0
F80000
F80000
F80000
F80000
F80000
F80000
F80000
FFFFFC
FFFFFC
ENDCHAR
STARTCHAR Zeta
ENCODING 918
SWIDTH 522 0
DWIDTH 15 0
BBX 13 20 1 0
BITMAP
BFFFFF00
BFFFFF00
00007E00
00007D00
0000F800
0002F000
0007D000
000BC000
001F4000
003E0000
007D0000
00F80000
02F00000
07D00000
0BC00000
1F400000
3E000000
7D000000
BFFFFF40
BFFFFF40
ENDCHAR
STARTCHAR Eta
ENCODING 919
SWIDTH 620 0
DWIDTH 17 0
BBX 14 20 2 0
BITMAP
F80007D0
F80007D0
F80007D0
F80007D0
F80007D0
F80007D0
F80007D0
F80007D0
F80007D0
FFFFFFD0
FFFFFFD0
F80007D0
F80007D0
F80007D0
F80007D0
F80007D0
F80007D0
F80007D0
F80007D0
F80007D0
ENDCHAR
STARTCHAR Theta
ENCODING 920
SWIDTH 593 0
DWIDTH 17 0
BBX 14 20 1 0
BITMAP
006FE000
02FFFD00
0BE5BF00
1F801F80
2F0007C0
3D0003D0
7C0002E0
7C0002F0
BC0002F0
BCBFF5F0
BCBFF5F0
BC0002F0
7C0002F0
7D0002E0
3D0003D0
2F0007C0
1F800F80
0BE57F00
02FFFD00
006FE000
ENDCHAR
STARTCHAR Iota
ENCODING 921
SWIDTH 250 0
DWIDTH 7 0
BBX 3 20 2 0
BITMAP
B8
B8
B8
B8
B8
B8
B8
B8
B8
B8
B8
B8
B8
B8
B8
B8
B8
B8
B8
B8
ENDCHAR
STARTCHAR Kappa
ENCODING 922
SWIDTH 544 0
DWIDTH 15 0
BBX 13 20 2 0
BITMAP
F8002F40
F8007E00
F801F800
F802F000
F80BD000
F81F8000
F83F0000
F8BD0000
F9F40000
FFF80000
FFFD0000
FF3F0000
FD1F4000
F80BC000
F807E000
F802F400
F800FC00
F8007E00
F8002F40
F8000F80
ENDCHAR
STARTCHAR Lambda
ENCODING 923
SWIDTH 572 0
DWIDTH 16 0
BBX 14 20 1 0
BITMAP
001F4000
002F8000
003F8000
007FC000
00BFD000
00BAE000
00F5F000
01F1F400
02E0F800
03D0BC00
07D07D00
0BC03E00
0F802F00
1F401F40
2F000F40
3E000F80
7D000BC0
7D0007D0
BC0003E0
F80002F0
ENDCHAR
STARTCHAR Mu
ENCODING 924
SWIDTH 755 0
DWIDTH 21 0
BBX 17 20 2 0
BITMAP
FE00001FC0
FF00002FC0
FF40003FC0
FF40007FC0
FF8000BFC0
FBC000FBC0
F7D001F7C0
FAE002E7C0
F9F003D7C0
F8F407C7C0
F8B80B87C0
F87C0F47C0
F83D1F0BC0
F82E2E0BC0
F81F3D0BC0
F80F7C0BC0
F80BF80BC0
F807F40BC0
F803F00BC0
F802E00BC0
ENDCHAR
STARTCHAR Nu
ENCODING 925
SWIDTH 619 0
DWIDTH 17 0
BBX 13 20 2 0
BITMAP
FC0007C0
FD0007C0
FF0007C0
FF4007C0
FFC007C0
FBD007C0
F9F007C0
F8B807C0
F87C07C0
F82E07C0
F81F07C0
F80B87C0
F807C7C0
F802E7C0
F801FBC0
F800BFC0
F8007FC0
F8002FC0
F8000FC0
F8000BC0
ENDCHAR
STARTCHAR Xi
ENCODING 926
SWIDTH 502 0
DWIDTH 14 0
BBX 12 20 1 0
BITMAP
7FFFFD
7FFFFD
000000
000000
000000
000000
000000
000000
000000
1FFFF4
1FFFF4
000000
000000
000000
000000
000000
000000
000000
7FFFFE
7FFFFE
ENDCHAR
STARTCHAR Omicron
ENCODING 927
SWIDTH 600 0
DWIDTH 17 0
BBX 14 20 1 0
BITMAP
006FE400
02FFFE00
0BE56F80
1F800BC0
2F0003E0
3E0002E0
7D0002F0
7D0001F0
7D0001F0
7D0001F0
7D0001F0
7D0001F0
7D0001F0
7D0002F0
3E0002E0
2F0003E0
1F800BC0
0BE56F80
02FFFE00
006FE400
ENDCHAR
STARTCHAR Pi
ENCODING 928
SWIDTH 620 0
DWIDTH 17 0
BBX 13 20 2 0
BITMAP
BFFFFFC0
BFFFFFC0
B8000BC0
B80007C0
B80007C0
B80007C0
B80007C0
B80007C0
B80007C0
B80007C0
B80007C0
B80007C0
B80007C0
B80007C0
B80007C0
B80007C0
B80007C0
B80007C0
B80007C0
B80007C0
ENDCHAR
STARTCHAR Rho
ENCODING 929
SWIDTH 554 0
DWIDTH 16 0
BBX 13 20 2 0
BITMAP
FFFF9000
FFFFF800
F805BD00
F8003F00
F8001F40
F8000F40
F8000F40
F8001F40
F8002F00
F801BE00
FFFFF800
FFFFE000
F8000000
F8000000
F8000000
F8000000
F8000000
F8000000
F8000000
F8000000
ENDCHAR
STARTCHAR Sigma
ENCODING 931
SWIDTH 502 0
DWIDTH 14 0
BBX 12 20 1 0
BITMAP
FFFFFD
FFFFFD
BD0000
3F0000
1F8000
0BD000
03F000
01F800
00BD00
002F00
003F00
00BD00
01F800
03F000
0BD000
1F8000
3F0000
BD0000
FFFFFF
FFFFFF
ENDCHAR
STARTCHAR Tau
ENCODING 932
SWIDTH 520 0
DWIDTH 15 0
BBX 14 20 0 0
BITMAP
7FFFFFE0
7FFFFFE0
000F8000
000F8000
000F8000
000F8000
000F8000
000F8000
000F8000
000F8000
000F8000
000F8000
000F8000
000F8000
000F8000
000F8000
000F8000
000F8000
000F8000
000F8000
ENDCHAR
STARTCHAR Upsilon
ENCODING 933
SWIDTH 524 0
DWIDTH 15 0
BBX 14 20 0 0
BITMAP
7D0002F0
3F0007E0
1F400BC0
0F800F80
0BC01F40
03D02E00
02F07D00
01F4BC00
00B8F400
007EF000
003FD000
001FC000
000F8000
000F8000
000F8000
000F8000
000F8000
000F8000
000F8000
000F8000
ENDCHAR
STARTCHAR Phi
ENCODING 934
SWIDTH 621 0
DWIDTH 17 0
BBX 16 20 1 0
BITMAP
000BC000
000BC000
000BC000
01BFF900
07FFFFC0
1F9BDBF0
3E0BC1F8
7C0BC0BC
B80BC07D
B80BC03D
F80BC03D
B80BC07D
BC0BC07C
7D0BC0F8
2F8BC7F0
0BFFFFD0
01FFFE00
000BC000
000BC000
000BC000
ENDCHAR
STARTCHAR Chi
ENCODING 935
SWIDTH 550 0
DWIDTH 15 0
BBX 14 20 1 0
BITMAP
BD000BD0
7E001F80
2F402F00
0F807E00
0BD0BC00
03E1F800
02F2F000
00FBE000
007FC000
003F4000
003F8000
00BFC000
00FBE000
02F2F000
07E0F800
0BC0BD00
1F803E00
2F002F40
7E001F80
BC000BD0
ENDCHAR
STARTCHAR Psi
ENCODING 936
SWIDTH 600 0
DWIDTH 17 0
BBX 15 20 1 0
BITMAP
F80F40F4
F80F40F4
F80F40F4
F80F40F4
F80F40F4
F80F40F4
F80F40F4
F80F40F4
B80F41F4
BC0F41F4
7D0F42F0
3E0F47E0
1F9F5FC0
0BFFFF40
01FFF800
001F8000
000F4000
000F4000
000F4000
000F4000
ENDCHAR
STARTCHAR Omega.dup2
ENCODING 937
SWIDTH 581 0
DWIDTH 16 0
BBX 14 20 1 0
BITMAP
006F9000
02FFF800
0BE5BE00
1F401F40
2E000B80
3D0007C0
7D0007D0
7C0003D0
7C0003D0
7C0003D0
7C0003D0
7C0003D0
7D0007D0
3D0007C0
2E000B80
1F000F40
0B801E00
07E0BD00
7FF5FFD0
7FF5FFD0
ENDCHAR
STARTCHAR Iotadieresis
ENCODING 938
SWIDTH 250 0
DWIDTH 7 0
BBX 9 25 -1 0
BITMAP
780740
FC0FC0
B80B80
000000
000000
02E000
02E000
02E000
02E000
02E000
02E000
02E000
02E000
02E000
02E000
02E000
02E000
02E000
02E000
02E000
02E000
02E000
02E000
02E000
02E000
ENDCHAR
STARTCHAR Upsilondieresis
ENCODING 939
SWIDTH 524 0
DWIDTH 15 0
BBX 14 25 0 0
BITMAP
02D02900
03F03E00
02E02D00
00000000
00000000
7D0002F0
3F0007E0
1F400BC0
0F800F80
0BC01F40
03D02E00
02F07D00
01F4BC00
00B8F400
007EF000
003FD000
001FC000
000F8000
000F8000
000F8000
000F8000
000F8000
000F8000
000F8000
000F8000
ENDCHAR
STARTCHAR alphatonos
ENCODING 940
SWIDTH 494 0
DWIDTH 14 0
BBX 13 22 1 0
BITMAP
000F4000
000F0000
001E0000
001E0000
00190000
00000000
00000000
02F93C00
0BFFBC00
2F86FC00
3E00FC00
7D007C00
7C007C00
BC007C00
B8007C00
B8007C00
BC007C00
7C007C00
3E00FC00
2F46FD00
0FFF7F40
02F91F40
ENDCHAR
STARTCHAR epsilontonos
ENCODING 941
SWIDTH 470 0
DWIDTH 13 0
BBX 11 22 1 0
BITMAP
002E00
003D00
003C00
007800
006400
000000
000000
06FE40
1FFFE0
3E46F4
7C00F8
7C0000
3E0000
0BFF00
1FFF00
3E4000
7C0000
BC0068
BC00F8
7E46F4
1FFFE0
06FE40
ENDCHAR
STARTCHAR etatonos
ENCODING 942
SWIDTH 498 0
DWIDTH 14 0
BBX 10 28 2 -6
BITMAP
007C00
00B800
00B400
00F000
00A000
000000
000000
F1BE00
FBFFC0
FE1BD0
F802E0
F402F0
F401F0
F401F0
F401F0
F401F0
F401F0
F401F0
F401F0
F401F0
F401F0
F401F0
0001F0
0001F0
0001F0
0001F0
0001F0
0001F0
ENDCHAR
STARTCHAR iotatonos
ENCODING 943
SWIDTH 299 0
DWIDTH 8 0
BBX 6 22 2 0
BITMAP
1F00
2E00
2D00
3C00
2800
0000
0000
7C00
7C00
7C00
7C00
7C00
7C00
7C00
7C00
7C00
7C00
7C00
7C00
7D40
3FD0
1BC0
ENDCHAR
STARTCHAR upsilondieresistonos
ENCODING 944
SWIDTH 480 0
DWIDTH 13 0
BBX 11 23 1 0
BITMAP
003D00
003C00
007800
2864A0
7D01F4
2D01F0
000000
000000
3D02F0
3D01F4
3D00F8
3D00B8
3D00BC
3D007C
3D007C
3D007C
3D007C
3D00BC
3D00F8
3E01F4
1F47E0
0FFFC0
02FE00
ENDCHAR
STARTCHAR alpha
ENCODING 945
SWIDTH 494 0
DWIDTH 14 0
BBX 13 15 1 0
BITMAP
02F93C00
0BFFBC00
2F86FC00
3E00FC00
7D007C00
7C007C00
BC007C00
B8007C00
B8007C00
BC007C00
7C007C00
3E00FC00
2F46FD00
0FFF7F40
02F91F40
ENDCHAR
STARTCHAR beta
ENCODING 946
SWIDTH 517 0
DWIDTH 14 0
BBX 11 25 2 -5
BITMAP
02FE00
1FFFC0
3E47E0
BC02F0
F801F4
F401F4
F401F0
F407E0
F4BF80
F4BF80
F406F0
F400F4
F400B8
F4007C
F400BC
F400B8
F800F8
FE47F0
FFFFD0
F6FE40
F40000
F40000
F40000
F40000
F40000
ENDCHAR
STARTCHAR gamma
ENCODING 947
SWIDTH 444 0
DWIDTH 12 0
BBX 11 21 1 -6
BITMAP
F400B8
B800F4
7C01F0
3D02E0
2E03D0
2E07C0
1F0780
0F4B80
0B8F40
07DF00
03EE00
02FD00
01FC00
00F800
00F800
00F800
00F800
00F800
00F800
00F800
00F800
ENDCHAR
STARTCHAR delta
ENCODING 948
SWIDTH 498 0
DWIDTH 14 0
BBX 12 21 1 0
BITMAP
01BF80
07FFD0
0F9590
0F4000
0F8000
0BE000
02FE00
01FFD0
0BDBF0
2F01F8
3D00BC
7C007D
BC003D
BC003E
BC003E
7C003D
7D007D
3E00BC
1F82F4
0BFFE0
01BE40
ENDCHAR
STARTCHAR epsilon
ENCODING 949
SWIDTH 470 0
DWIDTH 13 0
BBX 11 15 1 0
BITMAP
06FE40
1FFFE0
3E46F4
7C00F8
7C0000
3E0000
0BFF00
1FFF00
3E4000
7C0000
BC0068
BC00F8
7E46F4
1FFFE0
06FE40
ENDCHAR
STARTCHAR zeta
ENCODING 950
SWIDTH 462 0
DWIDTH 13 0
BBX 11 25 1 -5
BITMAP
7FFFF8
7FFFF4
0001F0
0003D0
000B80
002F00
007D00
00F800
02F000
03D000
07C000
0F4000
0F4000
1F0000
1F0000
2F0000
1F0000
0F8000
0BF900
01FFD0
0007F0
0001F0
0002E0
0003C0
000240
ENDCHAR
STARTCHAR eta
ENCODING 951
SWIDTH 498 0
DWIDTH 14 0
BBX 10 21 2 -6
BITMAP
F1BE00
FBFFC0
FE1BD0
F802E0
F402F0
F401F0
F401F0
F401F0
F401F0
F401F0
F401F0
F401F0
F401F0
F401F0
F401F0
0001F0
0001F0
0001F0
0001F0
0001F0
0001F0
ENDCHAR
STARTCHAR theta
ENCODING 952
SWIDTH 496 0
DWIDTH 14 0
BBX 12 20 1 0
BITMAP
01BE40
07FFD0
0F86F0
2F00F4
3D00B8
3D007C
7C007C
7C007D
7C003D
7FFFFD
7FFFFD
7C007D
7C007D
7C007C
3D007C
3E00B8
2F00F4
0F86F0
07FFD0
01BE40
ENDCHAR
STARTCHAR iota
ENCODING 953
SWIDTH 299 0
DWIDTH 8 0
BBX 6 15 2 0
BITMAP
7C00
7C00
7C00
7C00
7C00
7C00
7C00
7C00
7C00
7C00
7C00
7C00
7D40
3FD0
1BC0
ENDCHAR
STARTCHAR kappa
ENCODING 954
SWIDTH 491 0
DWIDTH 14 0
BBX 11 15 2 0
BITMAP
F402F4
F407D0
F41F80
F43F00
F4BD00
F5F400
FFE000
FFE000
F9F400
F4BD00
F43E00
F41F80
F40BD0
F403F0
F401F8
ENDCHAR
STARTCHAR lambda
ENCODING 955
SWIDTH 485 0
DWIDTH 14 0
BBX 13 21 0 0
BITMAP
0B800000
0FE00000
02F40000
00F80000
00BC0000
007D0000
003E0000
003F0000
007F4000
00BF8000
00FFC000
01F7D000
02E3E000
03D2F000
07C1F400
0BC0F800
0F80BC00
1F407D00
2F003E00
3E002F80
7D000B80
ENDCHAR
STARTCHAR uni03BC
ENCODING 956
SWIDTH 498 0
DWIDTH 14 0
BBX 10 21 2 -6
BITMAP
F401F0
F401F0
F401F0
F401F0
F401F0
F401F0
F401F0
F401F0
F401F0
F401F0
F801F0
F802F0
FD0BF0
FFFEF0
FAF9F0
F40000
F40000
F40000
F40000
F40000
F40000
ENDCHAR
STARTCHAR nu
ENCODING 957
SWIDTH 427 0
DWIDTH 12 0
BBX 11 15 0 0
BITMAP
7D007C
3D00B8
2E00B8
1F00F4
0F41F0
0B82E0
0782D0
03C3C0
03D780
02EB40
01EB40
00FF00
00BE00
007D00
003C00
ENDCHAR
STARTCHAR xi
ENCODING 958
SWIDTH 431 0
DWIDTH 12 0
BBX 10 25 1 -5
BITMAP
01BF90
0BFFD0
1F9050
3E0000
3E0000
2E0000
1F9000
06FF80
02FF80
1F9000
3E0000
7C0000
BC0000
B80000
BC0000
7D0000
3E0000
1F9000
0BFE40
00BFE0
0006F0
0001F0
0001E0
0003D0
000240
ENDCHAR
STARTCHAR omicron
ENCODING 959
SWIDTH 501 0
DWIDTH 14 0
BBX 12 15 1 0
BITMAP
01BE40
0BFFE0
2F82F8
3E00BC
7C003D
BC002E
B8002E
B8002E
B8002E
BC002E
7C003D
3E007C
2F81F8
0BFFE0
01BE40
ENDCHAR
STARTCHAR pi
ENCODING 960
SWIDTH 520 0
DWIDTH 15 0
BBX 14 15 0 0
BITMAP
7FFFFFD0
7FFFFFD0
07C02E00
07C02E00
07C02E00
07C02E00
07C02E00
07C02E00
07C02E00
07C02E00
07C02E00
07C02E00
07C02F50
07C01FF0
07C007E0
ENDCHAR
STARTCHAR rho
ENCODING 961
SWIDTH 498 0
DWIDTH 14 0
BBX 11 21 2 -6
BITMAP
06F900
1FFF80
3E4BD0
7C02E0
B801F0
F400F4
F400F4
F400F4
F400F4
F400F4
F401F4
F802F0
FE0BE0
FFFFC0
F5FE00
F40000
F40000
F40000
F40000
F40000
F40000
ENDCHAR
STARTCHAR sigma1
ENCODING 962
SWIDTH 472 0
DWIDTH 13 0
BBX 11 20 1 -5
BITMAP
01BE40
0BFFD0
1F86F0
3E00F4
7D00B8
7C0054
BC0000
B80000
BC0000
7C0000
7D0000
3F4000
1FE000
07FE40
00BFE0
0006F0
0001F0
0002E0
0003C0
000240
ENDCHAR
STARTCHAR sigma
ENCODING 963
SWIDTH 498 0
DWIDTH 14 0
BBX 13 15 1 0
BITMAP
01BFFF80
0BFFFF80
1F86E000
3E00B400
7D007C00
7C003D00
BC003D00
B8003E00
BC003E00
7C003D00
7D007D00
3E00B800
1F82F400
0BFFD000
01BE4000
ENDCHAR
STARTCHAR tau
ENCODING 964
SWIDTH 460 0
DWIDTH 13 0
BBX 11 15 1 0
BITMAP
BFFFF8
BFFFF8
00F800
00F800
00F800
00F800
00F800
00F800
00F800
00F800
00F800
00F800
00BD40
007FC0
002F80
ENDCHAR
STARTCHAR upsilon
ENCODING 965
SWIDTH 480 0
DWIDTH 13 0
BBX 10 15 2 0
BITMAP
F40BC0
F407D0
F403E0
F402E0
F402F0
F401F0
F401F0
F401F0
F401F0
F402F0
F403E0
F807D0
7D1F80
3FFF00
0BF800
ENDCHAR
STARTCHAR phi
ENCODING 966
SWIDTH 617 0
DWIDTH 17 0
BBX 15 22 1 -7
BITMAP
0501F900
1F47FF80
3F0BC7E0
7D0B81F4
BC0B80F8
B80B80BC
B80B807C
B80B807C
B80B807C
BC0B80BC
7D0B80F8
3F0B82F4
1FDB9BE0
07FFFF80
00BFF900
000B8000
000B8000
000B8000
000B8000
000B8000
000B8000
000B8000
ENDCHAR
STARTCHAR chi
ENCODING 967
SWIDTH 438 0
DWIDTH 12 0
BBX 13 21 0 -6
BITMAP
7E003E00
7F407C00
1BC0B800
03D0F400
02E1F000
00F3E000
00BBD000
007F8000
003F4000
002F0000
002F0000
007F4000
00BF8000
00FBC000
01F3D000
02E2E000
07D1F000
0BC0F800
0F807D40
1F003F80
2E001B40
ENDCHAR
STARTCHAR psi
ENCODING 968
SWIDTH 612 0
DWIDTH 17 0
BBX 15 21 1 -6
BITMAP
B80B82F0
B80B81F4
B80B80F4
B80B80F8
B80B80B8
B80B80BC
B80B807C
B80B807C
B80B80BC
7C0B80B8
7D0B81F4
2F0B83F0
1FDB9FD0
07FFFF40
00BFF800
000B8000
000B8000
000B8000
000B8000
000B8000
000B8000
ENDCHAR
STARTCHAR omega
ENCODING 969
SWIDTH 711 0
DWIDTH 20 0
BBX 18 15 1 0
BITMAP
0F40002F00
1F00001F40
2E00000F80
3E00000BC0
7D01A007C0
7C01F007C0
7C01F007D0
7C01F007D0
7C01F007D0
7C01F407C0
3D01F407C0
2E02F80B80
1F4BAD1F40
0BFF1FFE00
02F906F400
ENDCHAR
STARTCHAR iotadieresis
ENCODING 970
SWIDTH 299 0
DWIDTH 8 0
BBX 10 20 -1 0
BITMAP
280680
7D0BD0
7C0780
000000
000000
01F000
01F000
01F000
01F000
01F000
01F000
01F000
01F000
01F000
01F000
01F000
01F000
01F500
00FF40
006F00
ENDCHAR
STARTCHAR upsilondieresis
ENCODING 971
SWIDTH 480 0
DWIDTH 13 0
BBX 10 20 2 0
BITMAP
780740
BC0FC0
780B80
000000
000000
F40BC0
F407D0
F403E0
F402E0
F402F0
F401F0
F401F0
F401F0
F401F0
F402F0
F403E0
F807D0
7D1F80
3FFF00
0BF800
ENDCHAR
STARTCHAR omicrontonos
ENCODING 972
SWIDTH 501 0
DWIDTH 14 0
BBX 12 22 1 0
BITMAP
001F00
002E00
002D00
003C00
002800
000000
000000
01BE40
0BFFE0
2F82F8
3E00BC
7C003D
BC002E
B8002E
B8002E
B8002E
BC002E
7C003D
3E007C
2F81F8
0BFFE0
01BE40
ENDCHAR
STARTCHAR upsilontonos
ENCODING 973
SWIDTH 480 0
DWIDTH 13 0
BBX 10 22 2 0
BITMAP
00B800
00F400
00F000
01E000
019000
000000
000000
F40BC0
F407D0
F403E0
F402E0
F402F0
F401F0
F401F0
F401F0
F401F0
F402F0
F403E0
F807D0
7D1F80
3FFF00
0BF800
ENDCHAR
STARTCHAR omegatonos
ENCODING 974
SWIDTH 711 0
DWIDTH 20 0
BBX 18 22 1 0
BITMAP
00007C0000
0000780000
0000B40000
0000B00000
0000A00000
0000000000
0000000000
0F40002F00
1F00001F40
2E00000F80
3E00000BC0
7D01A007C0
7C01F007C0
7C01F007D0
7C01F007D0
7C01F007D0
7C01F407C0
3D01F407C0
2E02F80B80
1F4BAD1F40
0BFF1FFE00
02F906F400
ENDCHAR
STARTCHAR theta1
ENCODING 977
SWIDTH 507 0
DWIDTH 14 0
BBX 13 20 1 0
BITMAP
002F8000
00FFF000
02F5F400
03E0B800
03D0BC00
03D0BC00
03E0BC00
02F0BC00
01F8BC00
68BEBC00
7C2FFF40
7C06FF40
7C00BC00
7C00BC00
7C00BC00
7D00B800
3E00F800
2F96F400
0BFFD000
01BE4000
ENDCHAR
STARTCHAR Upsilon1
ENCODING 978
SWIDTH 465 0
DWIDTH 13 0
BBX 13 20 0 0
BITMAP
F8000BC0
FE001FC0
6F003E40
0F407D00
0B80B800
07D0F400
03E1F000
02F3E000
00FBD000
00BFC000
007F4000
003F0000
002E0000
002E0000
002E0000
002E0000
002E0000
002E0000
002E0000
002E0000
ENDCHAR
STARTCHAR omega1
ENCODING 982
SWIDTH 678 0
DWIDTH 19 0
BBX 18 15 1 0
BITMAP
BFFFFFFFD0
BFFFFFFFD0
2F00003E00
3E00002F00
3D00001F00
3D02E01F40
7D02E00F40
7D02E00F40
7D02E00F40
3D02F01F40
3D03F01F00
2E03F42F00
1F4B7D7D00
0BFE2FFC00
02F80BE000
ENDCHAR
STARTCHAR uni0400
ENCODING 1024
SWIDTH 496 0
DWIDTH 14 0
BBX 11 26 2 0
BITMAP
1F8000
0BD000
02F000
00A400
000000
000000
FFFFF8
FFFFF8
F80000
F80000
F80000
F80000
F80000
F80000
F80000
FFFFE0
FFFFE0
F80000
F80000
F80000
F80000
F80000
F80000
F80000
FFFFFC
FFFFFC
ENDCHAR
STARTCHAR uni0401
ENCODING 1025
SWIDTH 496 0
DWIDTH 14 0
BBX 11 25 2 0
BITMAP
2D0290
3F03E0
2E02D0
000000
000000
FFFFF8
FFFFF8
F80000
F80000
F80000
F80000
F80000
F80000
F80000
FFFFE0
FFFFE0
F80000
F80000
F80000
F80000
F80000
F80000
F80000
FFFFFC
FFFFFC
ENDCHAR
STARTCHAR uni0402
ENCODING 1026
SWIDTH 650 0
DWIDTH 18 0
BBX 17 20 0 0
BITMAP
7FFFFFE000
7FFFFFE000
002F000000
002F000000
002F000000
002F000000
002F000000
002F000000
002FAFE000
002FFFFD00
002F95BF40
002F001F80
002F000BC0
002F000BC0
002F0007C0
002F000BC0
002F000F80
002F006F40
002F02FE00
002F02E400
ENDCHAR
STARTCHAR uni0403
ENCODING 1027
SWIDTH 487 0
DWIDTH 14 0
BBX 11 26 2 0
BITMAP
000BD0
001F40
007E00
007800
000000
000000
BFFFF8
BFFFF8
B80000
B80000
B80000
B80000
B80000
B80000
B80000
B80000
B80000
B80000
B80000
B80000
B80000
B80000
B80000
B80000
B80000
B80000
ENDCHAR
STARTCHAR uni0404
ENCODING 1028
SWIDTH 589 0
DWIDTH 17 0
BBX 14 20 1 0
BITMAP
006FE400
02FFFE00
07E56F40
0F800BC0
2F0007D0
3E0003E0
3D000190
7D000000
7D000000
7FFFE000
7FFFE000
7D000000
7D000000
3D000150
3E0003E0
2F0007D0
1F800BC0
0BE56F40
02FFFE00
006FE400
ENDCHAR
STARTCHAR uni0405
ENCODING 1029
SWIDTH 518 0
DWIDTH 15 0
BBX 13 20 1 0
BITMAP
01BF9000
0BFFF400
2F95BD00
3E003E00
7D001F00
7D001F40
3E000000
2F400000
1FE40000
07FF8000
006FF400
0006FD00
00007F00
00001F40
B8001F40
BC001F40
7D002F00
2F91BE00
0BFFF800
01BF9000
ENDCHAR
STARTCHAR uni0406
ENCODING 1030
SWIDTH 250 0
DWIDTH 7 0
BBX 3 20 2 0
BITMAP
B8
B8
B8
B8
B8
B8
B8
B8
B8
B8
B8
B8
B8
B8
B8
B8
B8
B8
B8
B8
ENDCHAR
STARTCHAR uni0407
ENCODING 1031
SWIDTH 250 0
DWIDTH 7 0
BBX 9 25 -1 0
BITMAP
780740
FC0FC0
B80B80
000000
000000
02E000
02E000
02E000
02E000
02E000
02E000
02E000
02E000
02E000
02E000
02E000
02E000
02E000
02E000
02E000
02E000
02E000
02E000
02E000
02E000
ENDCHAR
STARTCHAR uni0408
ENCODING 1032
SWIDTH 483 0
DWIDTH 14 0
BBX 11 20 1 0
BITMAP
0000F8
0000F8
0000F8
0000F8
0000F8
0000F8
0000F8
0000F8
0000F8
0000F8
0000F8
0000F8
0000F8
0000F8
A400F4
F401F4
FC02F0
7E5BE0
2FFFC0
06FE00
ENDCHAR
STARTCHAR uni0409
ENCODING 1033
SWIDTH 923 0
DWIDTH 26 0
BBX 25 20 0 0
BITMAP
00BFFFFC000000
00BFFFFC000000
00BC00BC000000
00B800BC000000
00B800BC000000
00B800BC000000
00B800BC000000
00B800BC000000
00F800BFFF9000
00F800BFFFFC00
00F800BD01BE00
00F400BC002F40
00F400BC000F80
00F400BC000F80
01F400BC000F80
01F000BC000F80
02E000BC001F40
1BD000BC01BE00
7F8000BFFFFC00
7E0000BFFF9000
ENDCHAR
STARTCHAR uni040A
ENCODING 1034
SWIDTH 927 0
DWIDTH 26 0
BBX 23 20 2 0
BITMAP
B80007C00000
B80007C00000
B80007C00000
B80007C00000
B80007C00000
B80007C00000
B80007C00000
B80007C00000
B80007FFFE00
BFFFFFFFFFD0
BFFFFFD01BF0
B8000BC001F4
B80007C000F8
B80007C000B8
B80007C000B8
B80007C000F8
B80007C001F4
B80007D55BF0
B80007FFFFC0
B80007FFFE00
ENDCHAR
STARTCHAR uni040B
ENCODING 1035
SWIDTH 705 0
DWIDTH 20 0
BBX 17 20 1 0
BITMAP
FFFFFFC000
FFFFFFC000
00BD000000
007C000000
007C000000
007C000000
007C000000
007C000000
007EBFA000
007FFFFC00
007E55BE00
007C002F00
007C001F40
007C000F40
007C000F40
007C000F40
007C000F40
007C000F40
007C000F40
007C000F40
ENDCHAR
STARTCHAR uni040C
ENCODING 1036
SWIDTH 544 0
DWIDTH 15 0
BBX 13 26 2 0
BITMAP
000FC000
002F4000
007D0000
00B40000
00000000
00000000
F8002F40
F8007E00
F801F800
F802F000
F80BD000
F81F8000
F83F0000
F8BD0000
F9F40000
FFF80000
FFFD0000
FF3F0000
FD1F4000
F80BC000
F807E000
F802F400
F800FC00
F8007E00
F8002F40
F8000F80
ENDCHAR
STARTCHAR uni040D
ENCODING 1037
SWIDTH 619 0
DWIDTH 17 0
BBX 13 26 2 0
BITMAP
07E00000
01F80000
007D0000
001E0000
00000000
00000000
B8000BC0
B8001FC0
B8002FC0
B8007FC0
B800BFC0
B801FBC0
B802E7C0
B807C7C0
B80B87C0
B81F07C0
B82E07C0
B87C07C0
B8B807C0
B9F007C0
BAE007C0
BFC007C0
BF8007C0
BF0007C0
BE0007C0
BC0007C0
ENDCHAR
STARTCHAR uni040E
ENCODING 1038
SWIDTH 547 0
DWIDTH 15 0
BBX 14 25 1 0
BITMAP
06406400
07C0B800
02FAF000
006F8000
00000000
BD000BD0
7E000FC0
2F001F40
1F402F00
0F803E00
0BC07D00
07D0BC00
03E0F800
02F1F400
01F6F000
00BBE000
007FD000
003FC000
002F8000
001F4000
002F0000
003E0000
00BC0000
0BF80000
0BE00000
ENDCHAR
STARTCHAR uni040F
ENCODING 1039
SWIDTH 621 0
DWIDTH 17 0
BBX 13 25 2 -5
BITMAP
B80007C0
B80007C0
B80007C0
B80007C0
B80007C0
B80007C0
B80007C0
B80007C0
B80007C0
B80007C0
B80007C0
B80007C0
B80007C0
B80007C0
B80007C0
B80007C0
B80007C0
B8000BC0
BFFFFFC0
BFFFFFC0
002F0000
002F0000
002F0000
002F0000
002F0000
ENDCHAR
STARTCHAR uni0410
ENCODING 1040
SWIDTH 576 0
DWIDTH 16 0
BBX 16 20 0 0
BITMAP
0003D000
0007E000
000BF000
000FF400
001EB800
002D7C00
003D3D00
007C2E00
00B82F00
00F41F40
01F00F80
02E00BC0
03E007C0
07FFFFD0
0BFFFFE0
0F8002F0
1F4000F4
2F0000B8
3E00007C
7D00003D
ENDCHAR
STARTCHAR uni0411
ENCODING 1041
SWIDTH 549 0
DWIDTH 15 0
BBX 13 20 2 0
BITMAP
FFFFF400
FFFFF400
F8000000
F8000000
F8000000
F8000000
F8000000
F8000000
FFFF9000
FFFFF800
F801BD00
F8003F00
F8001F40
F8001F40
F8001F40
F8001F00
F8003F00
F801BD00
FFFFF800
FFFF9000
ENDCHAR
STARTCHAR uni0412
ENCODING 1042
SWIDTH 545 0
DWIDTH 15 0
BBX 12 20 2 0
BITMAP
FFFE80
FFFFF0
F806F8
F800BC
F8007D
F8007D
F8007D
F800BC
F802F4
FFFFD0
FFFFE0
F805F8
F8007D
F8003E
F8003E
F8003E
F8007D
F805FC
FFFFF4
FFFF80
ENDCHAR
STARTCHAR uni0413
ENCODING 1043
SWIDTH 487 0
DWIDTH 14 0
BBX 11 20 2 0
BITMAP
BFFFF8
BFFFF8
B80000
B80000
B80000
B80000
B80000
B80000
B80000
B80000
B80000
B80000
B80000
B80000
B80000
B80000
B80000
B80000
B80000
B80000
ENDCHAR
STARTCHAR uni0414
ENCODING 1044
SWIDTH 660 0
DWIDTH 18 0
BBX 18 25 0 -5
BITMAP
003FFFFD00
003FFFFD00
007D007D00
007D007D00
007D007D00
007D007D00
007D007D00
007C007D00
007C007D00
00BC007D00
00BC007D00
00B8007D00
00F8007D00
00F4007D00
01F4007D00
02F0007D00
03E0007D00
0BD0007D00
7FFFFFFFE0
7FFFFFFFE0
7D000003E0
7D000003E0
7D000003E0
7D000003E0
7D000003E0
ENDCHAR
STARTCHAR uni0415
ENCODING 1045
SWIDTH 496 0
DWIDTH 14 0
BBX 11 20 2 0
BITMAP
FFFFF8
FFFFF8
F80000
F80000
F80000
F80000
F80000
F80000
F80000
FFFFE0
FFFFE0
F80000
F80000
F80000
F80000
F80000
F80000
F80000
FFFFFC
FFFFFC
ENDCHAR
STARTCHAR uni0416
ENCODING 1046
SWIDTH 791 0
DWIDTH 22 0
BBX 21 20 1 0
BITMAP
BD003D003F00
7E003D007E00
2F003D00BC00
0F803D01F400
0BC03D02F000
03E03D03D000
02F03D0BC000
00F43D0F4000
00BC3D2F0000
003FFFFD0000
007FFFFE0000
00FD7E6F4000
01F43D0F8000
03F03D0BD000
07D03D03E000
0FC03D02F400
2F403D00FC00
3F003D00BD00
BD003D003F00
FC003D002F40
ENDCHAR
STARTCHAR uni0417
ENCODING 1047
SWIDTH 517 0
DWIDTH 15 0
BBX 13 20 1 0
BITMAP
01BF9000
0BFFF400
2F95FD00
7E007E00
BC002F00
54002F00
00002F00
00003E00
0001BC00
00BFF400
00BFF400
0005BD00
00002F00
00001F00
A4001F40
BC001F40
7D002F00
3F95FD00
1FFFF800
01BF9000
ENDCHAR
STARTCHAR uni0418
ENCODING 1048
SWIDTH 619 0
DWIDTH 17 0
BBX 13 20 2 0
BITMAP
B8000BC0
B8001FC0
B8002FC0
B8007FC0
B800BFC0
B801FBC0
B802E7C0
B807C7C0
B80B87C0
B81F07C0
B82E07C0
B87C07C0
B8B807C0
B9F007C0
BAE007C0
BFC007C0
BF8007C0
BF0007C0
BE0007C0
BC0007C0
ENDCHAR
STARTCHAR uni0419
ENCODING 1049
SWIDTH 619 0
DWIDTH 17 0
BBX 13 25 2 0
BITMAP
06406400
07C0B800
02FAF000
006F8000
00000000
B8000BC0
B8001FC0
B8002FC0
B8007FC0
B800BFC0
B801FBC0
B802E7C0
B807C7C0
B80B87C0
B81F07C0
B82E07C0
B87C07C0
B8B807C0
B9F007C0
BAE007C0
BFC007C0
BF8007C0
BF0007C0
BE0007C0
BC0007C0
ENDCHAR
STARTCHAR uni041A
ENCODING 1050
SWIDTH 560 0
DWIDTH 16 0
BBX 14 20 2 0
BITMAP
B8001F80
B8007F00
B800BD00
B802F800
B807E000
B80FC000
B82F4000
B87E0000
BFFC0000
BFFC0000
B97E0000
B82F4000
B80FC000
B807E000
B802F000
B801F800
B800BD00
B8003F00
B8001F80
B8000FD0
ENDCHAR
STARTCHAR uni041B
ENCODING 1051
SWIDTH 615 0
DWIDTH 17 0
BBX 14 20 1 0
BITMAP
02FFFFF0
02FFFFF0
02F002F0
02E002F0
02E002F0
02E002F0
02E002F0
02E002F0
02E002F0
03E002F0
03E002F0
03E002F0
03D002F0
03D002F0
07D002F0
07C002F0
0B8002F0
6F4002F0
FE0002F0
F80002F0
ENDCHAR
STARTCHAR uni041C
ENCODING 1052
SWIDTH 755 0
DWIDTH 21 0
BBX 17 20 2 0
BITMAP
FE00001FC0
FF00002FC0
FF40003FC0
FF40007FC0
FF8000BFC0
FBC000FBC0
F7D001F7C0
FAE002E7C0
F9F003D7C0
F8F407C7C0
F8B80B87C0
F87C0F47C0
F83D1F0BC0
F82E2E0BC0
F81F3D0BC0
F80F7C0BC0
F80BF80BC0
F807F40BC0
F803F00BC0
F802E00BC0
ENDCHAR
STARTCHAR uni041D
ENCODING 1053
SWIDTH 620 0
DWIDTH 17 0
BBX 14 20 2 0
BITMAP
F80007D0
F80007D0
F80007D0
F80007D0
F80007D0
F80007D0
F80007D0
F80007D0
F80007D0
FFFFFFD0
FFFFFFD0
F80007D0
F80007D0
F80007D0
F80007D0
F80007D0
F80007D0
F80007D0
F80007D0
F80007D0
ENDCHAR
STARTCHAR uni041E
ENCODING 1054
SWIDTH 600 0
DWIDTH 17 0
BBX 14 20 1 0
BITMAP
006FE400
02FFFE00
0BE56F80
1F800BC0
2F0003E0
3E0002E0
7D0002F0
7D0001F0
7D0001F0
7D0001F0
7D0001F0
7D0001F0
7D0001F0
7D0002F0
3E0002E0
2F0003E0
1F800BC0
0BE56F80
02FFFE00
006FE400
ENDCHAR
STARTCHAR uni041F
ENCODING 1055
SWIDTH 620 0
DWIDTH 17 0
BBX 13 20 2 0
BITMAP
BFFFFFC0
BFFFFFC0
B8000BC0
B80007C0
B80007C0
B80007C0
B80007C0
B80007C0
B80007C0
B80007C0
B80007C0
B80007C0
B80007C0
B80007C0
B80007C0
B80007C0
B80007C0
B80007C0
B80007C0
B80007C0
ENDCHAR
STARTCHAR uni0420
ENCODING 1056
SWIDTH 554 0
DWIDTH 16 0
BBX 13 20 2 0
BITMAP
FFFF9000
FFFFF800
F805BD00
F8003F00
F8001F40
F8000F40
F8000F40
F8001F40
F8002F00
F801BE00
FFFFF800
FFFFE000
F8000000
F8000000
F8000000
F8000000
F8000000
F8000000
F8000000
F8000000
ENDCHAR
STARTCHAR uni0421
ENCODING 1057
SWIDTH 566 0
DWIDTH 16 0
BBX 14 20 1 0
BITMAP
006FE400
02FFFE00
0BE56F40
1F800BC0
2F0007D0
3E0003E0
7D000290
7D000000
7D000000
7D000000
7D000000
7D000000
7D000000
7D000290
3E0003D0
2F0007D0
1F400BC0
0BE46F40
02FFFE00
006FE400
ENDCHAR
STARTCHAR uni0422
ENCODING 1058
SWIDTH 520 0
DWIDTH 15 0
BBX 14 20 0 0
BITMAP
7FFFFFE0
7FFFFFE0
000F8000
000F8000
000F8000
000F8000
000F8000
000F8000
000F8000
000F8000
000F8000
000F8000
000F8000
000F8000
000F8000
000F8000
000F8000
000F8000
000F8000
000F8000
ENDCHAR
STARTCHAR uni0423
ENCODING 1059
SWIDTH 547 0
DWIDTH 15 0
BBX 14 20 1 0
BITMAP
BD000BD0
7E000FC0
2F001F40
1F402F00
0F803E00
0BC07D00
07D0BC00
03E0F800
02F1F400
01F6F000
00BBE000
007FD000
003FC000
002F8000
001F4000
002F0000
003E0000
00BC0000
0BF80000
0BE00000
ENDCHAR
STARTCHAR uni0424
ENCODING 1060
SWIDTH 676 0
DWIDTH 19 0
BBX 17 22 1 -1
BITMAP
0002E00000
0002E00000
0002E00000
006FFE4000
03FFFFF000
0FD2E1FC00
2F02E03E00
3D02E01F00
7C02E00F40
B802E00B80
B802E00B80
B802E00B80
B802E00B80
7C02E00F40
3D02E01F00
2F02E03E00
0FD2E1FC00
03FFFFF000
006FFE4000
0002E00000
0002E00000
0002E00000
ENDCHAR
STARTCHAR uni0425
ENCODING 1061
SWIDTH 550 0
DWIDTH 15 0
BBX 14 20 1 0
BITMAP
BD000BD0
7E001F80
2F402F00
0F807E00
0BD0BC00
03E1F800
02F2F000
00FBE000
007FC000
003F4000
003F8000
00BFC000
00FBE000
02F2F000
07E0F800
0BC0BD00
1F803E00
2F002F40
7E001F80
BC000BD0
ENDCHAR
STARTCHAR uni0426
ENCODING 1062
SWIDTH 639 0
DWIDTH 18 0
BBX 15 25 2 -5
BITMAP
B80007C0
B80007C0
B80007C0
B80007C0
B80007C0
B80007C0
B80007C0
B80007C0
B80007C0
B80007C0
B80007C0
B80007C0
B80007C0
B80007C0
B80007C0
B80007C0
B80007C0
B8000BD4
BFFFFFFC
BFFFFFF8
000000B8
000000B8
000000B8
000000B8
000000B8
ENDCHAR
STARTCHAR uni0427
ENCODING 1063
SWIDTH 600 0
DWIDTH 17 0
BBX 13 20 2 0
BITMAP
F4000F80
F4000F80
F4000F80
F4000F80
F4000F80
F4000F80
F4000F80
F8000F80
B8000F80
7E006F80
2FFFFF80
0BFFAF80
00000F80
00000F80
00000F80
00000F80
00000F80
00000F80
00000F80
00000F80
ENDCHAR
STARTCHAR uni0428
ENCODING 1064
SWIDTH 814 0
DWIDTH 23 0
BBX 19 20 2 0
BITMAP
B800B800F8
B800B800F8
B800B800F8
B800B800F8
B800B800F8
B800B800F8
B800B800F8
B800B800F8
B800B800F8
B800B800F8
B800B800F8
B800B800F8
B800B800F8
B800B800F8
B800B800F8
B800B800F8
B800B800F8
B800F800F8
BFFFFFFFF8
BFFFFFFFF8
ENDCHAR
STARTCHAR uni0429
ENCODING 1065
SWIDTH 841 0
DWIDTH 24 0
BBX 21 25 2 -5
BITMAP
B800B800F800
B800B800F800
B800B800F800
B800B800F800
B800B800F800
B800B800F800
B800B800F800
B800B800F800
B800B800F800
B800B800F800
B800B800F800
B800B800F800
B800B800F800
B800B800F800
B800B800F800
B800B800F800
B800B800F800
B800F800F800
BFFFFFFFFF40
BFFFFFFFFF40
000000000F40
000000000F00
000000000F00
000000000F00
000000000F00
ENDCHAR
STARTCHAR uni042A
ENCODING 1066
SWIDTH 651 0
DWIDTH 18 0
BBX 17 20 0 0
BITMAP
7FFD000000
7FFD000000
003D000000
003D000000
003D000000
003D000000
003D000000
003D000000
003FFFE400
003FFFFE00
003E017F40
003D000F80
003D000BC0
003D0007C0
003D0007C0
003D000BC0
003D000F80
003E007F40
003FFFFD00
003FFFE400
ENDCHAR
STARTCHAR uni042B
ENCODING 1067
SWIDTH 755 0
DWIDTH 21 0
BBX 17 20 2 0
BITMAP
B800000B80
B800000B80
B800000B80
B800000B80
B800000B80
B800000B80
B800000B80
B800000B80
BFFF900B80
BFFFF80B80
B801BE0B80
B8002F0B80
B8001F4B80
B8000F4B80
B8000F4B80
B8001F4B80
B8002F0B80
B801BE0B80
BFFFF80B80
BFFF900B80
ENDCHAR
STARTCHAR uni042C
ENCODING 1068
SWIDTH 551 0
DWIDTH 15 0
BBX 13 20 2 0
BITMAP
F8000000
F8000000
F8000000
F8000000
F8000000
F8000000
F8000000
F8000000
FFFF9000
FFFFF800
F801BD00
F8003F00
F8001F40
F8001F40
F8001F40
F8001F00
F8003F00
F801BD00
FFFFF800
FFFF9000
ENDCHAR
STARTCHAR uni042D
ENCODING 1069
SWIDTH 589 0
DWIDTH 17 0
BBX 13 20 2 0
BITMAP
01BF8000
0BFFF400
2F95FD00
7D003E00
BC001F40
F8000F80
A4000B80
00000BC0
00000BC0
00FFFFC0
00FFFFC0
00000BC0
00000BC0
54000B80
F8000F80
BC001F40
7D003E00
2F95FD00
0BFFF400
01BF8000
ENDCHAR
STARTCHAR uni042E
ENCODING 1070
SWIDTH 765 0
DWIDTH 21 0
BBX 19 20 2 0
BITMAP
B8006FE400
B801FFFE00
B807F56F80
B80F8007D0
B81F4002F0
B82F0001F0
B83E0001F4
B83E0000F4
B83E0000F4
BFFE0000F4
BFFE0000F4
B83E0000F4
B83E0000F4
B83E0001F4
B82F0001F0
B81F4002F0
B80F8007D0
B807F56FC0
B801FFFF00
B8006FE400
ENDCHAR
STARTCHAR uni042F
ENCODING 1071
SWIDTH 562 0
DWIDTH 16 0
BBX 13 20 1 0
BITMAP
00BFFF40
07FFFF40
1FD41F40
2F401F40
3E001F40
3E001F40
3E001F40
3E001F40
2F001F40
0FD01F40
07FFFF40
00FFFF40
01F41F40
02E01F40
07D01F40
0BC01F40
0F401F40
2F001F40
3E001F40
7D001F40
ENDCHAR
STARTCHAR uni0430
ENCODING 1072
SWIDTH 479 0
DWIDTH 13 0
BBX 11 15 1 0
BITMAP
01BE40
0FFFE0
2F46F0
3D00F4
1400F4
0000F4
01BFF4
0FFAF4
3F40F4
7D00F4
7C00F4
7C01F4
3E5BF8
2FFEF8
07F8BC
ENDCHAR
STARTCHAR uni0431
ENCODING 1073
SWIDTH 484 0
DWIDTH 14 0
BBX 12 21 1 0
BITMAP
000078
0001F8
006FF0
02FF80
0BE400
1F4000
2D0000
3CBF80
7BFFE0
7F82F8
BE00BC
BC007D
BC003D
B8003E
BC003D
BC003D
7C007D
3E00BC
1F82F4
0BFFE0
01BE40
ENDCHAR
STARTCHAR uni0432
ENCODING 1074
SWIDTH 503 0
DWIDTH 14 0
BBX 11 15 2 0
BITMAP
FFFE40
FFFFD0
F407F0
F401F0
F401F0
F407E0
FFFF80
FFFFD0
F402F0
F400F4
F400B8
F400F8
F402F4
FFFFE0
FFFE40
ENDCHAR
STARTCHAR uni0433
ENCODING 1075
SWIDTH 371 0
DWIDTH 10 0
BBX 8 15 2 0
BITMAP
FFFF
FFFF
F400
F400
F400
F400
F400
F400
F400
F400
F400
F400
F400
F400
F400
ENDCHAR
STARTCHAR uni0434
ENCODING 1076
SWIDTH 536 0
DWIDTH 15 0
BBX 14 19 0 -4
BITMAP
00FFFF40
00FFFF40
00F95F40
00F40F40
00F40F40
00F40F40
00F40F40
01F00F40
01F00F40
02E00F40
03E00F40
07D00F40
0F800F40
7FFFFFF0
7FFFFFF0
7D0001F0
7D0001F0
7D0001F0
7D0001F0
ENDCHAR
STARTCHAR uni0435
ENCODING 1077
SWIDTH 468 0
DWIDTH 13 0
BBX 11 15 1 0
BITMAP
01BE40
0BFFE0
2F46F4
3D00F8
7C00B8
B8007C
BFFFFC
BFFFFC
B80000
BC0000
7C0000
7D0010
2F41B8
0FFFF4
02BF80
ENDCHAR
STARTCHAR uni0436
ENCODING 1078
SWIDTH 662 0
DWIDTH 19 0
BBX 18 15 0 0
BITMAP
3F00F40BD0
1F40F40F80
0BC0F42F40
07D0F43E00
02F0F47C00
00F4F4F800
007FFFF000
00BFFFF000
00F9F9F800
02F0F4BC00
03E0F43E00
0BC0F42F00
1F80F41F80
2F40F40BD0
7E00F407E0
ENDCHAR
STARTCHAR uni0437
ENCODING 1079
SWIDTH 446 0
DWIDTH 13 0
BBX 10 15 1 0
BITMAP
06FE00
1FFFC0
3E47E0
7C02F0
1402E0
0007D0
02FF80
02FF80
0007E0
0001F0
6401F0
BC02F0
7E07E0
2FFFC0
06FE00
ENDCHAR
STARTCHAR uni0438
ENCODING 1080
SWIDTH 509 0
DWIDTH 14 0
BBX 11 15 2 0
BITMAP
F401F4
F403F4
F407F4
F40FF4
F41EF4
F43DF4
F479F4
F4F1F4
F5E1F4
F7C1F4
FB81F4
FF01F4
FE01F4
FD01F4
F801F4
ENDCHAR
STARTCHAR uni0439
ENCODING 1081
SWIDTH 509 0
DWIDTH 14 0
BBX 11 20 2 0
BITMAP
280280
2D07C0
1FAF80
06F900
000000
F401F4
F403F4
F407F4
F40FF4
F41EF4
F43DF4
F479F4
F4F1F4
F5E1F4
F7C1F4
FB81F4
FF01F4
FE01F4
FD01F4
F801F4
ENDCHAR
STARTCHAR uni043A
ENCODING 1082
SWIDTH 479 0
DWIDTH 13 0
BBX 11 15 2 0
BITMAP
F402F4
F407D0
F40F80
F42F00
F47D00
F4F800
FFF000
FFF000
F9F800
F47D00
F42F00
F41F80
F40BD0
F403F0
F401F8
ENDCHAR
STARTCHAR uni043B
ENCODING 1083
SWIDTH 509 0
DWIDTH 14 0
BBX 13 15 0 0
BITMAP
01FFFF40
01FFFF40
01F01F40
02F01F40
02E01F40
02E01F40
02E01F40
02E01F40
02E01F40
03D01F40
03D01F40
07C01F40
1FC01F40
7F401F40
7D001F40
ENDCHAR
STARTCHAR uni043C
ENCODING 1084
SWIDTH 645 0
DWIDTH 18 0
BBX 14 15 2 0
BITMAP
FD0003F0
FE0007F0
FF000BF0
FF400FF0
FF802FF0
FBC03EF0
F6D07DF0
F5E0B9F0
F4F0F5F0
F4B5F1F0
F47AE1F0
F43FC1F0
F42F81F0
F41F41F0
F40F01F0
ENDCHAR
STARTCHAR uni043D
ENCODING 1085
SWIDTH 508 0
DWIDTH 14 0
BBX 11 15 2 0
BITMAP
F401F4
F401F4
F401F4
F401F4
F401F4
F401F4
FFFFF4
FFFFF4
F401F4
F401F4
F401F4
F401F4
F401F4
F401F4
F401F4
ENDCHAR
STARTCHAR uni043E
ENCODING 1086
SWIDTH 501 0
DWIDTH 14 0
BBX 12 15 1 0
BITMAP
01BE40
0BFFE0
2F82F8
3E00BC
7C003D
BC002E
B8002E
B8002E
B8002E
BC002E
7C003D
3E007C
2F81F8
0BFFE0
01BE40
ENDCHAR
STARTCHAR uni043F
ENCODING 1087
SWIDTH 509 0
DWIDTH 14 0
BBX 11 15 2 0
BITMAP
FFFFF4
FFFFF4
F801F4
F401F4
F401F4
F401F4
F401F4
F401F4
F401F4
F401F4
F401F4
F401F4
F401F4
F401F4
F401F4
ENDCHAR
STARTCHAR uni0440
ENCODING 1088
SWIDTH 493 0
DWIDTH 14 0
BBX 12 21 1 -6
BITMAP
7C7F80
7EFFF0
7F96F8
7D00BC
7D007D
7D003D
7D003D
7D003E
7D003D
7D003D
7D007D
7D00BC
7F41F8
7EFFF0
7D7F80
7D0000
7D0000
7D0000
7D0000
7D0000
7D0000
ENDCHAR
STARTCHAR uni0441
ENCODING 1089
SWIDTH 461 0
DWIDTH 13 0
BBX 11 15 1 0
BITMAP
02FE40
0FFFE0
2F46F4
7D00B8
7C007C
B80014
B80000
B80000
B80000
B80000
7C0078
7D00B8
2F42F4
0FFFE0
02FE40
ENDCHAR
STARTCHAR uni0442
ENCODING 1090
SWIDTH 424 0
DWIDTH 12 0
BBX 11 15 0 0
BITMAP
7FFFFC
7FFFFC
007C00
007C00
007C00
007C00
007C00
007C00
007C00
007C00
007C00
007C00
007C00
007C00
007C00
ENDCHAR
STARTCHAR uni0443
ENCODING 1091
SWIDTH 416 0
DWIDTH 12 0
BBX 11 21 0 -6
BITMAP
7D00BC
3E00B8
2E00F4
1F01F0
1F42F0
0F82E0
0B83D0
07C7C0
03DB80
02EB40
01EF00
00FF00
00FE00
00BD00
007C00
007800
00B400
00F000
16E000
2FC000
2E4000
ENDCHAR
STARTCHAR uni0444
ENCODING 1092
SWIDTH 628 0
DWIDTH 18 0
BBX 16 27 1 -6
BITMAP
000BC000
000BC000
000BC000
000BC000
000BC000
000BC000
02FFEF40
0FFFFFE0
2F4BC6F4
3E0BC0F8
7C0BC0BC
7C0BC07C
BC0BC07C
B80BC07D
B80BC07D
BC0BC07C
7C0BC07C
3D0BC0F8
2F4BC2F4
1FFFFFE0
06FFFF80
000BC000
000BC000
000BC000
000BC000
000BC000
000BC000
ENDCHAR
STARTCHAR uni0445
ENCODING 1093
SWIDTH 438 0
DWIDTH 12 0
BBX 11 15 1 0
BITMAP
F802F0
7D03E0
2E0BC0
1F4F80
0B9F00
07FD00
02FC00
01F800
02FC00
07FE00
0B9F00
1F0F80
3E07C0
7D03E0
F802F4
ENDCHAR
STARTCHAR uni0446
ENCODING 1094
SWIDTH 524 0
DWIDTH 15 0
BBX 12 19 2 -4
BITMAP
F401F4
F401F4
F401F4
F401F4
F401F4
F401F4
F401F4
F401F4
F401F4
F401F4
F401F4
F401F4
F401F4
FFFFFE
FFFFFE
00002E
00002E
00002E
00002E
ENDCHAR
STARTCHAR uni0447
ENCODING 1095
SWIDTH 479 0
DWIDTH 13 0
BBX 11 15 1 0
BITMAP
BC00F4
BC00F4
BC00F4
BC00F4
BC00F4
BC00F4
7D00F4
3E01F4
1FFFF4
06FEF4
0000F4
0000F4
0000F4
0000F4
0000F4
ENDCHAR
STARTCHAR uni0448
ENCODING 1096
SWIDTH 703 0
DWIDTH 20 0
BBX 16 15 2 0
BITMAP
F407C02E
F407C02E
F407C02E
F407C02E
F407C02E
F407C02E
F407C02E
F407C02E
F407C02E
F407C02E
F407C02E
F407C02E
F407C02E
FFFFFFFE
FFFFFFFE
ENDCHAR
STARTCHAR uni0449
ENCODING 1097
SWIDTH 722 0
DWIDTH 20 0
BBX 18 19 2 -4
BITMAP
F40BC03D00
F40BC03D00
F40BC03D00
F40BC03D00
F40BC03D00
F40BC03D00
F40BC03D00
F40BC03D00
F40BC03D00
F40BC03D00
F40BC03D00
F40BC03D00
F40BC03E00
FFFFFFFFD0
FFFFFFFFD0
00000003D0
00000003D0
00000003C0
00000003C0
ENDCHAR
STARTCHAR uni044A
ENCODING 1098
SWIDTH 538 0
DWIDTH 15 0
BBX 15 15 0 0
BITMAP
7FF80000
7FF80000
00B80000
00B80000
00B80000
00BFFE00
00BFFFD0
00B807E0
00B801F0
00B801F4
00B801F4
00B801F0
00B807E0
00BFFFC0
00BFFE00
ENDCHAR
STARTCHAR uni044B
ENCODING 1099
SWIDTH 679 0
DWIDTH 19 0
BBX 15 15 2 0
BITMAP
F40000B8
F40000B8
F40000B8
F40000B8
F40000B8
FFFE00B8
FFFFC0B8
F407E0B8
F402F0B8
F401F0B8
F401F0B8
F402F0B8
F407E0B8
FFFFC0B8
FFFE00B8
ENDCHAR
STARTCHAR uni044C
ENCODING 1100
SWIDTH 478 0
DWIDTH 13 0
BBX 10 15 2 0
BITMAP
F40000
F40000
F40000
F40000
F40000
FFFE00
FFFFC0
F407E0
F402F0
F401F0
F401F0
F402F0
F407E0
FFFFC0
FFFE00
ENDCHAR
STARTCHAR uni044D
ENCODING 1101
SWIDTH 472 0
DWIDTH 13 0
BBX 11 15 1 0
BITMAP
02F900
1FFF80
3E47D0
7C02F0
6400F4
0000F8
00FFF8
00FFF8
0000B8
1000F8
B801F4
7C02F0
3F47D0
1FFF80
06F900
ENDCHAR
STARTCHAR uni044E
ENCODING 1102
SWIDTH 706 0
DWIDTH 20 0
BBX 17 15 2 0
BITMAP
F4006F9000
F402FFF400
F40BD1BD00
F41F802E00
F42F001F00
F42E000F40
FFFE000F80
FFFE000F80
F42E000F80
F42E000F40
F41F001F40
F40F402E00
F407D0BD00
F402FFF400
F4006F9000
ENDCHAR
STARTCHAR uni044F
ENCODING 1103
SWIDTH 482 0
DWIDTH 14 0
BBX 11 15 1 0
BITMAP
06FFF4
2FFFF4
7E40F4
BC00F4
B800F4
BC00F4
7E00F4
2FFFF4
0BFFF4
0BC0F4
0F40F4
2F00F4
3D00F4
BC00F4
F400F4
ENDCHAR
STARTCHAR uni0450
ENCODING 1104
SWIDTH 468 0
DWIDTH 13 0
BBX 11 21 1 0
BITMAP
0FC000
07E000
01F400
007800
000000
000000
01BE40
0BFFE0
2F46F4
3D00F8
7C00B8
B8007C
BFFFFC
BFFFFC
B80000
BC0000
7C0000
7D0010
2F41B8
0FFFF4
02BF80
ENDCHAR
STARTCHAR uni0451
ENCODING 1105
SWIDTH 468 0
DWIDTH 13 0
BBX 11 20 1 0
BITMAP
1A01A0
2F42F4
1E01E0
000000
000000
01BE40
0BFFE0
2F46F4
3D00F8
7C00B8
B8007C
BFFFFC
BFFFFC
B80000
BC0000
7C0000
7D0010
2F41B8
0FFFF4
02BF80
ENDCHAR
STARTCHAR uni0452
ENCODING 1106
SWIDTH 482 0
DWIDTH 14 0
BBX 12 27 0 -6
BITMAP
1F4000
1F4000
FFFD00
FFFD00
1F4000
1F4000
1F5BE0
1FBFF8
1FE5BD
1F803E
1F402E
1F402E
1F402E
1F402E
1F402E
1F402E
1F402E
1F402E
1F402E
1F402E
1F402E
00002E
00002E
00002E
00007D
0007FC
0007E0
ENDCHAR
STARTCHAR uni0453
ENCODING 1107
SWIDTH 371 0
DWIDTH 10 0
BBX 8 21 2 0
BITMAP
00FC
02F4
07D0
0B40
0000
0000
FFFF
FFFF
F400
F400
F400
F400
F400
F400
F400
F400
F400
F400
F400
F400
F400
ENDCHAR
STARTCHAR uni0454
ENCODING 1108
SWIDTH 472 0
DWIDTH 13 0
BBX 11 15 1 0
BITMAP
01BE40
0BFFE0
1F86F4
3E00B8
7C007C
7C0014
BFFC00
BFFC00
BC0000
7C0000
7D0068
3E00B8
1F82F4
0BFFE0
01BE40
ENDCHAR
STARTCHAR uni0455
ENCODING 1109
SWIDTH 455 0
DWIDTH 13 0
BBX 11 15 1 0
BITMAP
02FE00
1FFFD0
3F47F0
3D01F0
3D0050
3F4000
1FE400
06FF40
006FE0
0002F0
6400F4
7C00F4
3E46F0
1FFFD0
06FE40
ENDCHAR
STARTCHAR uni0456
ENCODING 1110
SWIDTH 229 0
DWIDTH 6 0
BBX 3 20 2 0
BITMAP
B4
F8
B4
00
00
F4
F4
F4
F4
F4
F4
F4
F4
F4
F4
F4
F4
F4
F4
F4
ENDCHAR
STARTCHAR uni0457
ENCODING 1111
SWIDTH 234 0
DWIDTH 7 0
BBX 9 20 -1 0
BITMAP
B40A40
F81F80
B40B40
000000
000000
03D000
03D000
03D000
03D000
03D000
03D000
03D000
03D000
03D000
03D000
03D000
03D000
03D000
03D000
03D000
ENDCHAR
STARTCHAR uni0458
ENCODING 1112
SWIDTH 223 0
DWIDTH 6 0
BBX 6 26 -1 -6
BITMAP
0280
07D0
03C0
0000
0000
03D0
03D0
03D0
03D0
03D0
03D0
03D0
03D0
03D0
03D0
03D0
03D0
03D0
03D0
03D0
03D0
03D0
07D0
1BC0
7F80
7E00
ENDCHAR
STARTCHAR uni0459
ENCODING 1113
SWIDTH 729 0
DWIDTH 20 0
BBX 20 15 0 0
BITMAP
01FFFE0000
01FFFE0000
02F02E0000
02E02E0000
02E02E0000
02E02E0000
02E02FFF90
02E02FFFF4
02E02E01BC
03D02E007D
03D02E003D
07C02E007D
1F802E01BC
7F402FFFF4
7D002FFF90
ENDCHAR
STARTCHAR uni045A
ENCODING 1114
SWIDTH 743 0
DWIDTH 21 0
BBX 18 15 2 0
BITMAP
F401F40000
F401F40000
F401F40000
F401F40000
F401F40000
F401F40000
FFFFFFF900
FFFFFFFF80
F401F41BD0
F401F402E0
F401F402F0
F401F402E0
F401F407D0
F401FFFF80
F401FFFE00
ENDCHAR
STARTCHAR uni045B
ENCODING 1115
SWIDTH 499 0
DWIDTH 14 0
BBX 12 21 0 0
BITMAP
1F4000
1F4000
BFFE00
BFFE00
1F4000
1F4000
1F5BE0
1FBFF8
1FE5BD
1F803E
1F402E
1F402E
1F402E
1F402E
1F402E
1F402E
1F402E
1F402E
1F402E
1F402E
1F402E
ENDCHAR
STARTCHAR uni045C
ENCODING 1116
SWIDTH 479 0
DWIDTH 13 0
BBX 11 21 2 0
BITMAP
002F40
007D00
01F800
01E000
000000
000000
F402F4
F407D0
F40F80
F42F00
F47D00
F4F800
FFF000
FFF000
F9F800
F47D00
F42F00
F41F80
F40BD0
F403F0
F401F8
ENDCHAR
STARTCHAR uni045D
ENCODING 1117
SWIDTH 509 0
DWIDTH 14 0
BBX 11 21 2 0
BITMAP
2F4000
0BC000
03E000
00E400
000000
000000
F401F4
F403F4
F407F4
F40FF4
F41EF4
F43DF4
F479F4
F4F1F4
F5E1F4
F7C1F4
FB81F4
FF01F4
FE01F4
FD01F4
F801F4
ENDCHAR
STARTCHAR uni045E
ENCODING 1118
SWIDTH 416 0
DWIDTH 12 0
BBX 11 26 0 -6
BITMAP
0A00A0
0B41F0
07EBD0
01BE40
000000
7D00BC
3E00B8
2E00F4
1F01F0
1F42F0
0F82E0
0B83D0
07C7C0
03DB80
02EB40
01EF00
00FF00
00FE00
00BD00
007C00
007800
00B400
00F000
16E000
2FC000
2E4000
ENDCHAR
STARTCHAR uni045F
ENCODING 1119
SWIDTH 509 0
DWIDTH 14 0
BBX 11 20 2 -5
BITMAP
F401F4
F401F4
F401F4
F401F4
F401F4
F401F4
F401F4
F401F4
F401F4
F401F4
F401F4
F401F4
F401F4
FFFFF4
FFFFF4
00F400
00F400
00F400
00F400
00F400
ENDCHAR
STARTCHAR uni0460
ENCODING 1120
SWIDTH 754 0
DWIDTH 21 0
BBX 18 20 2 0
BITMAP
F802F007D0
F802F007D0
F802F007D0
F802F007D0
F802F007D0
F802F007D0
F802F007D0
F802F007D0
F802F007D0
F802F007D0
F802F007D0
F802F007D0
F802F007D0
F802F007D0
F802F007D0
F802F007D0
BC07F40BC0
7E5FFD6F80
2FFF2FFF00
07F80BF800
ENDCHAR
STARTCHAR uni0461
ENCODING 1121
SWIDTH 650 0
DWIDTH 18 0
BBX 16 15 1 0
BITMAP
7C03D02E
7C03D02E
7C03D02E
7C03D02E
7C03D02E
7C03D02E
7C03D02E
7C03D02E
7C03D02E
7C03D02E
7C03D02E
7D07E03E
3E1FF4BD
1FFFBFF8
06F81FD0
ENDCHAR
STARTCHAR uni0462
ENCODING 1122
SWIDTH 551 0
DWIDTH 15 0
BBX 16 20 -1 0
BITMAP
03E00000
03E00000
03E00000
7FFF0000
7FFF0000
03E00000
03E00000
03E00000
03FFFE40
03FFFFE0
03E006F4
03E000FC
03E0007D
03E0007D
03E0007D
03E0007C
03E000FC
03E006F4
03FFFFE0
03FFFE40
ENDCHAR
STARTCHAR uni0463
ENCODING 1123
SWIDTH 477 0
DWIDTH 13 0
BBX 13 21 -1 0
BITMAP
03D00000
03D00000
03D00000
03D00000
7FFFC000
7FFFC000
03D00000
03D00000
03D00000
03D00000
03D00000
03FFF800
03FFFF00
03D01F80
03D00BC0
03D007C0
03D007C0
03D00BC0
03D01F80
03FFFE00
03FFF800
ENDCHAR
STARTCHAR uni0464
ENCODING 1124
SWIDTH 772 0
DWIDTH 22 0
BBX 18 20 2 0
BITMAP
B8002FE400
B801FFFE00
B807F56F80
B80F800BC0
B81F4003D0
B82F0003E0
B83E000190
B83D000000
B83D000000
BFFFFFE000
BFFFFFE000
B87D000000
B83D000000
B83E000150
B82E0003E0
B82F0003D0
B80F800BC0
B807E46F80
B802FFFE00
B8006FE400
ENDCHAR
STARTCHAR uni0465
ENCODING 1125
SWIDTH 646 0
DWIDTH 18 0
BBX 15 15 2 0
BITMAP
F401BE40
F40BFFD0
F42F46F4
F43D00F8
F47C007C
F4BC0014
FFFFFE00
FFFFFE00
F4B80000
F47C0000
F47C0068
F43E00B8
F41F46F4
F40BFFD0
F401BE40
ENDCHAR
STARTCHAR uni0466
ENCODING 1126
SWIDTH 526 0
DWIDTH 15 0
BBX 14 20 1 0
BITMAP
001F0000
002F4000
003F8000
007FC000
00BFD000
00F7E000
01F6E000
02F1F000
02E0F400
03D0B800
07C0BC00
0B807D00
0FFFFE00
1FFFFF00
2F6F6F40
3E2F0F40
7D2F0B80
BC2F0BC0
B82F07D0
F42F03E0
ENDCHAR
STARTCHAR uni0467
ENCODING 1127
SWIDTH 470 0
DWIDTH 13 0
BBX 13 15 0 0
BITMAP
002E0000
003F0000
007F4000
00BF8000
00FBC000
01F3D000
02E2E000
03D1F000
07C0F400
0BFFF800
0FFFFC00
1F2E3D00
2E2E2E00
3D2E1F00
7C2E0F40
ENDCHAR
STARTCHAR uni0468
ENCODING 1128
SWIDTH 759 0
DWIDTH 21 0
BBX 19 20 2 0
BITMAP
BC0007C000
BC000BD000
BC000FE000
BC001FF000
BC002FF400
BC002EB800
BC003DBC00
BC007C7D00
BC00B83D00
BC00F42E00
BC01F01F00
BC02F00F40
BFFFFFFF80
BFFFFFFFC0
BD5BDBD7D0
BC0B87C3E0
BC0F47C2F0
BC1F07C1F0
BC2E07C0F4
BC3E07C0F8
ENDCHAR
STARTCHAR uni0469
ENCODING 1129
SWIDTH 654 0
DWIDTH 18 0
BBX 16 15 2 0
BITMAP
B800B800
B800FC00
B801FD00
B802FE00
B803EF00
B807CF40
B80B8BC0
B80F47D0
B81F03E0
BFFFFFF0
BFFFFFF4
B87DBCF8
B8B8BCBC
B8F4BC7D
B9F0BC3E
ENDCHAR
STARTCHAR uni046A
ENCODING 1130
SWIDTH 747 0
DWIDTH 21 0
BBX 17 20 2 0
BITMAP
1FFFFFFD00
0BFFFFFC00
07E002F400
02F003F000
01F807D000
00BC0FC000
007D1F4000
002F2F0000
001FBD0000
06FFFFE400
2FFFFFFE00
7E52F16F40
BC02E00F80
F802E00BC0
F402E00BC0
F402E00BC0
F402E00BC0
F402E00BC0
F402E00BC0
F402E00BC0
ENDCHAR
STARTCHAR uni046B
ENCODING 1131
SWIDTH 645 0
DWIDTH 18 0
BBX 14 15 2 0
BITMAP
1FFFFF40
0BFFFF00
07D07E00
02E0BC00
01F4F800
00F9F000
007EE000
06FFFE00
2FFFFF80
7E5F4BD0
B80F42F0
F40F41F0
F40F41F0
F40F41F0
F40F41F0
ENDCHAR
STARTCHAR uni046C
ENCODING 1132
SWIDTH 980 0
DWIDTH 27 0
BBX 24 20 2 0
BITMAP
B800BFFFFFF0
B8007FFFFFD0
B8002F401FC0
B8001F801F40
B8000BC03F00
B80007E07D00
B80002F0BC00
B80001F5F400
B80000BEF000
BFFFFFFFFE80
BFFFFFFFFFF4
B803F95F96F8
B807D01F407D
B807C01F403D
B80BC01F403E
B80BC01F403E
B80BC01F403E
B80BC01F403E
B80BC01F403E
B80BC01F403E
ENDCHAR
STARTCHAR uni046D
ENCODING 1133
SWIDTH 856 0
DWIDTH 24 0
BBX 20 15 2 0
BITMAP
F401FFFFF4
F400FFFFF0
F4007D07D0
F4003E0BC0
F4001F0F40
F4000F9F00
F4000BFE00
FFFFFFFF90
FFFFFFFFF8
F40BD1F5BD
F40F81F42E
F40F41F42F
F40F41F41F
F40F41F41F
F40F41F41F
ENDCHAR
STARTCHAR uni046E
ENCODING 1134
SWIDTH 454 0
DWIDTH 13 0
BBX 10 32 1 -6
BITMAP
0F0780
078F00
01FD00
00B400
000000
000000
7FF800
7FFF00
001F80
0007D0
0003E0
0002E0
0003D0
0007D0
001F80
0BFE00
0BFE00
001FC0
0003D0
0002E0
0002F0
0002E0
0003E0
001BC0
1FFF40
7FF900
B80000
F40000
B80000
7D0000
2F0000
090000
ENDCHAR
STARTCHAR uni046F
ENCODING 1135
SWIDTH 423 0
DWIDTH 12 0
BBX 10 28 1 -6
BITMAP
2D0F00
0F2D00
07F400
01E000
000000
000000
000000
7FF800
7FFF40
001FC0
0007D0
0007C0
001F80
0BFE00
0BFE00
001FC0
0003D0
0003D0
0003D0
001BC0
1BFF40
7FF900
B80000
F40000
B80000
7D0000
2F0000
090000
ENDCHAR
STARTCHAR uni0470
ENCODING 1136
SWIDTH 600 0
DWIDTH 17 0
BBX 15 20 1 0
BITMAP
F80F40F4
F80F40F4
F80F40F4
F80F40F4
F80F40F4
F80F40F4
F80F40F4
F80F40F4
B80F41F4
BC0F41F4
7D0F42F0
3E0F47E0
1F9F5FC0
0BFFFF40
01FFF800
001F8000
000F4000
000F4000
000F4000
000F4000
ENDCHAR
STARTCHAR uni0471
ENCODING 1137
SWIDTH 612 0
DWIDTH 17 0
BBX 15 21 1 -6
BITMAP
B80B82F0
B80B81F4
B80B80F4
B80B80F8
B80B80B8
B80B80BC
B80B807C
B80B807C
B80B80BC
7C0B80B8
7D0B81F4
2F0B83F0
1FDB9FD0
07FFFF40
00BFF800
000B8000
000B8000
000B8000
000B8000
000B8000
000B8000
ENDCHAR
STARTCHAR uni0472
ENCODING 1138
SWIDTH 593 0
DWIDTH 17 0
BBX 14 20 1 0
BITMAP
006FE000
02FFFD00
0BE5BF00
1F800F80
2E0007C0
3D0003D0
7C0002E0
7C0002F0
BC0002F0
BFFFFFF0
BFFFFFF0
BC0002F0
7C0002F0
7D0002E0
3D0003D0
2F0007C0
1F800F80
0BE57F00
02FFFD00
006FE000
ENDCHAR
STARTCHAR uni0473
ENCODING 1139
SWIDTH 497 0
DWIDTH 14 0
BBX 12 15 1 0
BITMAP
01BE40
0BFFE0
1F82F4
3E00BC
7C003D
BC003E
BFFFFE
BFFFFE
B8002E
BC003E
7D007D
3E00BC
1F82F4
0BFFE0
01BE40
ENDCHAR
STARTCHAR uni0474
ENCODING 1140
SWIDTH 553 0
DWIDTH 15 0
BBX 15 20 0 0
BITMAP
7D000078
3E0001F8
2F0003E4
1F0007D0
1F400BC0
0F800B80
0BC00F40
07C01F00
03D02E00
02E02E00
01F03D00
00F47C00
00B4B800
00B8B400
007CF000
003DE000
002FE000
001FD000
000FC000
000B8000
ENDCHAR
STARTCHAR uni0475
ENCODING 1141
SWIDTH 443 0
DWIDTH 12 0
BBX 11 15 1 0
BITMAP
F4007C
B801FC
7C02F4
7C03D0
3D07C0
2E0B80
1F0B80
0F0F40
0B5F00
079E00
03ED00
03FC00
02F800
01F400
00F000
ENDCHAR
STARTCHAR uni0476
ENCODING 1142
SWIDTH 553 0
DWIDTH 15 0
BBX 15 24 0 0
BITMAP
1F9F4000
07DBC000
01F7E000
00B9E000
7D000078
3E0001F8
2F0003E4
1F0007D0
1F400BC0
0F800B80
0BC00F40
07C01F00
03D02E00
02E02E00
01F03D00
00F47C00
00B4B800
00B8B400
007CF000
003DE000
002FE000
001FD000
000FC000
000B8000
ENDCHAR
STARTCHAR uni0477
ENCODING 1143
SWIDTH 443 0
DWIDTH 12 0
BBX 12 21 0 0
BITMAP
7D7C00
2F6E00
0BDF40
029740
000000
000000
3D001F
2E007F
1F00BD
1F00F4
0F41F0
0B82E0
07C2E0
03C3D0
02D7C0
01E780
00FB40
00FF00
00BE00
007D00
003C00
ENDCHAR
STARTCHAR uni0478
ENCODING 1144
SWIDTH 1017 0
DWIDTH 28 0
BBX 27 26 1 -6
BITMAP
006FE400000000
02FFFE00000000
0BE56F80000000
1F800BC0000000
2F0003E0000000
3E0002E0BC00B8
7D0002F07D00F4
7D0001F03E01F4
7D0001F02E02F0
7D0001F01F02E0
7D0001F00F43D0
7D0001F00B87C0
7D0001F00B8780
7D0002F007CB80
3E0002E003DF40
2F0003E002EF00
1F800BC001FE00
0BE56F8000FD00
02FFFE0000BC00
006FE400007800
0000000000B800
0000000000F400
0000000001F000
0000000017E000
000000003FC000
000000003E0000
ENDCHAR
STARTCHAR uni0479
ENCODING 1145
SWIDTH 918 0
DWIDTH 26 0
BBX 24 21 1 -6
BITMAP
01BE401F402F
0BFFE00F802E
2F82F80B803D
3E00BC07C07D
7C003D03D0BC
BC002E03E0B8
B8002E02E0F4
B8002E01F1F0
B8002E00F5E0
BC002E00BAD0
7C003D007FD0
3E007C003FC0
2F81F8002F80
0BFFE0002F40
01BE40001F00
000000001E00
000000002E00
000000003D00
00000005B800
0000000BF400
0000000B9000
ENDCHAR
STARTCHAR uni047A
ENCODING 1146
SWIDTH 593 0
DWIDTH 17 0
BBX 14 24 1 -2
BITMAP
000A4000
000F8000
006FE000
02FFFD00
0BEFBF00
1F4A4F80
2E0007D0
3D0003E0
7C0002E0
7C0002F0
BC0002F0
BC0001F0
BC0001F0
BC0002F0
7C0002F0
7C0002E0
3D0003E0
2E0007D0
1F4A4F80
0BEFBF40
02FFFD00
007FE400
000F8000
000A4000
ENDCHAR
STARTCHAR uni047B
ENCODING 1147
SWIDTH 498 0
DWIDTH 14 0
BBX 12 19 1 -2
BITMAP
002800
007D00
01FF40
0BFFE0
1FBEF4
3E14BC
7D003D
BC003E
B8002E
B8002E
B8002E
BC003E
7D003D
3E28BC
1FBEF4
0BFFE0
01FF40
007D00
001400
ENDCHAR
STARTCHAR uni047C
ENCODING 1148
SWIDTH 752 0
DWIDTH 21 0
BBX 18 26 2 0
BITMAP
0006800000
002FF80000
00386FA000
003806E000
0000F00000
0000F00000
0681E07800
2F8180BE00
7E40002F40
BC00000BC0
F8000007C0
F8000007C0
F8000007D0
F8000007D0
F8015007D0
F802F007D0
F802F007D0
F802F007D0
F802F007D0
F802F007D0
F802F007C0
F802F007C0
BC07F40BC0
7E5FFD6F40
2FFF6FFE00
06F80BF800
ENDCHAR
STARTCHAR uni047D
ENCODING 1149
SWIDTH 654 0
DWIDTH 18 0
BBX 16 21 1 0
BITMAP
000A8000
002FF800
00386F90
003806E0
0000F000
0000F000
0681E1E0
1F8181F8
2F0000BD
3D00003E
7C00002E
7C00002E
7C01402E
7C03D02E
7C03D02E
7C03D02E
7C03D02E
3D07E03E
2F5FF4BD
1FFFBFF8
06F81FE0
ENDCHAR
STARTCHAR uni047E
ENCODING 1150
SWIDTH 754 0
DWIDTH 21 0
BBX 18 25 2 0
BITMAP
0055555000
00FFFFD000
0001E00000
0001E00000
0000000000
F802F007D0
F802F007D0
F802F007D0
F802F007D0
F802F007D0
F802F007D0
F802F007D0
F802F007D0
F802F007D0
F802F007D0
F802F007D0
F802F007D0
F802F007D0
F802F007D0
F802F007D0
F802F007D0
BC07F40BC0
7E5FFD6F80
2FFF6FFF00
07F80BF800
ENDCHAR
STARTCHAR uni047F
ENCODING 1151
SWIDTH 650 0
DWIDTH 18 0
BBX 16 21 1 0
BITMAP
01555540
02FFFFC0
0003D000
0003D000
00000000
00000000
7C03D02E
7C03D02E
7C03D02E
7C03D02E
7C03D02E
7C03D02E
7C03D02E
7C03D02E
7C03D02E
7C03D02E
7C03D02E
7D07E03E
3E1FF4BD
1FFFBFF8
06F81FD0
ENDCHAR
STARTCHAR uni0480
ENCODING 1152
SWIDTH 570 0
DWIDTH 16 0
BBX 14 25 1 -5
BITMAP
006FE000
02FFFD00
0BE57F00
1F401F80
2F000BC0
3D0007D0
7D000680
7C000000
7C000000
7C000000
7C000000
7C000000
7C000000
7D000000
3D000000
2E000000
1F400000
0BD00000
02FF4000
007F4000
000F4000
000F4000
000F4000
000F4000
000F4000
ENDCHAR
STARTCHAR uni0481
ENCODING 1153
SWIDTH 472 0
DWIDTH 13 0
BBX 11 20 1 -5
BITMAP
01BE40
0BFFD0
1F86F0
3E00F4
7D00B8
7C0054
B80000
B80000
BC0000
7C0000
7D0000
3E0000
1F4000
0BFC00
02FC00
007C00
007C00
007C00
007C00
007C00
ENDCHAR
STARTCHAR uni0482
ENCODING 1154
SWIDTH 547 0
DWIDTH 15 0
BBX 13 18 1 0
BITMAP
00001E00
00002D00
00907800
00F8B400
007EF000
000BE000
0007F800
000BAF40
000F0740
382D0000
7E7C0000
0BF80000
01F80000
02FF4000
03C7D000
0B808000
0F000000
2E000000
ENDCHAR
STARTCHAR uni0483
ENCODING 1155
SWIDTH 0 0
DWIDTH 0 0
BBX 9 5 -11 16
BITMAP
0007C0
555BC0
BFFFC0
B80000
640000
ENDCHAR
STARTCHAR uni0484
ENCODING 1156
SWIDTH 0 0
DWIDTH 0 0
BBX 10 4 -11 18
BITMAP
001A40
01FFC0
6FD1D0
7E00E0
ENDCHAR
STARTCHAR uni0485
ENCODING 1157
SWIDTH 0 0
DWIDTH 0 0
BBX 3 4 -8 18
BITMAP
78
78
2C
08
ENDCHAR
STARTCHAR uni0486
ENCODING 1158
SWIDTH 0 0
DWIDTH 0 0
BBX 4 4 -7 18
BITMAP
3D
3C
74
60
ENDCHAR
STARTCHAR uni0488
ENCODING 1160
SWIDTH 0 0
DWIDTH 0 0
BBX 27 25 -21 -5
BITMAP
000001B9000000
0000039B000000
00000602400000
00000000000000
01BD000001BD00
039B4000039B40
02424000024240
00000000000000
00000000000000
00000000000000
00000000000000
1F800000000BE0
75B00000001D78
60600000001418
00000000000000
00000000000000
00000000000000
00000000000000
01B9000001F900
039B0000079B00
06024000060200
00000000000000
000001BD000000
0000039B400000
00000202400000
ENDCHAR
STARTCHAR uni0489
ENCODING 1161
SWIDTH 0 0
DWIDTH 0 0
BBX 26 26 -21 -6
BITMAP
00000028000000
00000034000000
00000074000000
006000B0000000
007400A0002800
003C000002F400
001E00000B9000
000E0000010000
00040000000000
00000000000000
00000000000000
69400000002900
6FD00000002FD0
019000000006B0
00000000000000
00000000000000
00000000000000
00000000000000
00050000034000
001F400003C000
00BD000001D000
0190006800B000
00000074002000
000000B0000000
000000E0000000
000000D0000000
ENDCHAR
STARTCHAR uni048A
ENCODING 1162
SWIDTH 666 0
DWIDTH 19 0
BBX 16 30 2 -5
BITMAP
01901900
02E03D00
00FAF800
002FD000
00000000
B8000BC0
B8001FC0
B8002FC0
B8007FC0
B800BFC0
B801FBC0
B802E7C0
B807C7C0
B80B87C0
B81F07C0
B82E07C0
B87C07C0
B8B807C0
B9F007C0
BAE007C0
BFC007C0
BF8007C0
BF0007C0
BE0007FE
BC0007FE
0000003E
0000003D
0000007C
000000F4
00000060
ENDCHAR
STARTCHAR uni048B
ENCODING 1163
SWIDTH 550 0
DWIDTH 15 0
BBX 13 25 2 -5
BITMAP
1900A000
0F02E000
0BEBD000
01BE4000
00000000
F401F400
F403F400
F407F400
F40FF400
F41EF400
F43DF400
F479F400
F4F1F400
F5E1F400
F7C1F400
FB81F400
FF01F400
FE01F400
FD01FF80
F801FF80
00000B80
00000F80
00001F40
00002E00
00001800
ENDCHAR
STARTCHAR uni048C
ENCODING 1164
SWIDTH 551 0
DWIDTH 15 0
BBX 16 20 -1 0
BITMAP
03E00000
03E00000
03E00000
7FFF0000
7FFF0000
03E00000
03E00000
03E00000
03FFFE40
03FFFFE0
03E006F4
03E000FC
03E0007D
03E0007D
03E0007D
03E0007C
03E000FC
03E006F4
03FFFFE0
03FFFE40
ENDCHAR
STARTCHAR uni048D
ENCODING 1165
SWIDTH 477 0
DWIDTH 13 0
BBX 13 23 -1 0
BITMAP
02900000
03D00000
03D00000
7FFFC000
7FFFC000
03D00000
03D00000
03D00000
03D00000
03D00000
03D00000
03D00000
03D00000
03FFF800
03FFFF00
03D01F80
03D00BC0
03D007C0
03D007C0
03D00BC0
03D01F80
03FFFE00
03FFF800
ENDCHAR
STARTCHAR uni048E
ENCODING 1166
SWIDTH 557 0
DWIDTH 16 0
BBX 13 20 2 0
BITMAP
FFFF9000
FFFFF800
F801BD00
F8002F00
F8001F40
F8000F40
F8004F40
F801DF40
F802FF00
F800FE00
FFFFFE00
FFFFEF40
F8000740
F8000100
F8000000
F8000000
F8000000
F8000000
F8000000
F8000000
ENDCHAR
STARTCHAR uni048F
ENCODING 1167
SWIDTH 496 0
DWIDTH 14 0
BBX 12 21 1 -6
BITMAP
7C7F80
7EFFE0
7F96F4
7E00BC
7D007D
7D003D
7D003D
7D003D
7D003D
7D013D
7D07BD
7D07FC
7F46F4
7FFFF8
7DBFBD
7D0008
7D0000
7D0000
7D0000
7D0000
7D0000
ENDCHAR
STARTCHAR uni0490
ENCODING 1168
SWIDTH 479 0
DWIDTH 13 0
BBX 11 25 2 0
BITMAP
0000A4
0000F4
0000F4
0000F4
0000F4
FFFFF4
FFFFF4
F80000
F80000
F80000
F80000
F80000
F80000
F80000
F80000
F80000
F80000
F80000
F80000
F80000
F80000
F80000
F80000
F80000
F80000
ENDCHAR
STARTCHAR uni0491
ENCODING 1169
SWIDTH 395 0
DWIDTH 11 0
BBX 8 20 2 0
BITMAP
0005
002F
002F
002F
002F
FFFF
FFFF
F400
F400
F400
F400
F400
F400
F400
F400
F400
F400
F400
F400
F400
ENDCHAR
STARTCHAR uni0492
ENCODING 1170
SWIDTH 487 0
DWIDTH 14 0
BBX 13 20 0 0
BITMAP
0BFFFF80
0BFFFF80
0B800000
0B800000
0B800000
0B800000
0B800000
0B800000
0B800000
FFFE0000
FFFE0000
0B800000
0B800000
0B800000
0B800000
0B800000
0B800000
0B800000
0B800000
0B800000
ENDCHAR
STARTCHAR uni0493
ENCODING 1171
SWIDTH 371 0
DWIDTH 10 0
BBX 10 15 0 0
BITMAP
0FFFF0
0FFFF0
0F4000
0F4000
0F4000
0F4000
BFFE00
BFFE00
0F4000
0F4000
0F4000
0F4000
0F4000
0F4000
0F4000
ENDCHAR
STARTCHAR uni0494
ENCODING 1172
SWIDTH 539 0
DWIDTH 15 0
BBX 12 24 2 -4
BITMAP
BFFFF8
BFFFF8
B80000
B80000
B80000
B80000
B80000
B80000
B80000
BFFA00
BFFFD0
B95BF4
B800F8
B8007D
B8003D
B8003E
B8002E
B8002E
B8003E
B8003D
00007C
0001F8
000FE0
000B40
ENDCHAR
STARTCHAR uni0495
ENCODING 1173
SWIDTH 443 0
DWIDTH 12 0
BBX 10 19 2 -4
BITMAP
FFFE00
FFFE00
F40000
F40000
F40000
F40000
FFE400
FFFD00
F57F40
F40F80
F407C0
F407D0
F403D0
F403D0
F407C0
000B80
002F40
00BD00
006400
ENDCHAR
STARTCHAR uni0496
ENCODING 1174
SWIDTH 833 0
DWIDTH 23 0
BBX 22 25 1 -5
BITMAP
BD003D003F00
7E003D007E00
2F003D00BC00
0F803D01F400
0BC03D02F000
03E03D03D000
02F03D0BC000
00F43D0F4000
00BC3D2F0000
003FFFFD0000
007FFFFE0000
00FD7E6F4000
01F43D0F8000
03F03D0BD000
07D03D03E000
0FC03D02F400
2F403D00FC00
3F003D00BD00
BD003D003FE0
FC003D002FE0
0000000002E0
0000000002E0
0000000002E0
0000000002E0
0000000002E0
ENDCHAR
STARTCHAR uni0497
ENCODING 1175
SWIDTH 696 0
DWIDTH 20 0
BBX 19 20 0 -5
BITMAP
3F00F40BD0
1F40F40F80
0BC0F42F40
07D0F43E00
02F0F47C00
00F4F4F800
007FFFF000
00BFFFF000
00F9F9F800
02F0F4BC00
03E0F43E00
0BC0F42F00
1F80F41F80
2F40F40BF8
7E00F407F8
00000000B8
00000000B8
00000000B8
00000000B8
00000000B8
ENDCHAR
STARTCHAR uni0498
ENCODING 1176
SWIDTH 517 0
DWIDTH 15 0
BBX 13 26 1 -6
BITMAP
01BF9000
0BFFF400
2F95FD00
7E007E00
BC002F00
54002F00
00002F00
00003E00
0001BC00
00BFF400
00BFF400
0005BD00
00002F00
00001F00
A4001F40
BC001F40
7D002F00
3F95FD00
1FFFF800
01BF9000
003D0000
003D0000
003D0000
003D0000
003D0000
003D0000
ENDCHAR
STARTCHAR uni0499
ENCODING 1177
SWIDTH 446 0
DWIDTH 13 0
BBX 10 21 1 -6
BITMAP
06FE00
1FFFC0
3E47E0
7C02F0
1402E0
0007D0
02FF80
02FF80
0007E0
0001F0
6401F0
BC02F0
7E07E0
2FFFC0
06FE00
00F400
00F400
00F400
00F400
00F400
00F400
ENDCHAR
STARTCHAR uni049A
ENCODING 1178
SWIDTH 617 0
DWIDTH 17 0
BBX 14 25 2 -5
BITMAP
B8001F80
B8007F00
B800BD00
B802F800
B807E000
B80FC000
B82F4000
B87E0000
BFFC0000
BFFC0000
B97E0000
B82F4000
B80FC000
B807E000
B802F000
B801F800
B800BD00
B8003F00
B8001FF0
B8000FF0
000001F0
000001F0
000001F0
000001F0
000001F0
ENDCHAR
STARTCHAR uni049B
ENCODING 1179
SWIDTH 524 0
DWIDTH 15 0
BBX 12 20 2 -5
BITMAP
F402F4
F407D0
F40F80
F42F00
F47D00
F4F800
FFF000
FFF000
F9F800
F47D00
F42F00
F41F80
F40BD0
F403FF
F401FF
00002F
00002F
00002F
00002F
00002F
ENDCHAR
STARTCHAR uni049C
ENCODING 1180
SWIDTH 553 0
DWIDTH 15 0
BBX 13 20 2 0
BITMAP
F8001F40
F8002F00
F8007E00
F800BC00
F800F800
F991F000
F9E2E000
F9E3C000
F9E78000
FFFF4000
FFFF8000
FAEBC000
F9E3E000
F9E2F000
F991F800
F800FC00
F8007D00
F8003F00
F8002F40
F8001FC0
ENDCHAR
STARTCHAR uni049D
ENCODING 1181
SWIDTH 498 0
DWIDTH 14 0
BBX 12 15 2 0
BITMAP
F400BC
F401F8
F402F0
F6D3D0
F6DB80
F6DF40
FFFE00
FFFF00
FAEF40
F6DBC0
F6D7D0
F402F0
F401F4
F400FC
F4007E
ENDCHAR
STARTCHAR uni049E
ENCODING 1182
SWIDTH 570 0
DWIDTH 16 0
BBX 16 20 0 0
BITMAP
07C000FC
07C002F4
07C007E0
BFFE0FC0
BFFE2F40
07C07E00
07C0FC00
07C1F400
07C3E000
07FFD000
07FFD000
07D7F000
07C1F800
07C0BD00
07C03F00
07C01F80
07C00BD0
07C003F0
07C001F8
07C000BD
ENDCHAR
STARTCHAR uni049F
ENCODING 1183
SWIDTH 462 0
DWIDTH 13 0
BBX 14 21 -1 0
BITMAP
03E00000
03E00000
BFFE0000
BFFE0000
03E00000
03E00000
03E00F80
03E02F40
03E03E00
03E0BC00
03E0F400
03E2E000
03FFD000
03FFD000
03E2F000
03E1F400
03E0BC00
03E03E00
03E01F40
03E00FC0
03E007D0
ENDCHAR
STARTCHAR uni04A0
ENCODING 1184
SWIDTH 710 0
DWIDTH 20 0
BBX 19 20 1 0
BITMAP
FFFF0007E0
FFFF000FD0
002F002F80
002F003F00
002F00BD00
002F01F800
002F03F000
002F0BD000
002F1F8000
002FFF0000
002FFF4000
002F5FC000
002F07E000
002F02F400
002F00FC00
002F007E00
002F002F40
002F000FC0
002F0007E0
002F0002F4
ENDCHAR
STARTCHAR uni04A1
ENCODING 1185
SWIDTH 607 0
DWIDTH 17 0
BBX 16 15 1 0
BITMAP
FFFD00FC
FFFD02F4
007D07E0
007D0F80
007D2F00
007D7D00
007FF800
007FFC00
007D7E00
007D2F40
007D0F80
007D07D0
007D02F0
007D01F8
007D00BD
ENDCHAR
STARTCHAR uni04A2
ENCODING 1186
SWIDTH 662 0
DWIDTH 19 0
BBX 16 25 2 -5
BITMAP
F80007D0
F80007D0
F80007D0
F80007D0
F80007D0
F80007D0
F80007D0
F80007D0
F80007D0
FFFFFFD0
FFFFFFD0
F80007D0
F80007D0
F80007D0
F80007D0
F80007D0
F80007D0
F80007D0
F80007FD
F80007FD
0000007D
0000007D
0000007D
0000007D
0000007D
ENDCHAR
STARTCHAR uni04A3
ENCODING 1187
SWIDTH 541 0
DWIDTH 15 0
BBX 13 20 2 -5
BITMAP
F401F400
F401F400
F401F400
F401F400
F401F400
F401F400
FFFFF400
FFFFF400
F401F400
F401F400
F401F400
F401F400
F401F400
F401FF40
F401FF40
00000F40
00000F40
00000F40
00000F40
00000F40
ENDCHAR
STARTCHAR uni04A4
ENCODING 1188
SWIDTH 829 0
DWIDTH 23 0
BBX 20 20 2 0
BITMAP
F80007FFFF
F80007FFFF
F80007D000
F80007D000
F80007D000
F80007D000
F80007D000
F80007D000
F80007D000
FFFFFFD000
FFFFFFD000
F80007D000
F80007D000
F80007D000
F80007D000
F80007D000
F80007D000
F80007D000
F80007D000
F80007D000
ENDCHAR
STARTCHAR uni04A5
ENCODING 1189
SWIDTH 614 0
DWIDTH 17 0
BBX 14 15 2 0
BITMAP
F401FFF0
F401FFF0
F401F000
F401F000
F401F000
F401F000
FFFFF000
FFFFF000
F401F000
F401F000
F401F000
F401F000
F401F000
F401F000
F401F000
ENDCHAR
STARTCHAR uni04A6
ENCODING 1190
SWIDTH 880 0
DWIDTH 25 0
BBX 22 24 2 -4
BITMAP
BFFFFFC00000
BFFFFFC00000
B8000BC00000
B80007C00000
B80007C00000
B80007C00000
B80007C00000
B80007C00000
B80007C00000
B80007FF9000
B80007FFF800
B80007D5BE00
B80007C01F40
B80007C00B80
B80007C007C0
B80007C007C0
B80007C007D0
B80007C007D0
B80007C007C0
B80007C00BC0
000000000F80
000000002F00
00000001FD00
00000001E400
ENDCHAR
STARTCHAR uni04A7
ENCODING 1191
SWIDTH 755 0
DWIDTH 21 0
BBX 18 19 2 -4
BITMAP
FFFFF00000
FFFFF00000
F401F00000
F401F00000
F401F00000
F401F00000
F401FFE400
F401FFFF40
F401F56FC0
F401F007D0
F401F002E0
F401F001F0
F401F001F0
F401F001F0
F401F002E0
00000003D0
0000001FC0
0000002F40
0000001800
ENDCHAR
STARTCHAR uni04A8
ENCODING 1192
SWIDTH 641 0
DWIDTH 18 0
BBX 16 20 1 0
BITMAP
01A02F80
07E0FFF0
0F92F5F8
2F07D07C
3E07C03D
3D0B803E
7D0B802E
7C0B802E
7C0B802E
7C0B802E
7C0B802E
7C0B803E
7D0BC03E
3D07D07D
3E03E0BC
1F42F5F8
0FC0BFF0
07F57FE5
01FFFFFF
002FE46F
ENDCHAR
STARTCHAR uni04A9
ENCODING 1193
SWIDTH 528 0
DWIDTH 15 0
BBX 13 15 1 0
BITMAP
0682F400
1F8FFD00
2E2F6E00
3D2E1F00
7C3D0F40
7C3D0F40
BC3D0F40
7C3D0F40
7C3E0F40
7D2F1F00
3E1F6F00
2F0BFD00
0F97FD00
07FFFFC0
00BE4AC0
ENDCHAR
STARTCHAR uni04AA
ENCODING 1194
SWIDTH 566 0
DWIDTH 16 0
BBX 14 26 1 -6
BITMAP
006FE400
02FFFE00
0BE56F40
1F800BC0
2F0007D0
3E0003E0
7D000290
7D000000
7D000000
7D000000
7D000000
7D000000
7D000000
7D000290
3E0003D0
2F0007D0
1F400BC0
0BE46F40
02FFFE00
007FE400
000F4000
000F4000
000F4000
000F4000
000F4000
000F4000
ENDCHAR
STARTCHAR uni04AB
ENCODING 1195
SWIDTH 461 0
DWIDTH 13 0
BBX 11 21 1 -6
BITMAP
02FE40
0FFFE0
2F46F4
7D00B8
7C007C
B80014
B80000
B80000
B80000
B80000
7C0068
7D00B8
2F42F4
0FFFE0
02FE40
00F800
00F800
00F800
00F800
00F800
00F800
ENDCHAR
STARTCHAR uni04AC
ENCODING 1196
SWIDTH 520 0
DWIDTH 15 0
BBX 14 25 0 -5
BITMAP
7FFFFFE0
7FFFFFE0
000F8000
000F8000
000F8000
000F8000
000F8000
000F8000
000F8000
000F8000
000F8000
000F8000
000F8000
000F8000
000F8000
000F8000
000F8000
000F8000
000FF800
000FF800
0000F800
0000F800
0000F800
0000F800
0000F800
ENDCHAR
STARTCHAR uni04AD
ENCODING 1197
SWIDTH 424 0
DWIDTH 12 0
BBX 11 20 0 -5
BITMAP
7FFFFC
7FFFFC
007C00
007C00
007C00
007C00
007C00
007C00
007C00
007C00
007C00
007C00
007C00
007FD0
007FD0
0007D0
0007D0
0007D0
0007D0
0007D0
ENDCHAR
STARTCHAR uni04AE
ENCODING 1198
SWIDTH 524 0
DWIDTH 15 0
BBX 14 20 0 0
BITMAP
7D0002F0
3F0007E0
1F400BC0
0F800F80
0BC01F40
03D02E00
02F07D00
01F4BC00
00B8F400
007EF000
003FD000
001FC000
000F8000
000F8000
000F8000
000F8000
000F8000
000F8000
000F8000
000F8000
ENDCHAR
STARTCHAR uni04AF
ENCODING 1199
SWIDTH 444 0
DWIDTH 12 0
BBX 11 21 1 -6
BITMAP
F400B8
B800F4
7C01F0
3D02E0
2E03D0
2E07C0
1F0780
0F4B80
0B8F40
07DF00
03EE00
02FD00
01FC00
00F800
00F800
00F800
00F800
00F800
00F800
00F800
00F800
ENDCHAR
STARTCHAR uni04B0
ENCODING 1200
SWIDTH 524 0
DWIDTH 15 0
BBX 14 20 0 0
BITMAP
7D0002F0
3F0007E0
1F400BC0
0F800F80
0BC01F40
07D02E00
02F07D00
01F4BC00
00F8F400
007EF000
003FE000
01FFFC00
01FFFC00
000F8000
000F8000
000F8000
000F8000
000F8000
000F8000
000F8000
ENDCHAR
STARTCHAR uni04B1
ENCODING 1201
SWIDTH 444 0
DWIDTH 12 0
BBX 11 21 1 -6
BITMAP
F400B8
B800F4
7C01F0
3D02E0
2E03D0
1F07C0
1F0B80
0F4B40
0B8F40
07DF00
03FE00
02FD00
01FC00
1FFFC0
1FFFC0
00F800
00F800
00F800
00F800
00F800
00F800
ENDCHAR
STARTCHAR uni04B2
ENCODING 1202
SWIDTH 559 0
DWIDTH 16 0
BBX 14 25 1 -5
BITMAP
BD000BD0
7E001F80
2F402F00
0F807E00
0BD0BC00
03E1F800
02F2F000
00FBE000
007FC000
003F4000
003F8000
00BFC000
00FBE000
02F2F000
07E0F800
0BC0BD00
1F803E00
2F002F40
7E001FF0
BC000BF0
000001F0
000001F0
000001F0
000001F0
000001F0
ENDCHAR
STARTCHAR uni04B3
ENCODING 1203
SWIDTH 465 0
DWIDTH 13 0
BBX 12 20 1 -5
BITMAP
F802F0
7D03E0
2E0BC0
1F4F80
0B9F00
07FD00
02FC00
01F800
02FC00
07FE00
0B9F00
1F0F80
3E07C0
7D03FD
F802FD
00003D
00003D
00003D
00003D
00003D
ENDCHAR
STARTCHAR uni04B4
ENCODING 1204
SWIDTH 781 0
DWIDTH 22 0
BBX 19 25 1 -5
BITMAP
FFFFFC0BC0
FFFFFC0BC0
00F8000BC0
00F8000BC0
00F8000BC0
00F8000BC0
00F8000BC0
00F8000BC0
00F8000BC0
00F8000BC0
00F8000BC0
00F8000BC0
00F8000BC0
00F8000BC0
00F8000BC0
00F8000BC0
00F8000BC0
00F8000BD0
00FFFFFFF8
00FFFFFFF8
00000000B8
00000000B8
00000000B8
00000000B8
00000000B8
ENDCHAR
STARTCHAR uni04B5
ENCODING 1205
SWIDTH 587 0
DWIDTH 16 0
BBX 16 19 0 -4
BITMAP
7FFF82F0
7FFF82F0
01F002F0
01F002F0
01F002F0
01F002F0
01F002F0
01F002F0
01F002F0
01F002F0
01F002F0
01F002F0
01F002F0
01FFFFFD
01FFFFFD
0000003D
0000003D
0000003D
0000003D
ENDCHAR
STARTCHAR uni04B6
ENCODING 1206
SWIDTH 638 0
DWIDTH 18 0
BBX 15 25 2 -5
BITMAP
F4000F80
F4000F80
F4000F80
F4000F80
F4000F80
F4000F80
F4000F80
F8000F80
B8000F80
7E006F80
2FFFFF80
0BFFAF80
00000F80
00000F80
00000F80
00000F80
00000F80
00000F80
00000FF8
00000FF8
000000F8
000000F8
000000F8
000000F8
000000F8
ENDCHAR
STARTCHAR uni04B7
ENCODING 1207
SWIDTH 512 0
DWIDTH 14 0
BBX 13 20 1 -5
BITMAP
BC00F400
BC00F400
BC00F400
BC00F400
BC00F400
BC00F400
7D00F400
3E01F400
1FFFF400
06FEF400
0000F400
0000F400
0000F400
0000FF80
0000FF80
00000F80
00000F80
00000F80
00000F80
00000F80
ENDCHAR
STARTCHAR uni04B8
ENCODING 1208
SWIDTH 595 0
DWIDTH 17 0
BBX 13 20 2 0
BITMAP
F4000F80
F4000F80
F4000F80
F4000F80
F4000F80
F4000F80
F41E0F80
F81E0F80
B81E0F80
7D1E5F80
3FFFFF80
0BFFEF80
006E0F80
001E0F80
001E0F80
00150F80
00000F80
00000F80
00000F80
00000F80
ENDCHAR
STARTCHAR uni04B9
ENCODING 1209
SWIDTH 483 0
DWIDTH 14 0
BBX 11 15 1 0
BITMAP
7C00B8
7C00B8
7C00B8
7C00B8
7C68B8
7D78B8
3D78B8
2F78B8
1FFFF8
06FFF8
0078B8
0078B8
0000B8
0000B8
0000B8
ENDCHAR
STARTCHAR uni04BA
ENCODING 1210
SWIDTH 595 0
DWIDTH 17 0
BBX 14 20 1 0
BITMAP
7D000000
7D000000
7D000000
7D000000
7D000000
7D000000
7D000000
7D000000
7EBFE400
7FFFFF00
7E956F80
7D000BC0
7D0007D0
7D0007D0
7D0003D0
7D0003D0
7D0003D0
7D0003D0
7D0003D0
7D0003D0
ENDCHAR
STARTCHAR uni04BB
ENCODING 1211
SWIDTH 482 0
DWIDTH 14 0
BBX 11 21 1 0
BITMAP
7D0000
7D0000
7D0000
7D0000
7D0000
7D0000
7D6F80
7EFFE0
7F96F4
7E00F8
7D00B8
7D00B8
7D00B8
7D00B8
7D00B8
7D00B8
7D00B8
7D00B8
7D00B8
7D00B8
7D00B8
ENDCHAR
STARTCHAR uni04BC
ENCODING 1212
SWIDTH 674 0
DWIDTH 19 0
BBX 17 20 1 0
BITMAP
0001BE4000
0007FFE000
001F96F800
003E007D00
007C002E00
50B8001F00
B0F8001F00
B4F4001F40
7DF4001F40
2FFFFFFF40
06FFFFFF40
01F4000000
00F4000000
00F4000000
00F8000000
00BC000000
007E000000
002FD56C00
000BFFFD00
0001BFE400
ENDCHAR
STARTCHAR uni04BD
ENCODING 1213
SWIDTH 518 0
DWIDTH 15 0
BBX 14 15 0 0
BITMAP
001BE400
007FFE00
01F96F40
E2E00B80
F3D007C0
BBC007C0
7FFFFFD0
0BFFFFD0
07C00000
07D00000
03D00000
02F00240
01F91BC0
007FFF40
001BF800
ENDCHAR
STARTCHAR uni04BE
ENCODING 1214
SWIDTH 674 0
DWIDTH 19 0
BBX 17 26 1 -6
BITMAP
0001BE4000
0007FFE000
001F96F800
003E007D00
007C002E00
50B8001F00
B0F8001F00
B4F4001F40
7DF4001F40
2FFFFFFF40
06FFFFFF40
01F4000000
00F4000000
00F4000000
00F8000000
00BC000000
007E000000
002FD56C00
000BFFFD00
0001BFE400
00002E0000
00002E0000
00002E0000
00002E0000
00002E0000
00002E0000
ENDCHAR
STARTCHAR uni04BF
ENCODING 1215
SWIDTH 518 0
DWIDTH 15 0
BBX 14 21 0 -6
BITMAP
001BE400
007FFE00
01F96F40
E2E00B80
F3D007C0
BBC007C0
7FFFFFD0
0BFFFFD0
07C00000
07D00000
03D00000
02F00240
01F91BC0
007FFF40
001BF800
0002E000
0002E000
0002E000
0002E000
0002E000
0002E000
ENDCHAR
STARTCHAR uni04C0
ENCODING 1216
SWIDTH 250 0
DWIDTH 7 0
BBX 3 20 2 0
BITMAP
B8
B8
B8
B8
B8
B8
B8
B8
B8
B8
B8
B8
B8
B8
B8
B8
B8
B8
B8
B8
ENDCHAR
STARTCHAR uni04C1
ENCODING 1217
SWIDTH 791 0
DWIDTH 22 0
BBX 21 25 1 0
BITMAP
000A00A00000
000B41F00000
0007EBE00000
0001BE400000
000000000000
BD003D003F00
7E003D007E00
2F003D00BC00
0F803D01F400
0BC03D02F000
03E03D03D000
02F03D0BC000
00F43D0F4000
00BC3D2F0000
003FFFFD0000
007FFFFE0000
00FD7E6F4000
01F43D0F8000
03F03D0BD000
07D03D03E000
0FC03D02F400
2F403D00FC00
3F003D00BD00
BD003D003F00
FC003D002F40
ENDCHAR
STARTCHAR uni04C2
ENCODING 1218
SWIDTH 662 0
DWIDTH 19 0
BBX 18 20 0 0
BITMAP
0028019000
002E03C000
001FAF8000
0002F90000
0000000000
3F00F40BD0
1F40F40F80
0BC0F42F40
07D0F43E00
02F0F47C00
00F4F4F800
007FFFF000
00BFFFF000
00F9F9F800
02F0F4BC00
03E0F43E00
0BC0F42F00
1F80F41F80
2F40F40BD0
7E00F407E0
ENDCHAR
STARTCHAR uni04C3
ENCODING 1219
SWIDTH 553 0
DWIDTH 15 0
BBX 13 24 2 -4
BITMAP
F8002F40
F8007E00
F800FC00
F802F400
F807E000
F80BC000
F81F4000
F83E0000
F8BC0000
FFFE4000
FFFFF000
F956FC00
F8007E00
F8002F00
F8001F40
F8000F40
F8000F40
F8000F40
F8000F40
F8001F00
00002F00
0000BD00
0003F800
00039000
ENDCHAR
STARTCHAR uni04C4
ENCODING 1220
SWIDTH 481 0
DWIDTH 14 0
BBX 11 19 2 -4
BITMAP
F402F4
F407D0
F41F80
F43E00
F4BC00
F5F400
FFF900
FFFF40
F95FD0
F402F0
F401F0
F400F4
F400F4
F400F4
F401F0
0002E0
000BD0
002F40
001900
ENDCHAR
STARTCHAR uni04C5
ENCODING 1221
SWIDTH 662 0
DWIDTH 19 0
BBX 17 25 1 -5
BITMAP
02FFFFF000
02FFFFF000
02F002F000
02E002F000
02E002F000
02E002F000
02E002F000
02E002F000
02E002F000
03E002F000
03E002F000
03E002F000
03D002F000
03D002F000
07D002F000
07C002F000
0B8002F000
6F4002F000
FE0002FF80
F80002FF80
0000000F40
0000000F40
0000001F00
0000003D00
0000002800
ENDCHAR
STARTCHAR uni04C6
ENCODING 1222
SWIDTH 551 0
DWIDTH 15 0
BBX 15 20 0 -5
BITMAP
01FFFF40
01FFFF40
01F01F40
02F01F40
02E01F40
02E01F40
02E01F40
02E01F40
02E01F40
03D01F40
03D01F40
07C01F40
1FC01F40
7F401FF8
7D001FF8
000000B8
000000F8
000000F4
000002E0
00000180
ENDCHAR
STARTCHAR uni04C7
ENCODING 1223
SWIDTH 620 0
DWIDTH 17 0
BBX 13 26 2 -6
BITMAP
B80007C0
B80007C0
B80007C0
B80007C0
B80007C0
B80007C0
B80007C0
B80007C0
B80007C0
BFFFFFC0
BFFFFFC0
B8000BC0
B80007C0
B80007C0
B80007C0
B80007C0
B80007C0
B80007C0
B80007C0
B80007C0
000007C0
00000BC0
00000BC0
00005F80
0000FF40
0000F900
ENDCHAR
STARTCHAR uni04C8
ENCODING 1224
SWIDTH 498 0
DWIDTH 14 0
BBX 10 21 2 -6
BITMAP
F401F0
F401F0
F401F0
F401F0
F401F0
F401F0
FFFFF0
FFFFF0
F401F0
F401F0
F401F0
F401F0
F401F0
F401F0
F401F0
0001F0
0001F0
0002F0
0007E0
003FD0
003E40
ENDCHAR
STARTCHAR uni04C9
ENCODING 1225
SWIDTH 671 0
DWIDTH 19 0
BBX 16 25 2 -5
BITMAP
F80007D0
F80007D0
F80007D0
F80007D0
F80007D0
F80007D0
F80007D0
F80007D0
F80007D0
FFFFFFD0
FFFFFFD0
F80007D0
F80007D0
F80007D0
F80007D0
F80007D0
F80007D0
F80007D0
F80007FE
F80007FE
0000002E
0000003E
0000007C
000000B8
00000060
ENDCHAR
STARTCHAR uni04CA
ENCODING 1226
SWIDTH 550 0
DWIDTH 15 0
BBX 13 20 2 -5
BITMAP
F401F400
F401F400
F401F400
F401F400
F401F400
F401F400
FFFFF400
FFFFF400
F401F400
F401F400
F401F400
F401F400
F401F400
F401FF80
F401FF80
00000B80
00000F80
00001F40
00002E00
00001800
ENDCHAR
STARTCHAR uni04CB
ENCODING 1227
SWIDTH 600 0
DWIDTH 17 0
BBX 13 25 2 -5
BITMAP
F4000F80
F4000F80
F4000F80
F4000F80
F4000F80
F4000F80
F4000F80
F8000F80
B8000F80
7E006F80
2FFFFF80
0BFFAF80
00000F80
00000F80
00000F80
00000F80
00000F80
00000F80
0000FF80
0000FF80
0000F400
0000F400
0000F400
0000F400
0000F400
ENDCHAR
STARTCHAR uni04CC
ENCODING 1228
SWIDTH 479 0
DWIDTH 13 0
BBX 11 20 1 -5
BITMAP
BC00F4
BC00F4
BC00F4
BC00F4
BC00F4
BC00F4
7D00F4
3E01F4
1FFFF4
06FEF4
0000F4
0000F4
0000F4
001FF4
001FF4
001F40
001F40
001F40
001F40
001F40
ENDCHAR
STARTCHAR uni04CD
ENCODING 1229
SWIDTH 801 0
DWIDTH 22 0
BBX 20 25 2 -5
BITMAP
FE00001FC0
FF00002FC0
FF40003FC0
FF40007FC0
FF8000BFC0
FBC000FBC0
F7D001F7C0
FAE002E7C0
F9F003D7C0
F8F407C7C0
F8B80B87C0
F87C0F47C0
F83D1F0BC0
F82E2E0BC0
F81F3D0BC0
F80F7C0BC0
F80BF80BC0
F807F40BC0
F803F00BFD
F802E00BFD
000000003D
000000007D
00000000B8
00000000F4
0000000090
ENDCHAR
STARTCHAR uni04CE
ENCODING 1230
SWIDTH 687 0
DWIDTH 19 0
BBX 17 20 2 -5
BITMAP
FD0003F000
FE0007F000
FF000BF000
FF400FF000
FF802FF000
FBC03EF000
F6D07DF000
F5E0B9F000
F4F0F5F000
F4B5F1F000
F47AE1F000
F43FC1F000
F42F81F000
F41F41FF80
F40F01FF80
0000000F80
0000000F40
0000001F00
0000003E00
0000001800
ENDCHAR
STARTCHAR uni04CF
ENCODING 1231
SWIDTH 250 0
DWIDTH 7 0
BBX 3 20 2 0
BITMAP
B8
B8
B8
B8
B8
B8
B8
B8
B8
B8
B8
B8
B8
B8
B8
B8
B8
B8
B8
B8
ENDCHAR
STARTCHAR uni04D0
ENCODING 1232
SWIDTH 576 0
DWIDTH 16 0
BBX 16 25 0 0
BITMAP
00A00A00
00B41F00
007EBE00
001BE400
00000000
0003D000
0007E000
000BF000
000FF400
001EB800
002D7C00
003D3D00
007C2E00
00B82F00
00F41F40
01F00F80
02E00BC0
03E007C0
07FFFFD0
0BFFFFE0
0F8002F0
1F4000F4
2F0000B8
3E00007C
7D00003D
ENDCHAR
STARTCHAR uni04D1
ENCODING 1233
SWIDTH 479 0
DWIDTH 13 0
BBX 11 20 1 0
BITMAP
0A00A0
0F41F0
07EBD0
01BE40
000000
01BE40
0FFFE0
2F46F0
3D00F4
1400F4
0000F4
01BFF4
0FFAF4
3F40F4
7D00F4
7C00F4
7C01F4
3E5BF8
2FFEF8
07F8BC
ENDCHAR
STARTCHAR uni04D2
ENCODING 1234
SWIDTH 576 0
DWIDTH 16 0
BBX 16 25 0 0
BITMAP
00A40A40
01F81F80
00B40F40
00000000
00000000
0003D000
0007E000
000BF000
000FF400
001EB800
002D7C00
003D3D00
007C2E00
00B82F00
00F41F40
01F00F80
02E00BC0
03E007C0
07FFFFD0
0BFFFFE0
0F8002F0
1F4000F4
2F0000B8
3E00007C
7D00003D
ENDCHAR
STARTCHAR uni04D3
ENCODING 1235
SWIDTH 479 0
DWIDTH 13 0
BBX 11 20 1 0
BITMAP
0A00A0
1F82F4
0F41F0
000000
000000
01BE40
0FFFE0
2F46F0
3D00F4
1400F4
0000F4
01BFF4
0FFAF4
3F40F4
7D00F4
7C00F4
7C01F4
3E5BF8
2FFEF8
07F8BC
ENDCHAR
STARTCHAR uni04D4
ENCODING 1236
SWIDTH 812 0
DWIDTH 23 0
BBX 22 20 0 0
BITMAP
00001FFFFFD0
00002FFFFFD0
00007FE00000
0000BBD00000
0001F7E00000
0002E3E00000
0007D2E00000
000BC2E00000
001F42E00000
002F02FFFF40
007E02FFFF40
00BC02E00000
01F802E00000
02FFFFF00000
07FFFFF00000
0BD556F00000
1F8001F00000
2F4001F00000
7E0001FFFFF0
BD0001FFFFF0
ENDCHAR
STARTCHAR uni04D5
ENCODING 1237
SWIDTH 728 0
DWIDTH 20 0
BBX 19 15 1 0
BITMAP
06FE02F900
1FFFDFFF80
3F47FE47D0
7C02FC02F0
1401F801F0
0001F400F4
06FFFFFFF4
2FFFFFFFF4
7E01F00000
B801F40000
F801F80000
B801FC0000
BD1BFF41E0
3FFF5FFFF0
0BF902FE40
ENDCHAR
STARTCHAR uni04D6
ENCODING 1238
SWIDTH 496 0
DWIDTH 14 0
BBX 11 25 2 0
BITMAP
190190
2E03D0
0FAF80
02FE00
000000
FFFFF8
FFFFF8
F80000
F80000
F80000
F80000
F80000
F80000
F80000
FFFFE0
FFFFE0
F80000
F80000
F80000
F80000
F80000
F80000
F80000
FFFFFC
FFFFFC
ENDCHAR
STARTCHAR uni04D7
ENCODING 1239
SWIDTH 468 0
DWIDTH 13 0
BBX 11 20 1 0
BITMAP
1900A0
0F02E0
0BEBD0
01BE00
000000
01BE40
0BFFE0
2F46F4
3D00F8
7C00B8
B8007C
BFFFFC
BFFFFC
B80000
BC0000
7C0000
7D0010
2F41B8
0FFFF4
02BF80
ENDCHAR
STARTCHAR uni04D8
ENCODING 1240
SWIDTH 597 0
DWIDTH 17 0
BBX 14 20 1 0
BITMAP
02BF9000
0FFFF800
0A55BF00
00001F80
000007D0
000003E0
000002E0
000001F0
000001F0
BFFFFFF0
BFFFFFF0
B80002F0
B80002F0
BC0002E0
7C0003D0
3D000BC0
2F001F80
0FD57F00
07FFFC00
006F9000
ENDCHAR
STARTCHAR uni04D9
ENCODING 1241
SWIDTH 465 0
DWIDTH 13 0
BBX 11 15 1 0
BITMAP
06F900
2FFF80
3D07E0
1001F0
0000F8
0000B8
0000B8
BFFFFC
BFFFF8
BC00B8
7C00F4
7D01F0
2F47E0
0FFF80
02FD00
ENDCHAR
STARTCHAR uni04DA
ENCODING 1242
SWIDTH 597 0
DWIDTH 17 0
BBX 14 24 1 0
BITMAP
0740A400
0FC0FC00
0B80B400
00000000
02BF9000
0FFFF800
0A55BF00
00001F80
000007D0
000003E0
000002E0
000001F0
000001F0
BFFFFFF0
BFFFFFF0
B80002F0
B80002F0
BC0002E0
7C0003D0
3D000BC0
2F001F80
0FD57F00
07FFFC00
006F9000
ENDCHAR
STARTCHAR uni04DB
ENCODING 1243
SWIDTH 465 0
DWIDTH 13 0
BBX 11 20 1 0
BITMAP
1E01A0
2F42F0
1E01E0
000000
000000
06F900
2FFF80
3D07E0
1001F0
0000F8
0000B8
0000B8
BFFFFC
BFFFF8
BC00B8
7C00F4
7D01F0
2F47E0
0FFF80
02FD00
ENDCHAR
STARTCHAR uni04DC
ENCODING 1244
SWIDTH 791 0
DWIDTH 22 0
BBX 21 25 1 0
BITMAP
000A40A00000
001F81F80000
000B40F40000
000000000000
000000000000
BD003D003F00
7E003D007E00
2F003D00BC00
0F803D01F400
0BC03D02F000
03E03D03D000
02F03D0BC000
00F43D0F4000
00BC3D2F0000
003FFFFD0000
007FFFFE0000
00FD7E6F4000
01F43D0F8000
03F03D0BD000
07D03D03E000
0FC03D02F400
2F403D00FC00
3F003D00BD00
BD003D003F00
FC003D002F40
ENDCHAR
STARTCHAR uni04DD
ENCODING 1245
SWIDTH 662 0
DWIDTH 19 0
BBX 18 20 0 0
BITMAP
002D029000
003E07E000
002D02D000
0000000000
0000000000
3F00F40BD0
1F40F40F80
0BC0F42F40
07D0F43E00
02F0F47C00
00F4F4F800
007FFFF000
00BFFFF000
00F9F9F800
02F0F4BC00
03E0F43E00
0BC0F42F00
1F80F41F80
2F40F40BD0
7E00F407E0
ENDCHAR
STARTCHAR uni04DE
ENCODING 1246
SWIDTH 517 0
DWIDTH 15 0
BBX 13 25 1 0
BITMAP
0B40A400
1F81F800
0B40B400
00000000
00000000
01BF9000
0BFFF400
2F95FD00
7E007E00
BC002F00
54002F00
00002F00
00003E00
0001BC00
00BFF400
00BFF400
0005BD00
00002F00
00001F00
A4001F40
BC001F40
7D002F00
3F95FD00
1FFFF800
01BF9000
ENDCHAR
STARTCHAR uni04DF
ENCODING 1247
SWIDTH 446 0
DWIDTH 13 0
BBX 10 20 1 0
BITMAP
2D0290
3E07E0
2D02D0
000000
000000
06FE00
1FFFC0
3E47E0
7C02F0
1402E0
0007D0
02FF80
02FF80
0007E0
0001F0
6401F0
BC02F0
7E07E0
2FFFC0
06FE00
ENDCHAR
STARTCHAR uni04E0
ENCODING 1248
SWIDTH 510 0
DWIDTH 14 0
BBX 12 20 1 0
BITMAP
3FFFFC
3FFFFC
0001F4
0003E0
000BC0
001F40
003D00
00B800
00FE40
00FFF0
0006F8
00007D
00003E
00003E
68003E
7C003E
7E00BD
2F96F8
0FFFF0
01BE40
ENDCHAR
STARTCHAR uni04E1
ENCODING 1249
SWIDTH 510 0
DWIDTH 14 0
BBX 12 20 1 -5
BITMAP
3FFFFC
3FFFFC
0002F4
0003E0
000BC0
001F40
007E00
00B800
01FE40
01FFE0
0006F8
00007D
00003D
00002E
68003E
7C003D
7E007D
2F41F8
0BFFE0
01BE40
ENDCHAR
STARTCHAR uni04E2
ENCODING 1250
SWIDTH 619 0
DWIDTH 17 0
BBX 13 25 2 0
BITMAP
07FFF800
07FFF800
00000000
00000000
00000000
B8000BC0
B8001FC0
B8002FC0
B8007FC0
B800BFC0
B801FBC0
B802E7C0
B807C7C0
B80B87C0
B81F07C0
B82E07C0
B87C07C0
B8B807C0
B9F007C0
BAE007C0
BFC007C0
BF8007C0
BF0007C0
BE0007C0
BC0007C0
ENDCHAR
STARTCHAR uni04E3
ENCODING 1251
SWIDTH 509 0
DWIDTH 14 0
BBX 11 20 2 0
BITMAP
2FFFC0
2FFFC0
000000
000000
000000
F401F4
F403F4
F407F4
F40FF4
F41EF4
F43DF4
F479F4
F4F1F4
F5E1F4
F7C1F4
FB81F4
FF01F4
FE01F4
FD01F4
F801F4
ENDCHAR
STARTCHAR uni04E4
ENCODING 1252
SWIDTH 619 0
DWIDTH 17 0
BBX 13 25 2 0
BITMAP
07806800
0BD0BC00
07807800
00000000
00000000
B8000BC0
B8001FC0
B8002FC0
B8007FC0
B800BFC0
B801FBC0
B802E7C0
B807C7C0
B80B87C0
B81F07C0
B82E07C0
B87C07C0
B8B807C0
B9F007C0
BAE007C0
BFC007C0
BF8007C0
BF0007C0
BE0007C0
BC0007C0
ENDCHAR
STARTCHAR uni04E5
ENCODING 1253
SWIDTH 509 0
DWIDTH 14 0
BBX 11 20 2 0
BITMAP
290290
7E07E0
2D03D0
000000
000000
F401F4
F403F4
F407F4
F40FF4
F41EF4
F43DF4
F479F4
F4F1F4
F5E1F4
F7C1F4
FB81F4
FF01F4
FE01F4
FD01F4
F801F4
ENDCHAR
STARTCHAR uni04E6
ENCODING 1254
SWIDTH 600 0
DWIDTH 17 0
BBX 14 25 1 0
BITMAP
01E02900
03F03F00
02E02E00
00000000
00000000
006FE400
02FFFE00
0BE56F80
1F800BC0
2F0003E0
3E0002E0
7D0002F0
7D0001F0
7D0001F0
7D0001F0
7D0001F0
7D0001F0
7D0001F0
7D0002F0
3E0002E0
2F0003E0
1F800BC0
0BE56F80
02FFFE00
006FE400
ENDCHAR
STARTCHAR uni04E7
ENCODING 1255
SWIDTH 501 0
DWIDTH 14 0
BBX 12 20 1 0
BITMAP
0A01A0
1F42F4
1F01F0
000000
000000
01BE40
0BFFE0
2F82F8
3E00BC
7C003D
BC002E
B8002E
B8002E
B8002E
BC002E
7C003D
3E007C
2F81F8
0BFFE0
01BE40
ENDCHAR
STARTCHAR uni04E8
ENCODING 1256
SWIDTH 593 0
DWIDTH 17 0
BBX 14 20 1 0
BITMAP
006FE000
02FFFD00
0BE5BF00
1F800F80
2E0007C0
3D0003D0
7C0002E0
7C0002F0
BC0002F0
BFFFFFF0
BFFFFFF0
BC0002F0
7C0002F0
7D0002E0
3D0003D0
2F0007C0
1F800F80
0BE57F00
02FFFD00
006FE000
ENDCHAR
STARTCHAR uni04E9
ENCODING 1257
SWIDTH 497 0
DWIDTH 14 0
BBX 12 15 1 0
BITMAP
01BE40
0BFFE0
1F82F4
3E00BC
7C003D
BC003E
BFFFFE
BFFFFE
B8002E
BC003E
7D007D
3E00BC
1F82F4
0BFFE0
01BE40
ENDCHAR
STARTCHAR uni04EA
ENCODING 1258
SWIDTH 593 0
DWIDTH 17 0
BBX 14 25 1 0
BITMAP
01E01D00
03F03F00
01E02E00
00000000
00000000
006FE000
02FFFD00
0BE5BF00
1F800F80
2E0007C0
3D0003D0
7C0002E0
7C0002F0
BC0002F0
BFFFFFF0
BFFFFFF0
BC0002F0
7C0002F0
7D0002E0
3D0003D0
2F0007C0
1F800F80
0BE57F00
02FFFD00
006FE000
ENDCHAR
STARTCHAR uni04EB
ENCODING 1259
SWIDTH 497 0
DWIDTH 14 0
BBX 12 20 1 0
BITMAP
1A01A0
2F42F0
1E01E0
000000
000000
01BE40
0BFFE0
1F82F4
3E00BC
7C003D
BC003E
BFFFFE
BFFFFE
B8002E
BC003E
7D007D
3E00BC
1F82F4
0BFFE0
01BE40
ENDCHAR
STARTCHAR uni04EC
ENCODING 1260
SWIDTH 589 0
DWIDTH 17 0
BBX 13 25 2 0
BITMAP
0B40A400
0F81F800
0B40B400
00000000
00000000
01BF8000
0BFFF400
2F95FD00
7D003E00
BC001F40
F8000F80
A4000B80
00000BC0
00000BC0
00FFFFC0
00FFFFC0
00000BC0
00000BC0
54000B80
F8000F80
BC001F40
7D003E00
2F95FD00
0BFFF400
01BF8000
ENDCHAR
STARTCHAR uni04ED
ENCODING 1261
SWIDTH 472 0
DWIDTH 13 0
BBX 11 20 1 0
BITMAP
1E01D0
2F03F0
1E02E0
000000
000000
02F900
1FFF80
3E47D0
7C02F0
6400F4
0000F8
00FFF8
00FFF8
0000B8
1000F8
B801F4
7C02F0
3F47D0
1FFF80
06F900
ENDCHAR
STARTCHAR uni04EE
ENCODING 1262
SWIDTH 547 0
DWIDTH 15 0
BBX 14 25 1 0
BITMAP
07FFF800
07FFF800
00000000
00000000
00000000
BD000BD0
7E000FC0
2F001F40
1F402F00
0F803E00
0BC07D00
07D0BC00
03E0F800
02F1F400
01F6F000
00BBE000
007FD000
003FC000
002F8000
001F4000
002F0000
003E0000
00BC0000
0BF80000
0BE00000
ENDCHAR
STARTCHAR uni04EF
ENCODING 1263
SWIDTH 416 0
DWIDTH 12 0
BBX 11 26 0 -6
BITMAP
0BFFF0
0BFFF0
000000
000000
000000
7D00BC
3E00B8
2E00F4
1F01F0
1F42F0
0F82E0
0B83D0
07C7C0
03DB80
02EB40
01EF00
00FF00
00FE00
00BD00
007C00
007800
00B400
00F000
16E000
2FC000
2E4000
ENDCHAR
STARTCHAR uni04F0
ENCODING 1264
SWIDTH 547 0
DWIDTH 15 0
BBX 14 25 1 0
BITMAP
06806800
0BD0BC00
07807800
00000000
00000000
BD000BD0
7E000FC0
2F001F40
1F402F00
0F803E00
0BC07D00
07D0BC00
03E0F800
02F1F400
01F6F000
00BBE000
007FD000
003FC000
002F8000
001F4000
002F0000
003E0000
00BC0000
0BF80000
0BE00000
ENDCHAR
STARTCHAR uni04F1
ENCODING 1265
SWIDTH 416 0
DWIDTH 12 0
BBX 11 26 0 -6
BITMAP
0A40A0
1F81F8
0B40F4
000000
000000
7D00BC
3E00B8
2E00F4
1F01F0
1F42F0
0F82E0
0B83D0
07C7C0
03DB80
02EB40
01EF00
00FF00
00FE00
00BD00
007C00
007800
00B400
00F000
16E000
2FC000
2E4000
ENDCHAR
STARTCHAR uni04F2
ENCODING 1266
SWIDTH 547 0
DWIDTH 15 0
BBX 14 26 1 0
BITMAP
002E2E00
007CBC00
00B9F400
00A2E000
00000000
00000000
BD000BD0
7E000FC0
2F001F40
1F402F00
0F803E00
0BC07D00
07D0BC00
03E0F800
02F1F400
01F6F000
00BBE000
007FD000
003FC000
002F8000
001F4000
002F0000
003E0000
00BC0000
0BF80000
0BE00000
ENDCHAR
STARTCHAR uni04F3
ENCODING 1267
SWIDTH 416 0
DWIDTH 12 0
BBX 12 27 0 -6
BITMAP
007C7D
00F9F4
01F3E0
01D680
000000
000000
7D00BC
3E00B8
2E00F4
1F01F0
1F42F0
0F82E0
0B83D0
07C7C0
03DB80
02EB40
01EF00
00FF00
00FE00
00BD00
007C00
007800
00B400
00F000
16E000
2FC000
2E4000
ENDCHAR
STARTCHAR uni04F4
ENCODING 1268
SWIDTH 600 0
DWIDTH 17 0
BBX 13 25 2 0
BITMAP
0B40A400
1F81F800
0B40F400
00000000
00000000
F4000F80
F4000F80
F4000F80
F4000F80
F4000F80
F4000F80
F4000F80
F8000F80
B8000F80
7E006F80
2FFFFF80
0BFFAF80
00000F80
00000F80
00000F80
00000F80
00000F80
00000F80
00000F80
00000F80
ENDCHAR
STARTCHAR uni04F5
ENCODING 1269
SWIDTH 479 0
DWIDTH 13 0
BBX 11 20 1 0
BITMAP
2D0290
3F03E0
2E02D0
000000
000000
BC00F4
BC00F4
BC00F4
BC00F4
BC00F4
BC00F4
7D00F4
3E01F4
1FFFF4
06FEF4
0000F4
0000F4
0000F4
0000F4
0000F4
ENDCHAR
STARTCHAR uni04F6
ENCODING 1270
SWIDTH 487 0
DWIDTH 14 0
BBX 11 25 2 -5
BITMAP
BFFFF8
BFFFF8
B80000
B80000
B80000
B80000
B80000
B80000
B80000
B80000
B80000
B80000
B80000
B80000
B80000
B80000
B80000
B80000
BF8000
BF8000
0B8000
0B8000
0B8000
0B8000
0B8000
ENDCHAR
STARTCHAR uni04F7
ENCODING 1271
SWIDTH 371 0
DWIDTH 10 0
BBX 8 20 2 -5
BITMAP
FFFF
FFFF
F400
F400
F400
F400
F400
F400
F400
F400
F400
F400
F400
FF80
FF80
0F80
0F80
0F80
0F80
0F80
ENDCHAR
STARTCHAR uni04F8
ENCODING 1272
SWIDTH 755 0
DWIDTH 21 0
BBX 17 25 2 0
BITMAP
0078074000
00FC0FC000
00780B8000
0000000000
0000000000
B800000B80
B800000B80
B800000B80
B800000B80
B800000B80
B800000B80
B800000B80
B800000B80
BFFF900B80
BFFFF80B80
B801BE0B80
B8002F0B80
B8001F4B80
B8000F4B80
B8000F4B80
B8001F4B80
B8002F0B80
B801BE0B80
BFFFF80B80
BFFF900B80
ENDCHAR
STARTCHAR uni04F9
ENCODING 1273
SWIDTH 679 0
DWIDTH 19 0
BBX 15 20 2 0
BITMAP
02D02900
03E07E00
02D02D00
00000000
00000000
F40000B8
F40000B8
F40000B8
F40000B8
F40000B8
FFFE00B8
FFFFC0B8
F407E0B8
F402F0B8
F401F0B8
F401F0B8
F402F0B8
F407E0B8
FFFFC0B8
FFFE00B8
ENDCHAR
STARTCHAR uni04FA
ENCODING 1274
SWIDTH 520 0
DWIDTH 15 0
BBX 13 26 1 -6
BITMAP
0BFFFF80
0BFFFF80
0B800000
0B800000
0B800000
0B800000
0B800000
0B800000
FFFE0000
FFFE0000
0F800000
0B800000
0B800000
0B800000
0B800000
0B800000
0B800000
0B800000
0BF80000
0BF80000
00B80000
00B80000
00B80000
05F40000
0FF00000
0F800000
ENDCHAR
STARTCHAR uni04FB
ENCODING 1275
SWIDTH 410 0
DWIDTH 11 0
BBX 10 21 1 -6
BITMAP
0FFFF0
0FFFF0
0F8000
0F8000
0F8000
0F8000
FFFD00
FFFD00
0F8000
0F8000
0F8000
0F8000
0F8000
0FF800
0FF800
00B800
00B800
00F800
06F400
1FE000
1F8000
ENDCHAR
STARTCHAR uni04FC
ENCODING 1276
SWIDTH 570 0
DWIDTH 16 0
BBX 15 26 1 -6
BITMAP
BD000BD0
7E001F80
2F402F00
0F807E00
0BD0BC00
03E1F800
02F2F000
00FBE000
007FC000
003F4000
003F8000
00BFC000
00FBE000
02F2F000
07E0F800
0BC0BD00
1F803E00
2F002F40
7E001FF4
BC000BF4
000000F4
000000F4
000000F4
000006F0
00002FE0
00002F80
ENDCHAR
STARTCHAR uni04FD
ENCODING 1277
SWIDTH 476 0
DWIDTH 13 0
BBX 12 21 1 -6
BITMAP
F802F0
7D03E0
2E0BC0
1F4F80
0B9F00
07FD00
02FC00
01F800
02FC00
07FE00
0B9F00
1F0F80
3E07D0
7D03FE
F802FE
00002E
00003E
00003D
0001BD
0007F8
0007E0
ENDCHAR
STARTCHAR uni04FE
ENCODING 1278
SWIDTH 550 0
DWIDTH 15 0
BBX 14 20 1 0
BITMAP
BD000BD0
7E001F80
2F402F00
1F807E00
0BD0BC00
03E1F800
02F2F000
00FBE000
00BFC000
03FFF400
03FFF400
00BFC000
00FBD000
02F2F000
03E0F800
0BC0BC00
1F803E00
2F002F40
7E001F80
BC000BD0
ENDCHAR
STARTCHAR uni04FF
ENCODING 1279
SWIDTH 438 0
DWIDTH 12 0
BBX 11 15 1 0
BITMAP
F802F0
7D03E0
2E0BC0
1F4F40
0B9F00
03FD00
2FFFC0
2FFFC0
03FD00
07FE00
0F9F40
1F0F80
3E07D0
BD03E0
F802F4
ENDCHAR
STARTCHAR uni0500
ENCODING 1280
SWIDTH 555 0
DWIDTH 16 0
BBX 13 20 1 0
BITMAP
00000F80
00000F80
00000F80
00000F80
00000F80
00000F80
00000F80
00000F80
02BFFF80
0FFFFF80
2F900F80
7E000F80
BC000F80
BC000F80
BC000F80
BC000F80
7E000F80
2F900F80
0FFFFF80
01BFFF80
ENDCHAR
STARTCHAR uni0501
ENCODING 1281
SWIDTH 496 0
DWIDTH 14 0
BBX 11 21 1 0
BITMAP
00007C
00007C
00007C
00007C
00007C
00007C
06F97C
1FFFBC
3F56FC
7D00BC
7C007C
B8007C
B8007C
B8007C
B8007C
B8007C
7C007C
7D00BC
2F56FC
1FFFBC
02F97C
ENDCHAR
STARTCHAR uni0502
ENCODING 1282
SWIDTH 723 0
DWIDTH 20 0
BBX 19 20 1 0
BITMAP
00000F8000
00000F8000
00000F8000
00000F8000
00000F8000
00000F8000
00000F8000
00000F8000
01BFFF8000
0FFFFF8150
2F900F82F0
7E000F81F0
7C000F81F4
BC000F80F4
BC000F80F4
7C000F81F4
7E000F82F0
2F900F87E0
0BFFFFFFC0
01BFFFFE00
ENDCHAR
STARTCHAR uni0503
ENCODING 1283
SWIDTH 743 0
DWIDTH 21 0
BBX 19 21 1 0
BITMAP
0000B80000
0000B80000
0000B80000
0000B80000
0000B80000
0000B80000
02F9B80000
0BFFF80000
2F96F802E0
3E00B802F0
7D00B801F0
7C00B801F0
BC00B800F4
B800B800F4
B800B801F4
BC00B801F0
7C00BC02F0
3E00BC03E0
2F96FE1BC0
0FFF6FFF40
02F90BF800
ENDCHAR
STARTCHAR uni0504
ENCODING 1284
SWIDTH 685 0
DWIDTH 19 0
BBX 17 20 1 0
BITMAP
FFF8000000
FFFF400000
005FC00000
0007D00000
0003E00000
0003E00000
0003E00000
0007D02E00
001F801F00
0BFE001F00
0BFE001F40
005FC00F40
0007D00F40
0003E00F40
0002E01F40
0002E01F00
0002F03E00
0001F5BD00
0000FFF400
00006F9000
ENDCHAR
STARTCHAR uni0505
ENCODING 1285
SWIDTH 562 0
DWIDTH 16 0
BBX 14 15 1 0
BITMAP
FF900000
FFF80000
00BD0000
002E0000
002F0140
002E03D0
007D03D0
7FF402E0
7FF802E0
007E02E0
002F03E0
001F07D0
001F5FC0
000FFF40
0006F800
ENDCHAR
STARTCHAR uni0506
ENCODING 1286
SWIDTH 470 0
DWIDTH 13 0
BBX 11 24 1 -4
BITMAP
FFE400
FFFE00
006F40
000F80
000BC0
000BC0
000B80
000F80
006F00
2FF800
2FFD00
006F00
000F80
000B80
000BC0
000BC0
000BC0
000BFC
0007FC
0003FC
00007C
0000B8
0001F0
000090
ENDCHAR
STARTCHAR uni0507
ENCODING 1287
SWIDTH 443 0
DWIDTH 12 0
BBX 11 19 1 -4
BITMAP
7FE400
7FFE00
002F40
000B80
000B80
000B80
001F40
2FFD00
2FFE00
001F40
000B80
000BC0
000BE8
000BFC
0007F8
0000B8
0000F4
0001F0
000190
ENDCHAR
STARTCHAR uni0508
ENCODING 1288
SWIDTH 834 0
DWIDTH 23 0
BBX 22 20 1 0
BITMAP
01FFFFE00000
01FFFFE00000
01F402E00000
01F002E00000
01F002E00000
02F002E00000
02F002E00000
02F002E00B80
02F002E00B80
02E002E007C0
02E002E007C0
02E002E007D0
02E002E007D0
03E002E007D0
03D002E007C0
07D002F00B80
0BC002F01F40
6F8001F97F00
FF0000BFFD00
F800002FE000
ENDCHAR
STARTCHAR uni0509
ENCODING 1289
SWIDTH 698 0
DWIDTH 20 0
BBX 18 15 1 0
BITMAP
03FFFC0000
07FFFC0000
07D07C0000
07C07C07C0
07C07C03D0
07C07C03D0
07C07C02E0
07C07C02E0
07C07C02E0
0B807C02E0
0B807C03D0
0F407D07C0
6F003E1F80
FE002FFF00
F80006F800
ENDCHAR
STARTCHAR uni050A
ENCODING 1290
SWIDTH 864 0
DWIDTH 24 0
BBX 21 20 2 0
BITMAP
F8000BC00000
F8000BC00000
F8000BC00000
F8000BC00000
F8000BC00000
F8000BC00000
F8000BC00000
F8000BC02E00
F8000BC01F00
FFFFFFC01F40
FFFFFFC01F40
F8000BC00F40
F8000BC00F40
F8000BC00F40
F8000BC01F40
F80007C02F00
F80007D03E00
F80003E5BC00
F80002FFF400
F800007F9000
ENDCHAR
STARTCHAR uni050B
ENCODING 1291
SWIDTH 716 0
DWIDTH 20 0
BBX 17 15 2 0
BITMAP
F401F40000
F401F40000
F401F40000
F401F40F40
F401F40B80
F401F40B80
FFFFF40BC0
FFFFF407C0
F401F407C0
F401F40BC0
F400F40B80
F400F40F40
F400BD2F00
F4007FFD00
F4001BE400
ENDCHAR
STARTCHAR uni050C
ENCODING 1292
SWIDTH 541 0
DWIDTH 15 0
BBX 13 20 1 0
BITMAP
006FE400
02FFFD00
0BE56C00
1F800000
2F000000
3D000000
7D000000
7C000000
7C000000
7C000F40
7C000F80
7C000B80
7C000B80
7D000BC0
3D000BC0
2F000F80
1F801F40
0BE57F00
02FFFD00
006FE000
ENDCHAR
STARTCHAR uni050D
ENCODING 1293
SWIDTH 452 0
DWIDTH 13 0
BBX 11 15 1 0
BITMAP
01BE40
0BFFC0
1F8180
3E0000
7D0000
7C0000
BC0000
B800A0
BC01F4
7C00F4
7D00F4
3E00F4
1F82F0
0BFFD0
01BE40
ENDCHAR
STARTCHAR uni050E
ENCODING 1294
SWIDTH 616 0
DWIDTH 17 0
BBX 16 20 0 0
BITMAP
7FFFFFF0
7FFFFFF0
001F8000
000F4000
000F4000
000F4000
000F4000
000F403D
000F403D
000F402E
000F402E
000F402F
000F402F
000F402E
000F402E
000F803D
000F807C
000BD5F8
0003FFE0
0001BE40
ENDCHAR
STARTCHAR uni050F
ENCODING 1295
SWIDTH 558 0
DWIDTH 16 0
BBX 14 15 1 0
BITMAP
FFFFF800
FFFFF800
00F80000
00F80000
00F80640
00F80B80
00F807C0
00F807C0
00F807D0
00F807D0
00F807C0
00B80B80
007D1F40
003FFE00
000BF400
ENDCHAR
STARTCHAR uni0510
ENCODING 1296
SWIDTH 589 0
DWIDTH 17 0
BBX 13 20 2 0
BITMAP
01BF9000
0FFFFC00
3F95BF00
7E001F40
BC000B80
BC000540
BC000000
7D000000
2F400000
0BFF8000
0BFF8000
3F900000
BD000000
F8000000
F8000680
F8000BC0
BD001F80
3F95BF00
1FFFFD00
01BF9000
ENDCHAR
STARTCHAR uni0511
ENCODING 1297
SWIDTH 470 0
DWIDTH 13 0
BBX 11 15 1 0
BITMAP
06FE40
1FFFE0
3E46F4
7C00F8
7C0000
3E0000
0BFF00
1FFF00
3E4000
7C0000
BC0068
BC00F8
7E46F4
1FFFE0
06FE40
ENDCHAR
STARTCHAR uni0512
ENCODING 1298
SWIDTH 664 0
DWIDTH 19 0
BBX 17 26 1 -6
BITMAP
02FFFFF000
02FFFFF000
02F002F000
02E002F000
02E002F000
02E002F000
02E002F000
02E002F000
02E002F000
03E002F000
03E002F000
03E002F000
03D002F000
03D002F000
07D002F000
07C002F000
0B8002F000
6F4002F000
FE0002FF40
F80002FF40
0000000F40
0000000F40
0000001F40
0000016F00
000002FD00
000002F400
ENDCHAR
STARTCHAR uni0513
ENCODING 1299
SWIDTH 553 0
DWIDTH 15 0
BBX 15 21 0 -6
BITMAP
01FFFF40
01FFFF40
01F01F40
02F01F40
02E01F40
02E01F40
02E01F40
02E01F40
02E01F40
03D01F40
03D01F40
07C01F40
1FC01F40
7F401FF8
7D001FF8
000000B8
000000B8
000000F8
000006F4
00001FE0
00001F80
ENDCHAR
STARTCHAR uni1E00
ENCODING 7680
SWIDTH 576 0
DWIDTH 16 0
BBX 16 25 0 -5
BITMAP
0003D000
0007E000
000BF000
000FF400
001EB800
002D7C00
003D3D00
007C2E00
00B82F00
00F41F40
01F00F80
02E00BC0
03E007C0
07FFFFD0
0BFFFFE0
0F8002F0
1F4000F4
2F0000B8
3E00007C
7D00003D
00000000
0006D000
00097000
00093000
0007E000
ENDCHAR
STARTCHAR uni1E01
ENCODING 7681
SWIDTH 479 0
DWIDTH 13 0
BBX 11 20 1 -5
BITMAP
01BE40
0FFFE0
2F46F0
3D00F4
1400F4
0000F4
01BFF4
0FFAF4
3F40F4
7D00F4
7C00F4
7C01F4
3E5BF8
2FFEF8
07F8BC
000000
01F400
035C00
035C00
01F400
ENDCHAR
STARTCHAR uni1E3E
ENCODING 7742
SWIDTH 755 0
DWIDTH 21 0
BBX 17 26 2 0
BITMAP
00002F4000
00007D0000
0001F80000
0001E00000
0000000000
0000000000
FE00001FC0
FF00002FC0
FF40003FC0
FF40007FC0
FF8000BFC0
FBC000FBC0
F7D001F7C0
FAE002E7C0
F9F003D7C0
F8F407C7C0
F8B80B87C0
F87C0F47C0
F83D1F0BC0
F82E2E0BC0
F81F3D0BC0
F80F7C0BC0
F80BF80BC0
F807F40BC0
F803F00BC0
F802E00BC0
ENDCHAR
STARTCHAR uni1E3F
ENCODING 7743
SWIDTH 752 0
DWIDTH 21 0
BBX 19 21 1 0
BITMAP
000007E000
00001F8000
00003E0000
0000680000
0000000000
0000000000
7C6F81BE40
7EFFE7FFD0
7F56FF57E0
7D00FD01F0
7D00BC01F4
7D00B801F4
7D00B801F4
7D00B801F4
7D00B801F4
7D00B801F4
7D00B801F4
7D00B801F4
7D00B801F4
7D00B801F4
7D00B801F4
ENDCHAR
STARTCHAR Wgrave
ENCODING 7808
SWIDTH 761 0
DWIDTH 21 0
BBX 20 26 1 0
BITMAP
000FC00000
0003E00000
0001F80000
0000780000
0000000000
0000000000
F8007C003D
B800BD007D
BC00BD007C
7C00FE00BC
3D01FF00B8
3D01EF00F8
2E02DB40F4
2E03C781F0
1F03C781F0
0F4783C2E0
0F4B42D2E0
0B8F42D3D0
0B8F01E3C0
07DE00F7C0
03ED00FB80
03FD00BF80
02FC007F40
02F8007F00
01F8003F00
01F4002E00
ENDCHAR
STARTCHAR wgrave
ENCODING 7809
SWIDTH 649 0
DWIDTH 18 0
BBX 18 21 0 0
BITMAP
002F400000
000BC00000
0003E00000
0001E40000
0000000000
0000000000
7D00F003D0
3D01F407C0
2E02F807C0
1F02FC0B80
1F03FD0F40
0F47AD0F00
0B4B5E1F00
0B8F4F1E00
07CF0B6D00
03EE0BBD00
02FD07FC00
02FC03F800
01FC02F400
00F801F400
00F401F000
ENDCHAR
STARTCHAR Wacute
ENCODING 7810
SWIDTH 761 0
DWIDTH 21 0
BBX 20 26 1 0
BITMAP
000007E000
00000F8000
00002F0000
00006C0000
0000000000
0000000000
F8007C003D
B800BD007D
BC00BD007C
7C00FE00BC
3D01FF00B8
3D01EF00F8
2E02DB40F4
2E03C781F0
1F03C781F0
0F4783C2E0
0F4B42D2E0
0B8F42D3D0
0B8F01E3C0
07DE00F7C0
03ED00FB80
03FD00BF80
02FC007F40
02F8007F00
01F8003F00
01F4002E00
ENDCHAR
STARTCHAR wacute
ENCODING 7811
SWIDTH 649 0
DWIDTH 18 0
BBX 18 21 0 0
BITMAP
00000F8000
00002F0000
0000BC0000
0000B40000
0000000000
0000000000
7D00F003D0
3D01F407C0
2E02F807C0
1F02FC0B80
1F03FD0F40
0F47AD0F00
0B4B5E1F00
0B8F4F1E00
07CF0B6D00
03EE0BBD00
02FD07FC00
02FC03F800
01FC02F400
00F801F400
00F401F000
ENDCHAR
STARTCHAR Wdieresis
ENCODING 7812
SWIDTH 761 0
DWIDTH 21 0
BBX 20 25 1 0
BITMAP
000A01A000
001F42F400
001F01E000
0000000000
0000000000
F8007C003D
B800BD007D
BC00BD007C
7C00FE00BC
3D01FF00B8
3D01EF00F8
2E02DB40F4
2E03C781F0
1F03C781F0
0F4783C2E0
0F4B42D2E0
0B8F42D3D0
0B8F01E3C0
07DE00F7C0
03ED00FB80
03FD00BF80
02FC007F40
02F8007F00
01F8003F00
01F4002E00
ENDCHAR
STARTCHAR wdieresis
ENCODING 7813
SWIDTH 649 0
DWIDTH 18 0
BBX 18 20 0 0
BITMAP
0029028000
007E07D000
003D07C000
0000000000
0000000000
7D00F003D0
3D01F407C0
2E02F807C0
1F02FC0B80
1F03FD0F40
0F47AD0F00
0B4B5E1F00
0B8F4F1E00
07CF0B6D00
03EE0BBD00
02FD07FC00
02FC03F800
01FC02F400
00F801F400
00F401F000
ENDCHAR
STARTCHAR uni1EA0
ENCODING 7840
SWIDTH 576 0
DWIDTH 16 0
BBX 16 25 0 -5
BITMAP
0003D000
0007E000
000BF000
000FF400
001EB800
002D7C00
003D3D00
007C2E00
00B82F00
00F41F40
01F00F80
02E00BC0
03E007C0
07FFFFD0
0BFFFFE0
0F8002F0
1F4000F4
2F0000B8
3E00007C
7D00003D
00000000
00000000
0002D000
0007E000
0002D000
ENDCHAR
STARTCHAR uni1EA1
ENCODING 7841
SWIDTH 479 0
DWIDTH 13 0
BBX 11 20 1 -5
BITMAP
01BE40
0FFFE0
2F46F0
3D00F4
1400F4
0000F4
01BFF4
0FFAF4
3F40F4
7D00F4
7C00F4
7C01F4
3E5BF8
2FFEF8
07F8BC
000000
000000
01F000
02F400
01A000
ENDCHAR
STARTCHAR uni1EA2
ENCODING 7842
SWIDTH 576 0
DWIDTH 16 0
BBX 16 28 0 0
BITMAP
00029000
0001B400
00007800
0001B800
0002E000
0002C000
00000000
00000000
0003D000
0007E000
000BF000
000FF400
001EB800
002D7C00
003D3D00
007C2E00
00B82F00
00F41F40
01F00F80
02E00BC0
03E007C0
07FFFFD0
0BFFFFE0
0F8002F0
1F4000F4
2F0000B8
3E00007C
7D00003D
ENDCHAR
STARTCHAR uni1EA3
ENCODING 7843
SWIDTH 479 0
DWIDTH 13 0
BBX 11 23 1 0
BITMAP
003900
002F40
000780
001B40
003E00
003C00
000000
000000
01BE40
0FFFE0
2F46F0
3D00F4
1400F4
0000F4
01BFF4
0FFAF4
3F40F4
7D00F4
7C00F4
7C01F4
3E5BF8
2FFEF8
07F8BC
ENDCHAR
STARTCHAR uni1EA4
ENCODING 7844
SWIDTH 576 0
DWIDTH 16 0
BBX 16 28 0 0
BITMAP
0000003E
0000007C
0007E0F4
001FF8A0
007D7E00
00B81E40
00000000
00000000
0003D000
0007E000
000BF000
000FF400
001EB800
002D7C00
003D3D00
007C2E00
00B82F00
00F41F40
01F00F80
02E00BC0
03E007C0
07FFFFD0
0BFFFFE0
0F8002F0
1F4000F4
2F0000B8
3E00007C
7D00003D
ENDCHAR
STARTCHAR uni1EA5
ENCODING 7845
SWIDTH 479 0
DWIDTH 13 0
BBX 14 23 1 0
BITMAP
000003D0
00000B80
007D0F00
01FF5A00
07D7D000
0B42E000
00000000
00000000
01BE4000
0FFFE000
2F46F000
3D00F400
1400F400
0000F400
01BFF400
0FFAF400
3F40F400
7D00F400
7C00F400
7C01F400
3E5BF800
2FFEF800
07F8BC00
ENDCHAR
STARTCHAR uni1EA6
ENCODING 7846
SWIDTH 576 0
DWIDTH 16 0
BBX 16 29 0 0
BITMAP
7D000000
2E000000
0F400000
0647E000
001FF800
007D7E00
00B81E00
00000000
00000000
0003D000
0007E000
000BF000
000FF400
001EB800
002D7C00
003D3D00
007C2E00
00B82F00
00F41F40
01F00F80
02E00BC0
03E007C0
07FFFFD0
0BFFFFE0
0F8002F0
1F4000F4
2F0000B8
3E00007C
7D00003D
ENDCHAR
STARTCHAR uni1EA7
ENCODING 7847
SWIDTH 479 0
DWIDTH 13 0
BBX 13 23 -1 0
BITMAP
7C000000
2E000000
1F0BD000
0A5FF400
007D7D00
00B42E00
00000000
00000000
001BE400
00FFFE00
02F46F00
03D00F40
01400F40
00000F40
001BFF40
00FFAF40
03F40F40
07D00F40
07C00F40
07C01F40
03E5BF80
02FFEF80
007F8BC0
ENDCHAR
STARTCHAR uni1EA8
ENCODING 7848
SWIDTH 576 0
DWIDTH 16 0
BBX 16 29 0 0
BITMAP
00000290
000001B0
00000074
000BE2F0
001EBAC0
007C2E00
00B40E00
00000000
00000000
0003D000
0007E000
000BF000
000FF400
001EB800
002D7C00
003D3D00
007C2E00
00B82F00
00F41F40
01F00F80
02E00BC0
03E007C0
07FFFFD0
0BFFFFE0
0F8002F0
1F4000F4
2F0000B8
3E00007C
7D00003D
ENDCHAR
STARTCHAR uni1EA9
ENCODING 7849
SWIDTH 479 0
DWIDTH 13 0
BBX 12 24 1 0
BITMAP
000039
00001B
00000B
00BE2E
02EBA8
0B83D0
0B01E0
000000
000000
01BE40
0FFFE0
2F46F0
3D00F4
1400F4
0000F4
01BFF4
0FFAF4
3F40F4
7D00F4
7C00F4
7C01F4
3E5BF8
2FFEF8
07F8BC
ENDCHAR
STARTCHAR uni1EAA
ENCODING 7850
SWIDTH 576 0
DWIDTH 16 0
BBX 16 28 0 0
BITMAP
00050400
002FAC00
0035B400
00000000
0007E000
002E7D00
00B41E00
00000000
0003D000
0007E000
000BF000
000FF400
001EB800
002D7C00
003D3D00
007C2E00
00B82F00
00F41F40
01F00F80
02E00BC0
03E007C0
07FFFFD0
0BFFFFE0
0F8002F0
1F4000F4
2F0000B8
3E00007C
7D00003D
ENDCHAR
STARTCHAR uni1EAB
ENCODING 7851
SWIDTH 479 0
DWIDTH 13 0
BBX 11 24 1 0
BITMAP
004040
02FA80
031F40
000000
00BD00
06DB80
0B41E0
000000
000000
01BE40
0FFFE0
2F46F0
3D00F4
1400F4
0000F4
01BFF4
0FFAF4
3F40F4
7D00F4
7C00F4
7C01F4
3E5BF8
2FFEF8
07F8BC
ENDCHAR
STARTCHAR uni1EAC
ENCODING 7852
SWIDTH 576 0
DWIDTH 16 0
BBX 16 31 0 -5
BITMAP
0003D000
000BF000
002E7C00
00682900
00000000
00000000
0003D000
0007E000
000BF000
000FF400
001EB800
002D7C00
003D3D00
007C2E00
00B82F00
00F41F40
01F00F80
02E00BC0
03E007C0
07FFFFD0
0BFFFFE0
0F8002F0
1F4000F4
2F0000B8
3E00007C
7D00003D
00000000
00000000
0002D000
0007E000
0002D000
ENDCHAR
STARTCHAR uni1EAD
ENCODING 7853
SWIDTH 479 0
DWIDTH 13 0
BBX 11 26 1 -5
BITMAP
007C00
00FF00
03D780
068290
000000
000000
01BE40
0FFFE0
2F46F0
3D00F4
1400F4
0000F4
01BFF4
0FFAF4
3F40F4
7D00F4
7C00F4
7C01F4
3E5BF8
2FFEF8
07F8BC
000000
000000
01F000
02F400
01A000
ENDCHAR
STARTCHAR uni1EAE
ENCODING 7854
SWIDTH 576 0
DWIDTH 16 0
BBX 16 27 0 0
BITMAP
0000B400
0000E000
00018000
00781D00
003D7C00
001BE400
00000000
0003D000
0007E000
000BF000
000FF400
001EB800
002D7C00
003D3D00
007C2E00
00B82F00
00F41F40
01F00F80
02E00BC0
03E007C0
07FFFFD0
0BFFFFE0
0F8002F0
1F4000F4
2F0000B8
3E00007C
7D00003D
ENDCHAR
STARTCHAR uni1EAF
ENCODING 7855
SWIDTH 479 0
DWIDTH 13 0
BBX 11 23 1 0
BITMAP
000B00
001D00
001800
0B42D0
07D7C0
01BE00
000000
000000
01BE40
0FFFE0
2F46F0
3D00F4
1400F4
0000F4
01BFF4
0FFAF4
3F40F4
7D00F4
7C00F4
7C01F4
3E5BF8
2FFEF8
07F8BC
ENDCHAR
STARTCHAR uni1EB0
ENCODING 7856
SWIDTH 576 0
DWIDTH 16 0
BBX 16 27 0 0
BITMAP
000F0000
00074000
00028000
00781D00
003D7C00
001BE400
00000000
0003D000
0007E000
000BF000
000FF400
001EB800
002D7C00
003D3D00
007C2E00
00B82F00
00F41F40
01F00F80
02E00BC0
03E007C0
07FFFFD0
0BFFFFE0
0F8002F0
1F4000F4
2F0000B8
3E00007C
7D00003D
ENDCHAR
STARTCHAR uni1EB1
ENCODING 7857
SWIDTH 479 0
DWIDTH 13 0
BBX 11 23 1 0
BITMAP
00E000
007400
002400
0B42D0
07D7C0
01BE00
000000
000000
01BE40
0FFFE0
2F46F0
3D00F4
1400F4
0000F4
01BFF4
0FFAF4
3F40F4
7D00F4
7C00F4
7C01F4
3E5BF8
2FFEF8
07F8BC
ENDCHAR
STARTCHAR uni1EB2
ENCODING 7858
SWIDTH 576 0
DWIDTH 16 0
BBX 16 28 0 0
BITMAP
0003E000
0000B400
0001B400
0002C000
00782D00
003D7C00
001BE000
00000000
0003D000
0007E000
000BF000
000FF400
001EB800
002D7C00
003D3D00
007C2E00
00B82F00
00F41F40
01F00F80
02E00BC0
03E007C0
07FFFFD0
0BFFFFE0
0F8002F0
1F4000F4
2F0000B8
3E00007C
7D00003D
ENDCHAR
STARTCHAR uni1EB3
ENCODING 7859
SWIDTH 479 0
DWIDTH 13 0
BBX 11 24 1 0
BITMAP
003D00
001B40
001F00
003800
0742C0
07D780
01BE00
000000
000000
01BE40
0FFFE0
2F46F0
3D00F4
1400F4
0000F4
01BFF4
0FFAF4
3F40F4
7D00F4
7C00F4
7C01F4
3E5BF8
2FFEF8
07F8BC
ENDCHAR
STARTCHAR uni1EB4
ENCODING 7860
SWIDTH 576 0
DWIDTH 16 0
BBX 16 28 0 0
BITMAP
00050400
002FED00
0035B800
00000000
00782D00
003D7C00
001BE400
00000000
0003D000
0007E000
000BF000
000FF400
001EB800
002D7C00
003D3D00
007C2E00
00B82F00
00F41F40
01F00F80
02E00BC0
03E007C0
07FFFFD0
0BFFFFE0
0F8002F0
1F4000F4
2F0000B8
3E00007C
7D00003D
ENDCHAR
STARTCHAR uni1EB5
ENCODING 7861
SWIDTH 479 0
DWIDTH 13 0
BBX 11 24 1 0
BITMAP
005080
03FAC0
031B40
000000
0742D0
07D7C0
01BE00
000000
000000
01BE40
0FFFE0
2F46F0
3D00F4
1400F4
0000F4
01BFF4
0FFAF4
3F40F4
7D00F4
7C00F4
7C01F4
3E5BF8
2FFEF8
07F8BC
ENDCHAR
STARTCHAR uni1EB6
ENCODING 7862
SWIDTH 576 0
DWIDTH 16 0
BBX 16 30 0 -5
BITMAP
00A00A00
00B41F00
007EBE00
001BE400
00000000
0003D000
0007E000
000BF000
000FF400
001EB800
002D7C00
003D3D00
007C2E00
00B82F00
00F41F40
01F00F80
02E00BC0
03E007C0
07FFFFD0
0BFFFFE0
0F8002F0
1F4000F4
2F0000B8
3E00007C
7D00003D
00000000
00000000
0002D000
0007E000
0002D000
ENDCHAR
STARTCHAR uni1EB7
ENCODING 7863
SWIDTH 479 0
DWIDTH 13 0
BBX 11 25 1 -5
BITMAP
0A00A0
0F41F0
07EBD0
01BE40
000000
01BE40
0FFFE0
2F46F0
3D00F4
1400F4
0000F4
01BFF4
0FFAF4
3F40F4
7D00F4
7C00F4
7C01F4
3E5BF8
2FFEF8
07F8BC
000000
000000
01F000
02F400
01A000
ENDCHAR
STARTCHAR uni1EB8
ENCODING 7864
SWIDTH 496 0
DWIDTH 14 0
BBX 11 25 2 -5
BITMAP
FFFFF8
FFFFF8
F80000
F80000
F80000
F80000
F80000
F80000
F80000
FFFFE0
FFFFE0
F80000
F80000
F80000
F80000
F80000
F80000
F80000
FFFFFC
FFFFFC
000000
000000
00B400
00F800
00B400
ENDCHAR
STARTCHAR uni1EB9
ENCODING 7865
SWIDTH 468 0
DWIDTH 13 0
BBX 11 20 1 -5
BITMAP
01BE40
0BFFE0
2F46F4
3D00F8
7C00B8
B8007C
BFFFFC
BFFFFC
B80000
BC0000
7C0000
7D0010
2F41B8
0FFFF4
02BF80
000000
000000
007800
00BD00
007800
ENDCHAR
STARTCHAR uni1EBA
ENCODING 7866
SWIDTH 496 0
DWIDTH 14 0
BBX 11 28 2 0
BITMAP
00B800
006E00
000F00
001F00
007D00
007400
000000
000000
FFFFF8
FFFFF8
F80000
F80000
F80000
F80000
F80000
F80000
F80000
FFFFE0
FFFFE0
F80000
F80000
F80000
F80000
F80000
F80000
F80000
FFFFFC
FFFFFC
ENDCHAR
STARTCHAR uni1EBB
ENCODING 7867
SWIDTH 468 0
DWIDTH 13 0
BBX 11 23 1 0
BITMAP
007900
002F00
000B40
001F40
003E00
003800
000000
000000
01BE40
0BFFE0
2F46F4
3D00F8
7C00B8
B8007C
BFFFFC
BFFFFC
B80000
BC0000
7C0000
7D0010
2F41B8
0FFFF4
02BF80
ENDCHAR
STARTCHAR uni1EBC
ENCODING 7868
SWIDTH 496 0
DWIDTH 14 0
BBX 11 25 2 0
BITMAP
0B91D0
1FFFC0
2C2F40
000000
000000
FFFFF8
FFFFF8
F80000
F80000
F80000
F80000
F80000
F80000
F80000
FFFFE0
FFFFE0
F80000
F80000
F80000
F80000
F80000
F80000
F80000
FFFFFC
FFFFFC
ENDCHAR
STARTCHAR uni1EBD
ENCODING 7869
SWIDTH 468 0
DWIDTH 13 0
BBX 11 20 1 0
BITMAP
06E0E0
0FFFE0
1D1F80
000000
000000
01BE40
0BFFE0
2F46F4
3D00F8
7C00B8
B8007C
BFFFFC
BFFFFC
B80000
BC0000
7C0000
7D0010
2F41B8
0FFFF4
02BF80
ENDCHAR
STARTCHAR uni1EBE
ENCODING 7870
SWIDTH 496 0
DWIDTH 14 0
BBX 13 28 2 0
BITMAP
00000B80
00001F40
00F82E00
03FE2C00
0F8F8000
1A039000
00000000
00000000
FFFFF800
FFFFF800
F8000000
F8000000
F8000000
F8000000
F8000000
F8000000
F8000000
FFFFE000
FFFFE000
F8000000
F8000000
F8000000
F8000000
F8000000
F8000000
F8000000
FFFFFC00
FFFFFC00
ENDCHAR
STARTCHAR uni1EBF
ENCODING 7871
SWIDTH 468 0
DWIDTH 13 0
BBX 13 23 1 0
BITMAP
000007C0
00000B80
00BD1F00
02FF5D00
0BCBD000
1B42A000
00000000
00000000
01BE4000
0BFFE000
2F46F400
3D00F800
7C00B800
B8007C00
BFFFFC00
BFFFFC00
B8000000
BC000000
7C000000
7D001000
2F41B800
0FFFF400
02BF8000
ENDCHAR
STARTCHAR uni1EC0
ENCODING 7872
SWIDTH 496 0
DWIDTH 14 0
BBX 13 28 0 0
BITMAP
F8000000
7C000000
2D0F8000
1D3FE000
00F8F800
01A07900
00000000
00000000
0FFFFF80
0FFFFF80
0F800000
0F800000
0F800000
0F800000
0F800000
0F800000
0F800000
0FFFFE00
0FFFFE00
0F800000
0F800000
0F800000
0F800000
0F800000
0F800000
0F800000
0FFFFFC0
0FFFFFC0
ENDCHAR
STARTCHAR uni1EC1
ENCODING 7873
SWIDTH 468 0
DWIDTH 13 0
BBX 13 23 -1 0
BITMAP
BC000000
3D000000
1E0BD000
0A2FF400
00BCBD00
01B42A00
00000000
00000000
001BE400
00BFFE00
02F46F40
03D00F80
07C00B80
0B8007C0
0BFFFFC0
0BFFFFC0
0B800000
0BC00000
07C00000
07D00100
02F41B80
00FFFF40
002BF800
ENDCHAR
STARTCHAR uni1EC2
ENCODING 7874
SWIDTH 496 0
DWIDTH 14 0
BBX 12 29 2 0
BITMAP
000078
00002D
00000E
01FC7D
07DF70
0F4B80
2E0290
000000
000000
FFFFF8
FFFFF8
F80000
F80000
F80000
F80000
F80000
F80000
F80000
FFFFE0
FFFFE0
F80000
F80000
F80000
F80000
F80000
F80000
F80000
FFFFFC
FFFFFC
ENDCHAR
STARTCHAR uni1EC3
ENCODING 7875
SWIDTH 468 0
DWIDTH 13 0
BBX 12 24 1 0
BITMAP
000038
00001E
00000B
00FD3E
02EF78
0B87D0
1A01E0
000000
000000
01BE40
0BFFE0
2F46F4
3D00F8
7C00B8
B8007C
BFFFFC
BFFFFC
B80000
BC0000
7C0000
7D0010
2F41B8
0FFFF4
02BF80
ENDCHAR
STARTCHAR uni1EC4
ENCODING 7876
SWIDTH 496 0
DWIDTH 14 0
BBX 11 28 2 0
BITMAP
014100
07EB40
092E00
000000
01F800
0B9F40
1E0290
000000
FFFFF8
FFFFF8
F80000
F80000
F80000
F80000
F80000
F80000
F80000
FFFFE0
FFFFE0
F80000
F80000
F80000
F80000
F80000
F80000
F80000
FFFFFC
FFFFFC
ENDCHAR
STARTCHAR uni1EC5
ENCODING 7877
SWIDTH 468 0
DWIDTH 13 0
BBX 11 24 1 0
BITMAP
004040
03FA80
061E00
000000
00BD00
07DB80
1B42E0
000000
000000
01BE40
0BFFE0
2F46F4
3D00F8
7C00B8
B8007C
BFFFFC
BFFFFC
B80000
BC0000
7C0000
7D0010
2F41B8
0FFFF4
02BF80
ENDCHAR
STARTCHAR uni1EC6
ENCODING 7878
SWIDTH 496 0
DWIDTH 14 0
BBX 11 31 2 -5
BITMAP
00B800
02FD00
078F40
0B0780
000000
000000
FFFFF8
FFFFF8
F80000
F80000
F80000
F80000
F80000
F80000
F80000
FFFFE0
FFFFE0
F80000
F80000
F80000
F80000
F80000
F80000
F80000
FFFFFC
FFFFFC
000000
000000
00B400
00F800
00B400
ENDCHAR
STARTCHAR uni1EC7
ENCODING 7879
SWIDTH 468 0
DWIDTH 13 0
BBX 11 26 1 -5
BITMAP
007C00
01FE00
03DB80
074380
000000
000000
01BE40
0BFFE0
2F46F4
3D00F8
7C00B8
B8007C
BFFFFC
BFFFFC
B80000
BC0000
7C0000
7D0010
2F41B8
0FFFF4
02BF80
000000
000000
007800
00BD00
007800
ENDCHAR
STARTCHAR uni1EC8
ENCODING 7880
SWIDTH 250 0
DWIDTH 7 0
BBX 4 28 2 0
BITMAP
78
6E
0B
1F
7D
74
00
00
B8
B8
B8
B8
B8
B8
B8
B8
B8
B8
B8
B8
B8
B8
B8
B8
B8
B8
B8
B8
ENDCHAR
STARTCHAR uni1EC9
ENCODING 7881
SWIDTH 234 0
DWIDTH 7 0
BBX 4 23 2 0
BITMAP
B4
6E
0E
6E
B9
B0
00
00
F4
F4
F4
F4
F4
F4
F4
F4
F4
F4
F4
F4
F4
F4
F4
ENDCHAR
STARTCHAR uni1ECA
ENCODING 7882
SWIDTH 250 0
DWIDTH 7 0
BBX 3 25 2 -5
BITMAP
B8
B8
B8
B8
B8
B8
B8
B8
B8
B8
B8
B8
B8
B8
B8
B8
B8
B8
B8
B8
00
00
B8
FC
B4
ENDCHAR
STARTCHAR uni1ECB
ENCODING 7883
SWIDTH 229 0
DWIDTH 6 0
BBX 4 25 1 -5
BITMAP
2D
3E
2D
00
00
3D
3D
3D
3D
3D
3D
3D
3D
3D
3D
3D
3D
3D
3D
3D
00
00
3D
7E
29
ENDCHAR
STARTCHAR uni1ECC
ENCODING 7884
SWIDTH 600 0
DWIDTH 17 0
BBX 14 25 1 -5
BITMAP
006FE400
02FFFE00
0BE56F80
1F800BC0
2F0003E0
3E0002E0
7D0002F0
7D0001F0
7D0001F0
7D0001F0
7D0001F0
7D0001F0
7D0001F0
7D0002F0
3E0002E0
2F0003E0
1F800BC0
0BE56F80
02FFFE00
006FE400
00000000
00000000
000B4000
000F8000
000B4000
ENDCHAR
STARTCHAR uni1ECD
ENCODING 7885
SWIDTH 501 0
DWIDTH 14 0
BBX 12 20 1 -5
BITMAP
01BE40
0BFFE0
2F82F8
3E00BC
7C003D
BC002E
B8002E
B8002E
B8002E
BC002E
7C003D
3E007C
2F81F8
0BFFE0
01BE40
000000
000000
007C00
00BD00
006800
ENDCHAR
STARTCHAR uni1ECE
ENCODING 7886
SWIDTH 600 0
DWIDTH 17 0
BBX 14 28 1 0
BITMAP
00078000
0006E000
0000F000
0001F000
0007D000
00074000
00000000
00000000
006FE400
02FFFE00
0BE56F80
1F800BC0
2F0003E0
3E0002E0
7D0002F0
7D0001F0
7D0001F0
7D0001F0
7D0001F0
7D0001F0
7D0001F0
7D0002F0
3E0002E0
2F0003E0
1F800BC0
0BE56F80
02FFFE00
006FE400
ENDCHAR
STARTCHAR uni1ECF
ENCODING 7887
SWIDTH 501 0
DWIDTH 14 0
BBX 12 23 1 0
BITMAP
003900
002F00
000740
001B40
003E00
003800
000000
000000
01BE40
0BFFE0
2F82F8
3E00BC
7C003D
BC002E
B8002E
B8002E
B8002E
BC002E
7C003D
3E007C
2F81F8
0BFFE0
01BE40
ENDCHAR
STARTCHAR uni1ED0
ENCODING 7888
SWIDTH 600 0
DWIDTH 17 0
BBX 15 28 1 0
BITMAP
000000B8
000000F4
000FC2E0
003FE2C0
00F8B800
01B03900
00000000
00000000
006FE400
02FFFE00
0BE56F80
1F800BC0
2F0003E0
3E0002E0
7D0002F0
7D0001F0
7D0001F0
7D0001F0
7D0001F0
7D0001F0
7D0001F0
7D0002F0
3E0002E0
2F0003E0
1F800BC0
0BE56F80
02FFFE00
006FE400
ENDCHAR
STARTCHAR uni1ED1
ENCODING 7889
SWIDTH 501 0
DWIDTH 14 0
BBX 14 23 1 0
BITMAP
000007D0
00000B80
00BD0F00
02FF5900
0BD7D000
0B42E000
00000000
00000000
01BE4000
0BFFE000
2F82F800
3E00BC00
7C003D00
BC002E00
B8002E00
B8002E00
B8002E00
BC002E00
7C003D00
3E007C00
2F81F800
0BFFE000
01BE4000
ENDCHAR
STARTCHAR uni1ED2
ENCODING 7890
SWIDTH 600 0
DWIDTH 17 0
BBX 14 28 1 0
BITMAP
F8000000
7C000000
2D0F8000
0E3FE000
00F8B800
01B03900
00000000
00000000
006FE400
02FFFE00
0BE56F80
1F800BC0
2F0003E0
3E0002E0
7D0002F0
7D0001F0
7D0001F0
7D0001F0
7D0001F0
7D0001F0
7D0001F0
7D0002F0
3E0002E0
2F0003E0
1F800BC0
0BE56F80
02FFFE00
006FE400
ENDCHAR
STARTCHAR uni1ED3
ENCODING 7891
SWIDTH 501 0
DWIDTH 14 0
BBX 14 23 -1 0
BITMAP
7C000000
3D000000
1F0BD000
0A6FF400
00BD7D00
00B42E00
00000000
00000000
001BE400
00BFFE00
02F82F80
03E00BC0
07C003D0
0BC002E0
0B8002E0
0B8002E0
0B8002E0
0BC002E0
07C003D0
03E007C0
02F81F80
00BFFE00
001BE400
ENDCHAR
STARTCHAR uni1ED4
ENCODING 7892
SWIDTH 600 0
DWIDTH 17 0
BBX 14 29 1 0
BITMAP
00000780
000001D0
000000E0
001FC7D0
007DF740
00F4BC00
01E02900
00000000
00000000
006FE400
02FFFE00
0BE56F80
1F800BC0
2F0003E0
3E0002E0
7D0002F0
7D0001F0
7D0001F0
7D0001F0
7D0001F0
7D0001F0
7D0001F0
7D0002F0
3E0002E0
2F0003E0
1F800BC0
0BE56F80
02FFFE00
006FE400
ENDCHAR
STARTCHAR uni1ED5
ENCODING 7893
SWIDTH 501 0
DWIDTH 14 0
BBX 12 24 1 0
BITMAP
000039
00001F
00000B
00BE2E
02EB78
0B83D0
0B01E0
000000
000000
01BE40
0BFFE0
2F82F8
3E00BC
7C003D
BC002E
B8002E
B8002E
B8002E
BC002E
7C003D
3E007C
2F81F8
0BFFE0
01BE40
ENDCHAR
STARTCHAR uni1ED6
ENCODING 7894
SWIDTH 600 0
DWIDTH 17 0
BBX 14 28 1 0
BITMAP
00141000
007FB400
0092E000
00000000
001F8000
00B9F400
01E02900
00000000
006FE400
02FFFE00
0BE56F80
1F800BC0
2F0003E0
3E0002E0
7D0002F0
7D0001F0
7D0001F0
7D0001F0
7D0001F0
7D0001F0
7D0001F0
7D0002F0
3E0002E0
2F0003E0
1F800BC0
0BE56F80
02FFFE00
006FE400
ENDCHAR
STARTCHAR uni1ED7
ENCODING 7895
SWIDTH 501 0
DWIDTH 14 0
BBX 12 24 1 0
BITMAP
004040
02FA80
021F40
000000
00BD00
07DB80
0B41E0
000000
000000
01BE40
0BFFE0
2F82F8
3E00BC
7C003D
BC002E
B8002E
B8002E
B8002E
BC002E
7C003D
3E007C
2F81F8
0BFFE0
01BE40
ENDCHAR
STARTCHAR uni1ED8
ENCODING 7896
SWIDTH 600 0
DWIDTH 17 0
BBX 14 31 1 -5
BITMAP
000B8000
002FD000
0078F400
00B47800
00000000
00000000
006FE400
02FFFE00
0BE56F80
1F800BC0
2F0003E0
3E0002E0
7D0002F0
7D0001F0
7D0001F0
7D0001F0
7D0001F0
7D0001F0
7D0001F0
7D0002F0
3E0002E0
2F0003E0
1F800BC0
0BE56F80
02FFFE00
006FE400
00000000
00000000
000B4000
000F8000
000B4000
ENDCHAR
STARTCHAR uni1ED9
ENCODING 7897
SWIDTH 501 0
DWIDTH 14 0
BBX 12 26 1 -5
BITMAP
007C00
01FE00
03DB80
068290
000000
000000
01BE40
0BFFE0
2F82F8
3E00BC
7C003D
BC002E
B8002E
B8002E
B8002E
BC002E
7C003D
3E007C
2F81F8
0BFFE0
01BE40
000000
000000
007C00
00BD00
006800
ENDCHAR
STARTCHAR uni1EDA
ENCODING 7898
SWIDTH 592 0
DWIDTH 17 0
BBX 16 26 1 0
BITMAP
0000BD00
0002F400
0007D000
000B4000
00000019
0000002E
006FA02D
02FFFD7C
0BE5BFF4
1F401FD0
3E000BC0
3D0003D0
7C0003E0
BC0002E0
B80002F0
B80002F0
B80002F0
B80002F0
BC0002E0
7C0003E0
3D0003D0
3E0007C0
1F401F80
0BE5BF00
02FFFD00
006FE000
ENDCHAR
STARTCHAR uni1EDB
ENCODING 7899
SWIDTH 502 0
DWIDTH 14 0
BBX 14 21 1 0
BITMAP
0007E000
000FC000
002F0000
002C0000
00000040
000002D0
01BE42C0
0BFFD780
1F82FF40
3E00BC00
7D003D00
BC003E00
B8002E00
B8002E00
B8002E00
BC003E00
7D003D00
3E00BC00
1F82F400
0BFFE000
01BE4000
ENDCHAR
STARTCHAR uni1EDC
ENCODING 7900
SWIDTH 592 0
DWIDTH 17 0
BBX 16 26 1 0
BITMAP
02F40000
00BD0000
002F0000
000A4000
00000019
0000002E
006FA02D
02FFFD7C
0BE5BFF4
1F401FD0
3E000BC0
3D0003D0
7C0003E0
BC0002E0
B80002F0
B80002F0
B80002F0
B80002F0
BC0002E0
7C0003E0
3D0003D0
3E0007C0
1F401F80
0BE5BF00
02FFFD00
006FE000
ENDCHAR
STARTCHAR uni1EDD
ENCODING 7901
SWIDTH 502 0
DWIDTH 14 0
BBX 14 21 1 0
BITMAP
0BD00000
03F00000
00F80000
00780000
00000040
000002D0
01BE42C0
0BFFD780
1F82FF40
3E00BC00
7D003D00
BC003E00
B8002E00
B8002E00
B8002E00
BC003E00
7D003D00
3E00BC00
1F82F400
0BFFE000
01BE4000
ENDCHAR
STARTCHAR uni1EDE
ENCODING 7902
SWIDTH 592 0
DWIDTH 17 0
BBX 16 28 1 0
BITMAP
000B8000
0006E000
0000F000
0002E000
000BD000
000B4000
00000019
0000002E
006FA02D
02FFFD7C
0BE5BFF4
1F401FD0
3E000BC0
3D0003D0
7C0003E0
BC0002E0
B80002F0
B80002F0
B80002F0
B80002F0
BC0002E0
7C0003E0
3D0003D0
3E0007C0
1F401F80
0BE5BF00
02FFFD00
006FE000
ENDCHAR
STARTCHAR uni1EDF
ENCODING 7903
SWIDTH 502 0
DWIDTH 14 0
BBX 14 23 1 0
BITMAP
00390000
002F4000
00078000
001B4000
003E0000
003C0000
00000040
000002D0
01BE42C0
0BFFD780
1F82FF40
3E00BC00
7D003D00
BC003E00
B8002E00
B8002E00
B8002E00
BC003E00
7D003D00
3E00BC00
1F82F400
0BFFE000
01BE4000
ENDCHAR
STARTCHAR uni1EE0
ENCODING 7904
SWIDTH 592 0
DWIDTH 17 0
BBX 16 25 1 0
BITMAP
00B91D00
01FFFC00
02C2F400
00000019
0000002E
006FA02D
02FFFD7C
0BE5BFF4
1F401FD0
3E000BC0
3D0003D0
7C0003E0
BC0002E0
B80002F0
B80002F0
B80002F0
B80002F0
BC0002E0
7C0003E0
3D0003D0
3E0007C0
1F401F80
0BE5BF00
02FFFD00
006FE000
ENDCHAR
STARTCHAR uni1EE1
ENCODING 7905
SWIDTH 502 0
DWIDTH 14 0
BBX 14 20 1 0
BITMAP
02E0B000
0BFFE000
0E1B8000
00000040
000002D0
01BE42C0
0BFFD780
1F82FF40
3E00BC00
7D003D00
BC003E00
B8002E00
B8002E00
B8002E00
BC003E00
7D003D00
3E00BC00
1F82F400
0BFFE000
01BE4000
ENDCHAR
STARTCHAR uni1EE2
ENCODING 7906
SWIDTH 592 0
DWIDTH 17 0
BBX 16 27 1 -5
BITMAP
00000019
0000002E
006FA02D
02FFFD7C
0BE5BFF4
1F401FD0
3E000BC0
3D0003D0
7C0003E0
BC0002E0
B80002F0
B80002F0
B80002F0
B80002F0
BC0002E0
7C0003E0
3D0003D0
3E0007C0
1F401F80
0BE5BF00
02FFFD00
006FE000
00000000
00000000
000F4000
001F8000
000B4000
ENDCHAR
STARTCHAR uni1EE3
ENCODING 7907
SWIDTH 502 0
DWIDTH 14 0
BBX 14 22 1 -5
BITMAP
00000040
000002D0
01BE42C0
0BFFD780
1F82FF40
3E00BC00
7D003D00
BC003E00
B8002E00
B8002E00
B8002E00
BC003E00
7D003D00
3E00BC00
1F82F400
0BFFE000
01BE4000
00000000
00000000
007C0000
00BD0000
00780000
ENDCHAR
STARTCHAR uni1EE4
ENCODING 7908
SWIDTH 561 0
DWIDTH 16 0
BBX 13 25 1 -5
BITMAP
7D000BC0
7D000BC0
7D000BC0
7D000BC0
7D000BC0
7D000BC0
7D000BC0
7D000BC0
7D000BC0
7D000BC0
7D000BC0
7D000BC0
7D000BC0
7D000BC0
7D000BC0
3D000BC0
2F001F80
1F917F00
0BFFFD00
01BFE000
00000000
00000000
001E0000
002F4000
001E0000
ENDCHAR
STARTCHAR uni1EE5
ENCODING 7909
SWIDTH 483 0
DWIDTH 14 0
BBX 11 20 1 -5
BITMAP
7D00B8
7D00B8
7D00B8
7D00B8
7D00B8
7D00B8
7D00B8
7D00B8
7D00B8
7D00B8
7D00B8
3E00F8
2F57F8
1FFFF8
06F9B8
000000
000000
00F400
01F400
00A000
ENDCHAR
STARTCHAR uni1EE6
ENCODING 7910
SWIDTH 561 0
DWIDTH 16 0
BBX 13 28 1 0
BITMAP
000E4000
000BC000
0001D000
0006D000
000F8000
000E0000
00000000
00000000
7D000BC0
7D000BC0
7D000BC0
7D000BC0
7D000BC0
7D000BC0
7D000BC0
7D000BC0
7D000BC0
7D000BC0
7D000BC0
7D000BC0
7D000BC0
7D000BC0
7D000BC0
3D000BC0
2F001F80
1F917F00
0BFFFD00
01BFE000
ENDCHAR
STARTCHAR uni1EE7
ENCODING 7911
SWIDTH 483 0
DWIDTH 14 0
BBX 11 23 1 0
BITMAP
007900
002F00
000B40
001F40
003E00
003800
000000
000000
7D00B8
7D00B8
7D00B8
7D00B8
7D00B8
7D00B8
7D00B8
7D00B8
7D00B8
7D00B8
7D00B8
3E00F8
2F57F8
1FFFF8
06F9B8
ENDCHAR
STARTCHAR uni1EE8
ENCODING 7912
SWIDTH 608 0
DWIDTH 17 0
BBX 18 26 1 0
BITMAP
0000BD0000
0002F40000
0007D00000
000B400000
0000000000
00000002D0
7D000BC2D0
7D000BC3C0
7D000BCB80
7D000BFF40
7D000BE800
7D000BC000
7D000BC000
7D000BC000
7D000BC000
7D000BC000
7D000BC000
7D000BC000
7D000BC000
7D000BC000
3D000BC000
3E000F8000
2F001F4000
0FD5BE0000
07FFF80000
00BF900000
ENDCHAR
ENDFONT
